<?xml version="1.0" encoding="utf-8"?>
<!-- Generator: Adobe Illustrator 19.2.1, SVG Export Plug-In . SVG Version: 6.00 Build 0)  -->
<svg version="1.1" id="Layer_1" xmlns="http://www.w3.org/2000/svg" xmlns:xlink="http://www.w3.org/1999/xlink" x="0px" y="0px"
	 width="54.5px" height="99.8px" viewBox="0 0 54.5 99.8" style="enable-background:new 0 0 54.5 99.8;" xml:space="preserve">
<path d="M18.3,47.4c-1.6,0.9-3.9,1.9-4.8,2.6C9,53.5,3.4,58.3,0.8,63.6c-4.3,9,9.7,6.9,13.6,3c0,0,5.7-5.7-1.3,11.2
	c-7,16.9-2.3,21.4-2.2,21.4c1.3,1.2,4.1,0,5.2-0.7c3.9-2.5,3.8-7.4,5.1-11.4c1.3-4,7.3-7.6,9.7-1.8c1.9,4.8,1.1,16.1,9.8,14.2
	c9.3-2-2.5-27.9-2.5-27.9s-3.5-8.6,2.2-3.8s7.1,7,11.8,5.4c4.9-1.7,0.7-11.1-1.4-13.4c-3.4-3.6-9.8-9.8-14.6-11.2
	c-3.2-1,1.6-4.5,1.6-4.5c5.6-4.1,11-8.8,13.4-15.5c5.4-15-10.6-28-24.3-28.7C16.9-0.5,5.5,4.8,4.5,15.7
	C2.9,32.2,17.1,40.5,17.3,40.6c1.9,1.1,3.9,3.5,2.7,5.5C19.8,46.5,19.1,46.9,18.3,47.4z"/>
</svg>
