<?xml version="1.0" encoding="utf-8"?>
<!-- Generator: Adobe Illustrator 19.2.1, SVG Export Plug-In . SVG Version: 6.00 Build 0)  -->
<svg version="1.1" id="Layer_1" xmlns="http://www.w3.org/2000/svg" xmlns:xlink="http://www.w3.org/1999/xlink" x="0px" y="0px"
	 width="800px" height="800px" viewBox="0 0 800 800" enable-background="new 0 0 800 800" xml:space="preserve">
<g>
	<g>
		<g>
			
				<rect x="47.1" y="270" transform="matrix(0.9998 -2.003486e-02 2.003486e-02 0.9998 -7.0342 3.1953)" fill="#FFFFFF" width="217.8" height="165.3"/>
		</g>
		
			<line fill="none" stroke="#231F20" stroke-width="2.6719" stroke-linecap="round" stroke-linejoin="round" stroke-miterlimit="10" x1="70.6" y1="295.7" x2="73" y2="416"/>
		
			<line fill="none" stroke="#231F20" stroke-width="2.6719" stroke-linecap="round" stroke-linejoin="round" stroke-miterlimit="10" x1="95.3" y1="295.2" x2="97.7" y2="415.5"/>
		
			<line fill="none" stroke="#231F20" stroke-width="2.6719" stroke-linecap="round" stroke-linejoin="round" stroke-miterlimit="10" x1="119.3" y1="294.8" x2="121.8" y2="415"/>
		
			<line fill="none" stroke="#231F20" stroke-width="2.6719" stroke-linecap="round" stroke-linejoin="round" stroke-miterlimit="10" x1="143.4" y1="294.3" x2="145.8" y2="414.5"/>
		
			<line fill="none" stroke="#231F20" stroke-width="2.6719" stroke-linecap="round" stroke-linejoin="round" stroke-miterlimit="10" x1="167.4" y1="293.8" x2="169.8" y2="414"/>
		
			<line fill="none" stroke="#231F20" stroke-width="2.6719" stroke-linecap="round" stroke-linejoin="round" stroke-miterlimit="10" x1="191.5" y1="293.3" x2="193.9" y2="413.5"/>
		
			<line fill="none" stroke="#231F20" stroke-width="2.6719" stroke-linecap="round" stroke-linejoin="round" stroke-miterlimit="10" x1="215.5" y1="292.8" x2="217.9" y2="413.1"/>
		
			<line fill="none" stroke="#231F20" stroke-width="2.6719" stroke-linecap="round" stroke-linejoin="round" stroke-miterlimit="10" x1="239.6" y1="292.4" x2="242" y2="412.6"/>
		
			<line fill="none" stroke="#231F20" stroke-width="2.6719" stroke-linecap="round" stroke-linejoin="round" stroke-miterlimit="10" x1="72.6" y1="391.9" x2="241.5" y2="388.5"/>
		
			<line fill="none" stroke="#231F20" stroke-width="2.6719" stroke-linecap="round" stroke-linejoin="round" stroke-miterlimit="10" x1="73" y1="416" x2="242" y2="412.6"/>
		
			<line fill="none" stroke="#231F20" stroke-width="2.6719" stroke-linecap="round" stroke-linejoin="round" stroke-miterlimit="10" x1="71.1" y1="319.8" x2="240" y2="316.4"/>
		
			<line fill="none" stroke="#231F20" stroke-width="2.6719" stroke-linecap="round" stroke-linejoin="round" stroke-miterlimit="10" x1="71.6" y1="343.8" x2="240.5" y2="340.4"/>
		
			<line fill="none" stroke="#231F20" stroke-width="2.6719" stroke-linecap="round" stroke-linejoin="round" stroke-miterlimit="10" x1="72.1" y1="367.9" x2="241" y2="364.5"/>
		<g>
			<path fill="#231F20" d="M83,311.2L83,311.2l4.2-11l2.1,0l0.3,13.2l-1.3,0L88,301.9l0,0l-4.6,11.6l-0.7,0l-5-11.4l0,0l0.2,11.5
				l-1.3,0l-0.3-13.2l2.1,0L83,311.2z"/>
		</g>
		<g>
			<path fill="#231F20" d="M108,313l-1.3,0l-0.2-12L102,301l0-1.2l10.2-0.2l0,1.2l-4.4,0.1L108,313z"/>
		</g>
		<g>
			<path fill="#231F20" d="M155.5,312l-1.3,0l-0.2-12l-4.4,0.1l0-1.2l10.2-0.2l0,1.2l-4.4,0.1L155.5,312z"/>
		</g>
		<g>
			<path fill="#231F20" d="M127.3,310.7L127.3,310.7l3.1-11.5l1.6,0l3.5,11.3l0,0l3-11.5l1.4,0l-3.6,13.3l-1.6,0l-3.6-11.3l0,0
				l-3.1,11.4l-1.6,0l-4.2-13.2l1.4,0L127.3,310.7z"/>
		</g>
		<g>
			<path fill="#231F20" d="M177,311.6l-1.3,0l-0.3-13.2l8-0.2l0,1.2l-6.6,0.1l0.1,4.6l6.2-0.1l0,1.2l-6.2,0.1L177,311.6z"/>
		</g>
		<g>
			<path fill="#231F20" d="M206.3,299.9c-0.3-0.4-0.7-0.7-1.1-0.9c-0.5-0.2-1-0.3-1.6-0.3c-0.3,0-0.7,0.1-1,0.2
				c-0.3,0.1-0.6,0.3-0.9,0.5c-0.3,0.2-0.5,0.5-0.6,0.8c-0.2,0.3-0.2,0.7-0.2,1.1c0,0.4,0.1,0.8,0.3,1s0.4,0.5,0.7,0.7
				c0.3,0.2,0.6,0.3,0.9,0.5c0.3,0.1,0.7,0.2,1.1,0.4c0.5,0.1,0.9,0.3,1.4,0.5c0.5,0.2,0.9,0.4,1.3,0.7c0.4,0.3,0.7,0.6,0.9,1
				c0.2,0.4,0.4,1,0.4,1.6s-0.1,1.2-0.3,1.7c-0.2,0.5-0.6,0.9-1,1.2s-0.9,0.6-1.4,0.7c-0.5,0.2-1,0.2-1.6,0.3c-0.4,0-0.8,0-1.2-0.1
				c-0.4-0.1-0.8-0.2-1.1-0.3c-0.4-0.2-0.7-0.4-1-0.6c-0.3-0.2-0.6-0.5-0.8-0.8l1.1-0.9c0.3,0.5,0.7,0.9,1.2,1.2
				c0.5,0.3,1.1,0.5,1.8,0.4c0.3,0,0.7-0.1,1-0.2c0.3-0.1,0.7-0.3,0.9-0.5c0.3-0.2,0.5-0.5,0.7-0.8c0.2-0.3,0.3-0.7,0.2-1.1
				c0-0.5-0.1-0.8-0.3-1.1c-0.2-0.3-0.4-0.6-0.7-0.8c-0.3-0.2-0.6-0.4-1-0.5c-0.4-0.1-0.8-0.3-1.2-0.4c-0.4-0.1-0.9-0.3-1.3-0.4
				s-0.8-0.4-1.2-0.7c-0.3-0.3-0.6-0.6-0.8-1c-0.2-0.4-0.3-0.9-0.3-1.5c0-0.6,0.1-1.2,0.4-1.7c0.2-0.5,0.6-0.9,1-1.2
				c0.4-0.3,0.9-0.5,1.4-0.7c0.5-0.1,1-0.2,1.5-0.2c0.9,0,1.7,0.1,2.3,0.4c0.6,0.3,1.1,0.7,1.5,1.1L206.3,299.9z"/>
		</g>
		<g>
			<path fill="#231F20" d="M229.9,299.4c-0.3-0.4-0.7-0.7-1.1-0.9c-0.5-0.2-1-0.3-1.6-0.3c-0.3,0-0.7,0.1-1,0.2
				c-0.3,0.1-0.6,0.3-0.9,0.5c-0.3,0.2-0.5,0.5-0.6,0.8c-0.2,0.3-0.2,0.7-0.2,1.1c0,0.4,0.1,0.8,0.3,1c0.2,0.3,0.4,0.5,0.7,0.7
				c0.3,0.2,0.6,0.3,0.9,0.5c0.3,0.1,0.7,0.2,1.1,0.4c0.5,0.1,0.9,0.3,1.4,0.5c0.5,0.2,0.9,0.4,1.3,0.7c0.4,0.3,0.7,0.6,0.9,1
				c0.2,0.4,0.4,1,0.4,1.6s-0.1,1.2-0.3,1.7c-0.2,0.5-0.6,0.9-1,1.2c-0.4,0.3-0.9,0.6-1.4,0.7c-0.5,0.2-1,0.2-1.6,0.3
				c-0.4,0-0.8,0-1.2-0.1c-0.4-0.1-0.8-0.2-1.1-0.3c-0.4-0.2-0.7-0.4-1-0.6c-0.3-0.2-0.6-0.5-0.8-0.8l1.1-0.9
				c0.3,0.5,0.7,0.9,1.2,1.2c0.5,0.3,1.1,0.5,1.8,0.4c0.3,0,0.7-0.1,1-0.2c0.3-0.1,0.7-0.3,0.9-0.5c0.3-0.2,0.5-0.5,0.7-0.8
				c0.2-0.3,0.3-0.7,0.2-1.1c0-0.5-0.1-0.8-0.3-1.1c-0.2-0.3-0.4-0.6-0.7-0.8c-0.3-0.2-0.6-0.4-1-0.5c-0.4-0.1-0.8-0.3-1.2-0.4
				c-0.4-0.1-0.9-0.3-1.3-0.4c-0.4-0.2-0.8-0.4-1.2-0.7c-0.3-0.3-0.6-0.6-0.8-1c-0.2-0.4-0.3-0.9-0.3-1.5c0-0.6,0.1-1.2,0.4-1.7
				c0.2-0.5,0.6-0.9,1-1.2c0.4-0.3,0.9-0.5,1.4-0.7c0.5-0.1,1-0.2,1.5-0.2c0.9,0,1.7,0.1,2.3,0.4c0.6,0.3,1.1,0.7,1.5,1.1
				L229.9,299.4z"/>
		</g>
		<polygon opacity="0.49" fill="#F0ECA1" points="222.7,262.8 226.3,258.7 222.2,258.9 86.1,266.1 82.1,266.3 86.1,270 82.5,274 
			86.5,277.7 82.9,281.7 86.9,285.3 83.3,289.4 87.3,293 83.7,297.1 87.7,300.7 84.2,304.6 88.2,304.4 224.3,297.2 228.2,297 
			224.3,293.5 228,289.5 223.9,285.8 227.5,281.8 223.5,278.1 227.1,274.1 223.1,270.5 226.7,266.4 		"/>
		<g>
			<polygon fill="#D91C5C" points="89.7,326.3 88.3,324.9 83.4,329.8 78.5,324.9 77.1,326.3 82,331.2 77.1,336.1 78.5,337.5 
				83.4,332.6 88.3,337.5 89.7,336.1 84.8,331.2 			"/>
			<polygon fill="#D91C5C" points="114.5,326.3 113.1,324.9 108.2,329.8 103.3,324.9 101.9,326.3 106.8,331.2 101.9,336.1 
				103.3,337.5 108.2,332.6 113.1,337.5 114.5,336.1 109.6,331.2 			"/>
			<polygon fill="#D91C5C" points="138.4,326.3 137,324.9 132.1,329.8 127.2,324.9 125.8,326.3 130.7,331.2 125.8,336.1 
				127.2,337.5 132.1,332.6 137,337.5 138.4,336.1 133.5,331.2 			"/>
			<polygon fill="#D91C5C" points="162.8,325.3 161.5,323.9 156.5,328.9 151.6,323.9 150.2,325.3 155.2,330.2 150.2,335.2 
				151.6,336.5 156.5,331.6 161.5,336.5 162.8,335.2 157.9,330.2 			"/>
			<polygon fill="#D91C5C" points="186.6,325.3 185.2,323.9 180.3,328.9 175.4,323.9 174,325.3 178.9,330.2 174,335.2 175.4,336.5 
				180.3,331.6 185.2,336.5 186.6,335.2 181.7,330.2 			"/>
			<polygon fill="#D91C5C" points="210.5,324.4 209.1,323 204.2,327.9 199.3,323 197.9,324.4 202.8,329.3 197.9,334.2 199.3,335.6 
				204.2,330.7 209.1,335.6 210.5,334.2 205.6,329.3 			"/>
			<polygon fill="#D91C5C" points="234.5,323.5 233.1,322.1 228.2,327 223.3,322.1 221.9,323.5 226.8,328.4 221.9,333.3 
				223.3,334.7 228.2,329.8 233.1,334.7 234.5,333.3 229.6,328.4 			"/>
		</g>
		<g>
			<polygon fill="#D91C5C" points="89.9,350.4 88.6,349 83.6,353.9 78.7,349 77.3,350.4 82.3,355.3 77.3,360.2 78.7,361.6 
				83.6,356.7 88.6,361.6 89.9,360.2 85,355.3 			"/>
			<polygon fill="#D91C5C" points="114.8,350.4 113.4,349 108.5,353.9 103.6,349 102.2,350.4 107.1,355.3 102.2,360.2 103.6,361.6 
				108.5,356.7 113.4,361.6 114.8,360.2 109.9,355.3 			"/>
			<polygon fill="#D91C5C" points="138.7,350.4 137.3,349 132.4,353.9 127.5,349 126.1,350.4 131,355.3 126.1,360.2 127.5,361.6 
				132.4,356.7 137.3,361.6 138.7,360.2 133.8,355.3 			"/>
			<polygon fill="#D91C5C" points="163.1,349.4 161.7,348 156.8,352.9 151.9,348 150.5,349.4 155.4,354.3 150.5,359.3 151.9,360.6 
				156.8,355.7 161.7,360.6 163.1,359.3 158.2,354.3 			"/>
			<polygon fill="#D91C5C" points="186.9,349.4 185.5,348 180.6,352.9 175.7,348 174.3,349.4 179.2,354.3 174.3,359.3 175.7,360.6 
				180.6,355.7 185.5,360.6 186.9,359.3 182,354.3 			"/>
			<polygon fill="#D91C5C" points="210.7,348.5 209.4,347.1 204.4,352 199.5,347.1 198.1,348.5 203.1,353.4 198.1,358.3 
				199.5,359.7 204.4,354.8 209.4,359.7 210.7,358.3 205.8,353.4 			"/>
			<polygon fill="#D91C5C" points="234.8,347.6 233.4,346.2 228.5,351.1 223.5,346.2 222.2,347.6 227.1,352.5 222.2,357.4 
				223.5,358.8 228.5,353.9 233.4,358.8 234.8,357.4 229.9,352.5 			"/>
		</g>
		<g>
			<polygon fill="#D91C5C" points="90.7,374.3 89.3,372.9 84.4,377.8 79.5,372.9 78.1,374.3 83,379.2 78.1,384.1 79.5,385.5 
				84.4,380.6 89.3,385.5 90.7,384.1 85.8,379.2 			"/>
			<polygon fill="#D91C5C" points="115.5,374.3 114.1,372.9 109.2,377.8 104.3,372.9 102.9,374.3 107.8,379.2 102.9,384.1 
				104.3,385.5 109.2,380.6 114.1,385.5 115.5,384.1 110.6,379.2 			"/>
			<polygon fill="#D91C5C" points="139.4,374.3 138,372.9 133.1,377.8 128.2,372.9 126.8,374.3 131.7,379.2 126.8,384.1 
				128.2,385.5 133.1,380.6 138,385.5 139.4,384.1 134.5,379.2 			"/>
			<polygon fill="#D91C5C" points="163.9,373.3 162.5,371.9 157.5,376.8 152.6,371.9 151.2,373.3 156.2,378.2 151.2,383.1 
				152.6,384.5 157.5,379.6 162.5,384.5 163.9,383.1 158.9,378.2 			"/>
			<polygon fill="#D91C5C" points="187.6,373.3 186.2,371.9 181.3,376.8 176.4,371.9 175,373.3 179.9,378.2 175,383.1 176.4,384.5 
				181.3,379.6 186.2,384.5 187.6,383.1 182.7,378.2 			"/>
			<polygon fill="#D91C5C" points="211.5,372.4 210.1,371 205.2,375.9 200.3,371 198.9,372.4 203.8,377.3 198.9,382.2 200.3,383.6 
				205.2,378.7 210.1,383.6 211.5,382.2 206.6,377.3 			"/>
			<polygon fill="#D91C5C" points="235.5,371.5 234.1,370.1 229.2,375 224.3,370.1 222.9,371.5 227.8,376.4 222.9,381.3 
				224.3,382.7 229.2,377.8 234.1,382.7 235.5,381.3 230.6,376.4 			"/>
		</g>
		<g>
			<polygon fill="#D91C5C" points="90.9,398.6 89.5,397.2 84.6,402.2 79.7,397.2 78.3,398.6 83.2,403.5 78.3,408.5 79.7,409.8 
				84.6,404.9 89.5,409.8 90.9,408.5 86,403.5 			"/>
			<polygon fill="#D91C5C" points="115.7,398.6 114.4,397.2 109.4,402.2 104.5,397.2 103.1,398.6 108.1,403.5 103.1,408.5 
				104.5,409.8 109.4,404.9 114.4,409.8 115.7,408.5 110.8,403.5 			"/>
			<polygon fill="#D91C5C" points="139.6,398.6 138.3,397.2 133.3,402.2 128.4,397.2 127,398.6 132,403.5 127,408.5 128.4,409.8 
				133.3,404.9 138.3,409.8 139.6,408.5 134.7,403.5 			"/>
			<polygon fill="#D91C5C" points="164.1,397.6 162.7,396.3 157.8,401.2 152.8,396.3 151.5,397.6 156.4,402.6 151.5,407.5 
				152.8,408.9 157.8,403.9 162.7,408.9 164.1,407.5 159.2,402.6 			"/>
			<polygon fill="#D91C5C" points="187.8,397.6 186.5,396.3 181.5,401.2 176.6,396.3 175.2,397.6 180.2,402.6 175.2,407.5 
				176.6,408.9 181.5,403.9 186.5,408.9 187.8,407.5 182.9,402.6 			"/>
			<polygon fill="#D91C5C" points="211.7,396.7 210.3,395.3 205.4,400.2 200.5,395.3 199.1,396.7 204,401.6 199.1,406.5 
				200.5,407.9 205.4,403 210.3,407.9 211.7,406.5 206.8,401.6 			"/>
			<polygon fill="#D91C5C" points="235.7,395.8 234.4,394.4 229.4,399.3 224.5,394.4 223.1,395.8 228.1,400.7 223.1,405.6 
				224.5,407 229.4,402.1 234.4,407 235.7,405.6 230.8,400.7 			"/>
		</g>
	</g>
	<g>
		<g>
			<rect x="289.2" y="270" fill="#FFFFFF" width="217.8" height="165.3"/>
		</g>
		
			<line fill="none" stroke="#231F20" stroke-width="2.6719" stroke-linecap="round" stroke-linejoin="round" stroke-miterlimit="10" x1="313.9" y1="294" x2="313.9" y2="414.3"/>
		
			<line fill="none" stroke="#231F20" stroke-width="2.6719" stroke-linecap="round" stroke-linejoin="round" stroke-miterlimit="10" x1="338.6" y1="294" x2="338.6" y2="414.3"/>
		
			<line fill="none" stroke="#231F20" stroke-width="2.6719" stroke-linecap="round" stroke-linejoin="round" stroke-miterlimit="10" x1="362.6" y1="294" x2="362.6" y2="414.3"/>
		
			<line fill="none" stroke="#231F20" stroke-width="2.6719" stroke-linecap="round" stroke-linejoin="round" stroke-miterlimit="10" x1="386.7" y1="294" x2="386.7" y2="414.3"/>
		
			<line fill="none" stroke="#231F20" stroke-width="2.6719" stroke-linecap="round" stroke-linejoin="round" stroke-miterlimit="10" x1="410.7" y1="294" x2="410.7" y2="414.3"/>
		
			<line fill="none" stroke="#231F20" stroke-width="2.6719" stroke-linecap="round" stroke-linejoin="round" stroke-miterlimit="10" x1="434.8" y1="294" x2="434.8" y2="414.3"/>
		
			<line fill="none" stroke="#231F20" stroke-width="2.6719" stroke-linecap="round" stroke-linejoin="round" stroke-miterlimit="10" x1="458.8" y1="294" x2="458.8" y2="414.3"/>
		
			<line fill="none" stroke="#231F20" stroke-width="2.6719" stroke-linecap="round" stroke-linejoin="round" stroke-miterlimit="10" x1="482.8" y1="294" x2="482.8" y2="414.3"/>
		
			<line fill="none" stroke="#231F20" stroke-width="2.6719" stroke-linecap="round" stroke-linejoin="round" stroke-miterlimit="10" x1="313.9" y1="390.2" x2="482.8" y2="390.2"/>
		
			<line fill="none" stroke="#231F20" stroke-width="2.6719" stroke-linecap="round" stroke-linejoin="round" stroke-miterlimit="10" x1="313.9" y1="414.3" x2="482.8" y2="414.3"/>
		
			<line fill="none" stroke="#231F20" stroke-width="2.6719" stroke-linecap="round" stroke-linejoin="round" stroke-miterlimit="10" x1="313.9" y1="318.1" x2="482.8" y2="318.1"/>
		
			<line fill="none" stroke="#231F20" stroke-width="2.6719" stroke-linecap="round" stroke-linejoin="round" stroke-miterlimit="10" x1="313.9" y1="342.1" x2="482.8" y2="342.1"/>
		
			<line fill="none" stroke="#231F20" stroke-width="2.6719" stroke-linecap="round" stroke-linejoin="round" stroke-miterlimit="10" x1="313.9" y1="366.2" x2="482.8" y2="366.2"/>
		<g>
			<path fill="#231F20" d="M326,309.6L326,309.6l4.5-11h2.1v13.2h-1.3v-11.5h0l-4.8,11.5h-0.7l-4.8-11.5h0v11.5h-1.3v-13.2h2.1
				L326,309.6z"/>
		</g>
		<g>
			<path fill="#231F20" d="M351,311.9h-1.3v-12h-4.4v-1.2h10.2v1.2H351V311.9z"/>
		</g>
		<g>
			<path fill="#231F20" d="M398.5,311.9h-1.3v-12h-4.4v-1.2h10.2v1.2h-4.4V311.9z"/>
		</g>
		<g>
			<path fill="#231F20" d="M370.3,310L370.3,310l3.3-11.4h1.6l3.3,11.4h0l3.2-11.4h1.4l-3.9,13.2h-1.6l-3.3-11.4h0l-3.3,11.4h-1.6
				l-3.9-13.2h1.4L370.3,310z"/>
		</g>
		<g>
			<path fill="#231F20" d="M420,311.9h-1.3v-13.2h8v1.2H420v4.6h6.2v1.2H420V311.9z"/>
		</g>
		<g>
			<path fill="#231F20" d="M449.5,300.7c-0.3-0.4-0.7-0.7-1.1-1c-0.4-0.2-1-0.4-1.6-0.4c-0.3,0-0.7,0-1,0.1
				c-0.3,0.1-0.6,0.3-0.9,0.5c-0.3,0.2-0.5,0.5-0.7,0.8c-0.2,0.3-0.3,0.7-0.3,1.1s0.1,0.8,0.2,1c0.2,0.3,0.4,0.5,0.6,0.7
				s0.6,0.4,0.9,0.5c0.3,0.1,0.7,0.2,1.1,0.4c0.5,0.2,0.9,0.3,1.4,0.5c0.5,0.2,0.9,0.4,1.3,0.7c0.4,0.3,0.7,0.6,0.9,1.1
				c0.2,0.4,0.4,1,0.4,1.6s-0.1,1.2-0.4,1.7c-0.3,0.5-0.6,0.9-1,1.2c-0.4,0.3-0.9,0.5-1.4,0.7c-0.5,0.1-1,0.2-1.6,0.2
				c-0.4,0-0.8,0-1.2-0.1c-0.4-0.1-0.8-0.2-1.1-0.4c-0.4-0.2-0.7-0.4-1-0.6s-0.6-0.5-0.8-0.9l1.2-0.9c0.3,0.5,0.7,0.9,1.2,1.2
				s1.1,0.5,1.8,0.5c0.3,0,0.7-0.1,1-0.2c0.3-0.1,0.7-0.3,0.9-0.5c0.3-0.2,0.5-0.5,0.7-0.8s0.3-0.7,0.3-1.1c0-0.5-0.1-0.8-0.3-1.2
				s-0.4-0.6-0.7-0.8c-0.3-0.2-0.6-0.4-1-0.5c-0.4-0.1-0.8-0.3-1.2-0.4c-0.4-0.1-0.9-0.3-1.3-0.5c-0.4-0.2-0.8-0.4-1.1-0.7
				c-0.3-0.3-0.6-0.6-0.8-1c-0.2-0.4-0.3-0.9-0.3-1.5c0-0.6,0.1-1.2,0.4-1.6c0.3-0.5,0.6-0.8,1-1.1c0.4-0.3,0.9-0.5,1.4-0.7
				c0.5-0.1,1-0.2,1.5-0.2c0.9,0,1.7,0.2,2.3,0.5c0.6,0.3,1.1,0.7,1.4,1.1L449.5,300.7z"/>
		</g>
		<g>
			<path fill="#231F20" d="M473.1,300.7c-0.3-0.4-0.7-0.7-1.1-1c-0.4-0.2-1-0.4-1.6-0.4c-0.3,0-0.7,0-1,0.1
				c-0.3,0.1-0.6,0.3-0.9,0.5c-0.3,0.2-0.5,0.5-0.7,0.8c-0.2,0.3-0.3,0.7-0.3,1.1s0.1,0.8,0.2,1c0.2,0.3,0.4,0.5,0.6,0.7
				s0.6,0.4,0.9,0.5c0.3,0.1,0.7,0.2,1.1,0.4c0.5,0.2,0.9,0.3,1.4,0.5c0.5,0.2,0.9,0.4,1.3,0.7c0.4,0.3,0.7,0.6,0.9,1.1
				c0.2,0.4,0.4,1,0.4,1.6s-0.1,1.2-0.4,1.7c-0.3,0.5-0.6,0.9-1,1.2c-0.4,0.3-0.9,0.5-1.4,0.7c-0.5,0.1-1,0.2-1.6,0.2
				c-0.4,0-0.8,0-1.2-0.1c-0.4-0.1-0.8-0.2-1.1-0.4c-0.4-0.2-0.7-0.4-1-0.6s-0.6-0.5-0.8-0.9l1.2-0.9c0.3,0.5,0.7,0.9,1.2,1.2
				s1.1,0.5,1.8,0.5c0.3,0,0.7-0.1,1-0.2c0.3-0.1,0.7-0.3,0.9-0.5c0.3-0.2,0.5-0.5,0.7-0.8s0.3-0.7,0.3-1.1c0-0.5-0.1-0.8-0.3-1.2
				s-0.4-0.6-0.7-0.8c-0.3-0.2-0.6-0.4-1-0.5c-0.4-0.1-0.8-0.3-1.2-0.4c-0.4-0.1-0.9-0.3-1.3-0.5c-0.4-0.2-0.8-0.4-1.1-0.7
				c-0.3-0.3-0.6-0.6-0.8-1c-0.2-0.4-0.3-0.9-0.3-1.5c0-0.6,0.1-1.2,0.4-1.6c0.3-0.5,0.6-0.8,1-1.1c0.4-0.3,0.9-0.5,1.4-0.7
				c0.5-0.1,1-0.2,1.5-0.2c0.9,0,1.7,0.2,2.3,0.5c0.6,0.3,1.1,0.7,1.4,1.1L473.1,300.7z"/>
		</g>
		<polygon opacity="0.49" fill="#F0ECA1" points="467.5,267.2 471.4,263.4 467.3,263.4 331,261.8 327,261.7 330.8,265.6 
			326.9,269.4 330.7,273.3 326.8,277.1 330.6,281 326.7,284.8 330.5,288.7 326.6,292.5 330.4,296.4 326.6,300.1 330.6,300.1 
			466.9,301.7 470.8,301.8 467.2,298 471.1,294.2 467.2,290.3 471.1,286.5 467.3,282.6 471.2,278.8 467.4,275 471.3,271.1 		"/>
		<g>
			<polygon fill="#D91C5C" points="333,324.4 331.6,323 326.6,327.8 321.8,322.8 320.4,324.2 325.2,329.2 320.2,334 321.5,335.4 
				326.6,330.6 331.4,335.6 332.8,334.3 328,329.2 			"/>
			<polygon fill="#D91C5C" points="357.8,324.9 356.5,323.5 351.4,328.3 346.6,323.3 345.2,324.7 350,329.7 345,334.5 346.4,335.9 
				351.4,331.1 356.2,336.1 357.6,334.8 352.8,329.8 			"/>
			<polygon fill="#D91C5C" points="381.7,325.4 380.3,324 375.3,328.8 370.5,323.8 369.1,325.2 373.9,330.2 368.9,335 370.2,336.4 
				375.3,331.6 380.1,336.6 381.5,335.3 376.7,330.2 			"/>
			<polygon fill="#D91C5C" points="406.1,325 404.8,323.5 399.8,328.4 395,323.3 393.5,324.7 398.4,329.7 393.3,334.5 394.7,335.9 
				399.7,331.1 404.5,336.1 405.9,334.8 401.1,329.8 			"/>
			<polygon fill="#D91C5C" points="429.9,325.4 428.6,324 423.5,328.8 418.7,323.8 417.3,325.2 422.1,330.2 417.1,335 418.5,336.4 
				423.5,331.6 428.3,336.6 429.7,335.3 424.9,330.3 			"/>
			<polygon fill="#D91C5C" points="453.8,325 452.4,323.6 447.4,328.4 442.6,323.4 441.2,324.7 446,329.8 441,334.6 442.3,336 
				447.4,331.2 452.2,336.2 453.6,334.8 448.8,329.8 			"/>
			<polygon fill="#D91C5C" points="477.8,324.6 476.5,323.2 471.5,328 466.6,323 465.2,324.3 470.1,329.4 465,334.2 466.4,335.6 
				471.4,330.8 476.2,335.8 477.6,334.4 472.8,329.4 			"/>
		</g>
		<g>
			<polygon fill="#D91C5C" points="333,349 331.6,347.6 326.6,352.4 321.8,347.4 320.4,348.8 325.2,353.8 320.2,358.6 321.5,360 
				326.6,355.2 331.4,360.2 332.8,358.9 328,353.9 			"/>
			<polygon fill="#D91C5C" points="357.8,349.5 356.5,348.1 351.4,353 346.6,347.9 345.2,349.3 350,354.3 345,359.1 346.4,360.5 
				351.4,355.7 356.2,360.7 357.6,359.4 352.8,354.4 			"/>
			<polygon fill="#D91C5C" points="381.7,350 380.3,348.6 375.3,353.4 370.5,348.4 369.1,349.8 373.9,354.8 368.9,359.6 370.2,361 
				375.3,356.2 380.1,361.2 381.5,359.9 376.7,354.9 			"/>
			<polygon fill="#D91C5C" points="406.1,349.6 404.8,348.1 399.8,353 395,347.9 393.5,349.3 398.4,354.3 393.3,359.1 394.7,360.6 
				399.7,355.7 404.5,360.8 405.9,359.4 401.1,354.4 			"/>
			<polygon fill="#D91C5C" points="429.9,350.1 428.6,348.6 423.5,353.5 418.7,348.4 417.3,349.8 422.1,354.8 417.1,359.6 
				418.5,361 423.5,356.2 428.3,361.2 429.7,359.9 424.9,354.9 			"/>
			<polygon fill="#D91C5C" points="453.8,349.6 452.4,348.2 447.4,353 442.6,348 441.2,349.4 446,354.4 441,359.2 442.3,360.6 
				447.4,355.8 452.2,360.8 453.6,359.5 448.8,354.4 			"/>
			<polygon fill="#D91C5C" points="477.8,349.2 476.5,347.8 471.5,352.6 466.6,347.6 465.2,349 470.1,354 465,358.8 466.4,360.2 
				471.4,355.4 476.2,360.4 477.6,359.1 472.8,354 			"/>
		</g>
		<g>
			<polygon fill="#D91C5C" points="332,373.4 330.7,372 325.7,376.8 320.8,371.8 319.4,373.1 324.2,378.2 319.2,383 320.6,384.4 
				325.6,379.6 330.4,384.6 331.8,383.2 327,378.2 			"/>
			<polygon fill="#D91C5C" points="356.9,373.9 355.5,372.5 350.5,377.3 345.7,372.3 344.3,373.6 349.1,378.7 344.1,383.5 
				345.4,384.9 350.4,380.1 355.2,385.1 356.7,383.7 351.8,378.7 			"/>
			<polygon fill="#D91C5C" points="380.7,374.4 379.4,373 374.4,377.8 369.6,372.8 368.1,374.1 373,379.2 367.9,384 369.3,385.4 
				374.3,380.6 379.1,385.6 380.5,384.2 375.7,379.2 			"/>
			<polygon fill="#D91C5C" points="405.2,373.9 403.8,372.5 398.8,377.3 394,372.3 392.6,373.7 397.4,378.7 392.4,383.5 
				393.7,384.9 398.8,380.1 403.6,385.1 405,383.8 400.2,378.7 			"/>
			<polygon fill="#D91C5C" points="429,374.4 427.6,373 422.6,377.8 417.8,372.8 416.4,374.1 421.2,379.2 416.2,384 417.5,385.4 
				422.5,380.6 427.3,385.6 428.8,384.2 423.9,379.2 			"/>
			<polygon fill="#D91C5C" points="452.8,374 451.5,372.6 446.5,377.4 441.6,372.4 440.2,373.7 445,378.7 440,383.6 441.4,385 
				446.4,380.1 451.2,385.2 452.6,383.8 447.8,378.8 			"/>
			<polygon fill="#D91C5C" points="476.9,373.6 475.5,372.2 470.5,377 465.7,372 464.3,373.3 469.1,378.3 464.1,383.1 465.4,384.6 
				470.4,379.7 475.3,384.8 476.7,383.4 471.9,378.4 			"/>
		</g>
		<g>
			<polygon fill="#D91C5C" points="332,397.3 330.7,395.8 325.7,400.7 320.8,395.6 319.4,397 324.2,402 319.2,406.8 320.6,408.2 
				325.6,403.4 330.4,408.4 331.8,407.1 327,402.1 			"/>
			<polygon fill="#D91C5C" points="356.9,397.8 355.5,396.4 350.5,401.2 345.7,396.2 344.3,397.5 349.1,402.5 344.1,407.3 
				345.4,408.8 350.4,403.9 355.2,409 356.7,407.6 351.8,402.6 			"/>
			<polygon fill="#D91C5C" points="380.7,398.3 379.4,396.9 374.4,401.7 369.6,396.7 368.1,398 373,403 367.9,407.8 369.3,409.3 
				374.3,404.4 379.1,409.5 380.5,408.1 375.7,403.1 			"/>
			<polygon fill="#D91C5C" points="405.2,397.8 403.8,396.4 398.8,401.2 394,396.2 392.6,397.5 397.4,402.5 392.4,407.4 
				393.7,408.8 398.8,404 403.6,409 405,407.6 400.2,402.6 			"/>
			<polygon fill="#D91C5C" points="429,398.3 427.6,396.9 422.6,401.7 417.8,396.7 416.4,398 421.2,403 416.2,407.9 417.5,409.3 
				422.5,404.4 427.3,409.5 428.8,408.1 423.9,403.1 			"/>
			<polygon fill="#D91C5C" points="452.8,397.8 451.5,396.4 446.5,401.2 441.6,396.2 440.2,397.6 445,402.6 440,407.4 441.4,408.8 
				446.4,404 451.2,409 452.6,407.7 447.8,402.7 			"/>
			<polygon fill="#D91C5C" points="476.9,397.4 475.5,396 470.5,400.8 465.7,395.8 464.3,397.2 469.1,402.2 464.1,407 465.4,408.4 
				470.4,403.6 475.3,408.6 476.7,407.3 471.9,402.3 			"/>
		</g>
	</g>
	<g>
		<g>
			
				<rect x="557.2" y="243.8" transform="matrix(2.865491e-02 -0.9996 0.9996 2.865491e-02 269.0408 982.1763)" fill="#FFFFFF" width="165.3" height="217.8"/>
		</g>
		
			<line fill="none" stroke="#231F20" stroke-width="2.6719" stroke-linecap="round" stroke-linejoin="round" stroke-miterlimit="10" x1="557.4" y1="291.7" x2="554" y2="411.8"/>
		
			<line fill="none" stroke="#231F20" stroke-width="2.6719" stroke-linecap="round" stroke-linejoin="round" stroke-miterlimit="10" x1="582.1" y1="292.4" x2="578.7" y2="412.5"/>
		
			<line fill="none" stroke="#231F20" stroke-width="2.6719" stroke-linecap="round" stroke-linejoin="round" stroke-miterlimit="10" x1="606.1" y1="293.1" x2="602.7" y2="413.2"/>
		
			<line fill="none" stroke="#231F20" stroke-width="2.6719" stroke-linecap="round" stroke-linejoin="round" stroke-miterlimit="10" x1="630.2" y1="293.7" x2="626.7" y2="413.9"/>
		
			<line fill="none" stroke="#231F20" stroke-width="2.6719" stroke-linecap="round" stroke-linejoin="round" stroke-miterlimit="10" x1="654.2" y1="294.4" x2="650.8" y2="414.6"/>
		
			<line fill="none" stroke="#231F20" stroke-width="2.6719" stroke-linecap="round" stroke-linejoin="round" stroke-miterlimit="10" x1="678.3" y1="295.1" x2="674.8" y2="415.3"/>
		
			<line fill="none" stroke="#231F20" stroke-width="2.6719" stroke-linecap="round" stroke-linejoin="round" stroke-miterlimit="10" x1="702.3" y1="295.8" x2="698.8" y2="416"/>
		
			<line fill="none" stroke="#231F20" stroke-width="2.6719" stroke-linecap="round" stroke-linejoin="round" stroke-miterlimit="10" x1="726.3" y1="296.5" x2="722.9" y2="416.7"/>
		
			<line fill="none" stroke="#231F20" stroke-width="2.6719" stroke-linecap="round" stroke-linejoin="round" stroke-miterlimit="10" x1="554.7" y1="387.8" x2="723.6" y2="392.6"/>
		
			<line fill="none" stroke="#231F20" stroke-width="2.6719" stroke-linecap="round" stroke-linejoin="round" stroke-miterlimit="10" x1="554" y1="411.8" x2="722.9" y2="416.7"/>
		
			<line fill="none" stroke="#231F20" stroke-width="2.6719" stroke-linecap="round" stroke-linejoin="round" stroke-miterlimit="10" x1="556.7" y1="315.7" x2="725.6" y2="320.5"/>
		
			<line fill="none" stroke="#231F20" stroke-width="2.6719" stroke-linecap="round" stroke-linejoin="round" stroke-miterlimit="10" x1="556.1" y1="339.7" x2="724.9" y2="344.6"/>
		
			<line fill="none" stroke="#231F20" stroke-width="2.6719" stroke-linecap="round" stroke-linejoin="round" stroke-miterlimit="10" x1="555.4" y1="363.8" x2="724.3" y2="368.6"/>
		<g>
			<path fill="#231F20" d="M569.3,307.4L569.3,307.4l4.8-10.8l2.1,0.1l-0.4,13.2l-1.3,0l0.3-11.5l0,0l-5.1,11.4l-0.7,0l-4.5-11.6
				l0,0l-0.3,11.5l-1.3,0l0.4-13.2l2.1,0.1L569.3,307.4z"/>
		</g>
		<g>
			<path fill="#231F20" d="M594.2,310.4l-1.3,0l0.3-12l-4.4-0.1l0-1.2l10.2,0.3l0,1.2l-4.4-0.1L594.2,310.4z"/>
		</g>
		<g>
			<path fill="#231F20" d="M641.6,311.8l-1.3,0l0.3-12l-4.4-0.1l0-1.2l10.2,0.3l0,1.2l-4.4-0.1L641.6,311.8z"/>
		</g>
		<g>
			<path fill="#231F20" d="M613.5,309.1L613.5,309.1l3.7-11.3l1.6,0l3,11.5l0,0l3.6-11.3l1.4,0l-4.3,13.1l-1.6,0l-3-11.5l0,0
				l-3.7,11.3l-1.6,0l-3.5-13.3l1.4,0L613.5,309.1z"/>
		</g>
		<g>
			<path fill="#231F20" d="M663.1,312.4l-1.3,0l0.4-13.2l8,0.2l0,1.2l-6.6-0.2l-0.1,4.6l6.2,0.2l0,1.2l-6.2-0.2L663.1,312.4z"/>
		</g>
		<g>
			<path fill="#231F20" d="M692.9,302.1c-0.3-0.4-0.6-0.7-1.1-1c-0.4-0.3-1-0.4-1.6-0.4c-0.3,0-0.7,0-1,0.1
				c-0.3,0.1-0.6,0.2-0.9,0.4c-0.3,0.2-0.5,0.5-0.7,0.8c-0.2,0.3-0.3,0.7-0.3,1.1c0,0.4,0.1,0.8,0.2,1.1c0.2,0.3,0.4,0.5,0.6,0.7
				c0.3,0.2,0.6,0.4,0.9,0.5c0.3,0.1,0.7,0.3,1.1,0.4c0.5,0.2,0.9,0.3,1.4,0.5c0.5,0.2,0.9,0.4,1.2,0.7c0.4,0.3,0.7,0.7,0.9,1.1
				c0.2,0.4,0.3,1,0.3,1.6c0,0.7-0.2,1.2-0.4,1.7c-0.3,0.5-0.6,0.9-1,1.2s-0.9,0.5-1.4,0.7c-0.5,0.1-1,0.2-1.6,0.2
				c-0.4,0-0.8-0.1-1.2-0.2c-0.4-0.1-0.8-0.2-1.1-0.4c-0.4-0.2-0.7-0.4-1-0.6c-0.3-0.3-0.6-0.6-0.8-0.9l1.2-0.8
				c0.3,0.5,0.7,0.9,1.2,1.2c0.5,0.3,1.1,0.5,1.8,0.5c0.3,0,0.7,0,1-0.1c0.4-0.1,0.7-0.2,1-0.5c0.3-0.2,0.5-0.5,0.7-0.8
				c0.2-0.3,0.3-0.7,0.3-1.1c0-0.5-0.1-0.8-0.2-1.2c-0.2-0.3-0.4-0.6-0.7-0.8c-0.3-0.2-0.6-0.4-1-0.5s-0.8-0.3-1.2-0.4
				c-0.4-0.2-0.9-0.3-1.3-0.5s-0.8-0.4-1.1-0.7c-0.3-0.3-0.6-0.6-0.8-1.1c-0.2-0.4-0.3-0.9-0.3-1.5c0-0.6,0.2-1.2,0.4-1.6
				c0.3-0.5,0.6-0.8,1-1.1c0.4-0.3,0.9-0.5,1.4-0.6c0.5-0.1,1-0.2,1.5-0.2c0.9,0,1.7,0.2,2.3,0.5c0.6,0.3,1.1,0.7,1.4,1.2
				L692.9,302.1z"/>
		</g>
		<g>
			<path fill="#231F20" d="M716.5,302.8c-0.3-0.4-0.6-0.7-1.1-1c-0.4-0.3-1-0.4-1.6-0.4c-0.3,0-0.7,0-1,0.1
				c-0.3,0.1-0.6,0.2-0.9,0.4c-0.3,0.2-0.5,0.5-0.7,0.8c-0.2,0.3-0.3,0.7-0.3,1.1c0,0.4,0.1,0.8,0.2,1.1c0.2,0.3,0.4,0.5,0.6,0.7
				c0.3,0.2,0.6,0.4,0.9,0.5c0.3,0.1,0.7,0.3,1.1,0.4c0.5,0.2,0.9,0.3,1.4,0.5c0.5,0.2,0.9,0.4,1.2,0.7c0.4,0.3,0.7,0.7,0.9,1.1
				c0.2,0.4,0.3,1,0.3,1.6c0,0.7-0.2,1.2-0.4,1.7c-0.3,0.5-0.6,0.9-1,1.2s-0.9,0.5-1.4,0.7c-0.5,0.1-1,0.2-1.6,0.2
				c-0.4,0-0.8-0.1-1.2-0.2c-0.4-0.1-0.8-0.2-1.1-0.4c-0.4-0.2-0.7-0.4-1-0.6c-0.3-0.3-0.6-0.6-0.8-0.9l1.2-0.8
				c0.3,0.5,0.7,0.9,1.2,1.2c0.5,0.3,1.1,0.5,1.8,0.5c0.3,0,0.7,0,1-0.1c0.4-0.1,0.7-0.2,1-0.5s0.5-0.5,0.7-0.8
				c0.2-0.3,0.3-0.7,0.3-1.1c0-0.5-0.1-0.8-0.2-1.2c-0.2-0.3-0.4-0.6-0.7-0.8c-0.3-0.2-0.6-0.4-1-0.5s-0.8-0.3-1.2-0.4
				c-0.4-0.1-0.9-0.3-1.3-0.5c-0.4-0.2-0.8-0.4-1.1-0.7c-0.3-0.3-0.6-0.6-0.8-1.1c-0.2-0.4-0.3-0.9-0.3-1.5c0-0.6,0.2-1.2,0.4-1.6
				c0.3-0.5,0.6-0.8,1-1.1c0.4-0.3,0.9-0.5,1.4-0.6c0.5-0.1,1-0.2,1.5-0.2c0.9,0,1.7,0.2,2.3,0.5s1.1,0.7,1.4,1.2L716.5,302.8z"/>
		</g>
		<polygon opacity="0.49" fill="#F0ECA1" points="707.4,259.3 711.2,255.4 707.1,255.4 570.8,256 566.7,256 570.6,259.8 
			566.8,263.7 570.6,267.5 566.8,271.4 570.7,275.2 566.8,279.1 570.7,282.9 566.9,286.8 570.7,290.6 567,294.3 571,294.3 
			707.3,293.7 711.2,293.7 707.5,290 711.3,286.2 707.5,282.3 711.3,278.5 707.4,274.6 711.2,270.8 707.4,267 711.2,263.1 		"/>
		<g>
			<polygon fill="#D91C5C" points="575.3,323.6 574,322.1 568.8,326.9 564.1,321.7 562.7,323.1 567.4,328.2 562.3,332.9 
				563.6,334.3 568.7,329.6 573.4,334.7 574.9,333.4 570.2,328.3 			"/>
			<polygon fill="#D91C5C" points="600.1,324.6 598.8,323.2 593.7,327.9 588.9,322.8 587.5,324.1 592.2,329.2 587.1,333.9 
				588.4,335.4 593.5,330.6 598.3,335.8 599.7,334.4 595,329.3 			"/>
			<polygon fill="#D91C5C" points="624,325.6 622.6,324.1 617.5,328.9 612.8,323.7 611.4,325.1 616.1,330.2 611,334.9 612.3,336.3 
				617.4,331.6 622.1,336.7 623.6,335.4 618.9,330.3 			"/>
			<polygon fill="#D91C5C" points="648.4,325.6 647.1,324.2 642,328.9 637.3,323.7 635.8,325.1 640.5,330.2 635.4,334.9 
				636.7,336.3 641.9,331.6 646.6,336.7 648,335.4 643.3,330.3 			"/>
			<polygon fill="#D91C5C" points="672.2,326.6 670.8,325.1 665.7,329.8 661,324.7 659.6,326 664.3,331.2 659.2,335.9 660.5,337.3 
				665.6,332.6 670.3,337.7 671.8,336.4 667.1,331.3 			"/>
			<polygon fill="#D91C5C" points="696.1,326.6 694.7,325.2 689.6,329.9 684.9,324.8 683.5,326.1 688.2,331.2 683.1,335.9 
				684.4,337.4 689.5,332.6 694.2,337.8 695.7,336.4 690.9,331.3 			"/>
			<polygon fill="#D91C5C" points="720.1,326.7 718.8,325.2 713.7,330 708.9,324.8 707.5,326.2 712.2,331.3 707.1,336 708.4,337.4 
				713.5,332.7 718.3,337.8 719.7,336.5 715,331.4 			"/>
		</g>
		<g>
			<polygon fill="#D91C5C" points="573.9,348.3 572.6,346.9 567.5,351.6 562.7,346.5 561.3,347.8 566,352.9 560.9,357.6 
				562.2,359.1 567.4,354.4 572.1,359.5 573.5,358.1 568.8,353 			"/>
			<polygon fill="#D91C5C" points="598.7,349.3 597.4,347.9 592.3,352.6 587.6,347.5 586.1,348.8 590.8,353.9 585.7,358.6 
				587,360.1 592.2,355.4 596.9,360.5 598.3,359.2 593.6,354 			"/>
			<polygon fill="#D91C5C" points="622.6,350.3 621.3,348.9 616.1,353.6 611.4,348.5 610,349.8 614.7,354.9 609.6,359.6 
				610.9,361.1 616,356.3 620.8,361.5 622.2,360.1 617.5,355 			"/>
			<polygon fill="#D91C5C" points="647,350.3 645.7,348.9 640.6,353.6 635.9,348.5 634.4,349.8 639.2,354.9 634,359.6 635.4,361.1 
				640.5,356.4 645.2,361.5 646.6,360.1 641.9,355 			"/>
			<polygon fill="#D91C5C" points="670.8,351.3 669.5,349.8 664.4,354.6 659.6,349.4 658.2,350.8 662.9,355.9 657.8,360.6 
				659.1,362 664.2,357.3 669,362.4 670.4,361.1 665.7,356 			"/>
			<polygon fill="#D91C5C" points="694.7,351.3 693.3,349.9 688.2,354.6 683.5,349.5 682.1,350.8 686.8,355.9 681.7,360.6 
				683,362.1 688.1,357.4 692.8,362.5 694.3,361.2 689.6,356 			"/>
			<polygon fill="#D91C5C" points="718.7,351.4 717.4,350 712.3,354.7 707.6,349.6 706.1,350.9 710.8,356 705.7,360.7 707.1,362.2 
				712.2,357.5 716.9,362.6 718.3,361.2 713.6,356.1 			"/>
		</g>
		<g>
			<polygon fill="#D91C5C" points="573.3,372.1 571.9,370.7 566.8,375.4 562.1,370.3 560.7,371.6 565.4,376.8 560.3,381.5 
				561.6,382.9 566.7,378.2 571.4,383.3 572.9,382 568.1,376.9 			"/>
			<polygon fill="#D91C5C" points="598.1,373.2 596.7,371.7 591.6,376.4 586.9,371.3 585.5,372.6 590.2,377.8 585.1,382.5 
				586.4,383.9 591.5,379.2 596.2,384.3 597.7,383 593,377.9 			"/>
			<polygon fill="#D91C5C" points="621.9,374.1 620.6,372.7 615.5,377.4 610.8,372.3 609.3,373.6 614.1,378.7 608.9,383.5 
				610.3,384.9 615.4,380.2 620.1,385.3 621.5,384 616.8,378.9 			"/>
			<polygon fill="#D91C5C" points="646.4,374.2 645.1,372.7 639.9,377.4 635.2,372.3 633.8,373.6 638.5,378.8 633.4,383.5 
				634.7,384.9 639.8,380.2 644.6,385.3 646,384 641.3,378.9 			"/>
			<polygon fill="#D91C5C" points="670.1,375.1 668.8,373.7 663.7,378.4 659,373.3 657.5,374.6 662.3,379.7 657.1,384.4 
				658.5,385.9 663.6,381.2 668.3,386.3 669.7,385 665,379.8 			"/>
			<polygon fill="#D91C5C" points="694,375.2 692.7,373.7 687.6,378.4 682.9,373.3 681.4,374.7 686.1,379.8 681,384.5 682.4,385.9 
				687.5,381.2 692.2,386.3 693.6,385 688.9,379.9 			"/>
			<polygon fill="#D91C5C" points="718.1,375.2 716.7,373.8 711.6,378.5 706.9,373.4 705.5,374.7 710.2,379.9 705.1,384.6 
				706.4,386 711.5,381.3 716.2,386.4 717.7,385.1 713,380 			"/>
		</g>
		<g>
			<polygon fill="#D91C5C" points="573.2,396 571.9,394.6 566.8,399.3 562.1,394.2 560.6,395.5 565.3,400.6 560.2,405.3 
				561.5,406.8 566.7,402.1 571.4,407.2 572.8,405.8 568.1,400.7 			"/>
			<polygon fill="#D91C5C" points="598,397 596.7,395.6 591.6,400.3 586.9,395.2 585.4,396.5 590.1,401.6 585,406.3 586.4,407.8 
				591.5,403.1 596.2,408.2 597.6,406.9 592.9,401.7 			"/>
			<polygon fill="#D91C5C" points="621.9,398 620.6,396.6 615.5,401.3 610.7,396.2 609.3,397.5 614,402.6 608.9,407.3 610.2,408.8 
				615.3,404 620.1,409.2 621.5,407.8 616.8,402.7 			"/>
			<polygon fill="#D91C5C" points="646.4,398 645,396.6 639.9,401.3 635.2,396.2 633.8,397.5 638.5,402.6 633.4,407.3 634.7,408.8 
				639.8,404.1 644.5,409.2 646,407.9 641.2,402.7 			"/>
			<polygon fill="#D91C5C" points="670.1,399 668.8,397.6 663.7,402.3 658.9,397.1 657.5,398.5 662.2,403.6 657.1,408.3 
				658.4,409.7 663.6,405 668.3,410.1 669.7,408.8 665,403.7 			"/>
			<polygon fill="#D91C5C" points="694,399 692.7,397.6 687.5,402.3 682.8,397.2 681.4,398.5 686.1,403.6 681,408.4 682.3,409.8 
				687.4,405.1 692.1,410.2 693.6,408.9 688.9,403.7 			"/>
			<polygon fill="#D91C5C" points="718,399.1 716.7,397.7 711.6,402.4 706.9,397.3 705.4,398.6 710.2,403.7 705,408.4 706.4,409.9 
				711.5,405.2 716.2,410.3 717.6,408.9 712.9,403.8 			"/>
		</g>
	</g>
</g>
<g>
</g>
<g>
</g>
<g>
</g>
<g>
</g>
<g>
</g>
<g>
</g>
<g>
</g>
<g>
</g>
<g>
</g>
<g>
</g>
<g>
</g>
<g>
</g>
<g>
</g>
<g>
</g>
<g>
</g>
</svg>
