<?xml version="1.0" encoding="utf-8"?>
<!-- Generator: Adobe Illustrator 19.2.1, SVG Export Plug-In . SVG Version: 6.00 Build 0)  -->
<svg version="1.1" id="Layer_1" xmlns="http://www.w3.org/2000/svg" xmlns:xlink="http://www.w3.org/1999/xlink" x="0px" y="0px"
	 width="217.8px" height="173.6px" viewBox="0 0 217.8 173.6" style="enable-background:new 0 0 217.8 173.6;" xml:space="preserve"
	>
<style type="text/css">
	.st0{fill:#FFFFFF;}
	.st1{fill:none;stroke:#231F20;stroke-width:2.6719;stroke-linecap:round;stroke-linejoin:round;stroke-miterlimit:10;}
	.st2{fill:#231F20;}
	.st3{opacity:0.49;fill:#F0ECA1;enable-background:new    ;}
	.st4{fill:#D91C5C;}
</style>
<g>
	<g>
		<rect y="8.3" class="st0" width="217.8" height="165.3"/>
	</g>
	<line class="st1" x1="24.7" y1="32.3" x2="24.7" y2="152.6"/>
	<line class="st1" x1="49.4" y1="32.3" x2="49.4" y2="152.6"/>
	<line class="st1" x1="73.4" y1="32.3" x2="73.4" y2="152.6"/>
	<line class="st1" x1="97.5" y1="32.3" x2="97.5" y2="152.6"/>
	<line class="st1" x1="121.5" y1="32.3" x2="121.5" y2="152.6"/>
	<line class="st1" x1="145.6" y1="32.3" x2="145.6" y2="152.6"/>
	<line class="st1" x1="169.6" y1="32.3" x2="169.6" y2="152.6"/>
	<line class="st1" x1="193.6" y1="32.3" x2="193.6" y2="152.6"/>
	<line class="st1" x1="24.7" y1="128.5" x2="193.6" y2="128.5"/>
	<line class="st1" x1="24.7" y1="152.6" x2="193.6" y2="152.6"/>
	<line class="st1" x1="24.7" y1="56.4" x2="193.6" y2="56.4"/>
	<line class="st1" x1="24.7" y1="80.4" x2="193.6" y2="80.4"/>
	<line class="st1" x1="24.7" y1="104.5" x2="193.6" y2="104.5"/>
	<g>
		<path class="st2" d="M36.8,47.9L36.8,47.9l4.5-11h2.1v13.2h-1.3V38.6l0,0l-4.8,11.5h-0.7l-4.8-11.5l0,0v11.5h-1.3V36.9h2.1
			L36.8,47.9z"/>
	</g>
	<g>
		<path class="st2" d="M61.8,50.2h-1.3v-12h-4.4V37h10.2v1.2h-4.5V50.2z"/>
	</g>
	<g>
		<path class="st2" d="M109.3,50.2H108v-12h-4.4V37h10.2v1.2h-4.4v12H109.3z"/>
	</g>
	<g>
		<path class="st2" d="M81.1,48.3L81.1,48.3l3.3-11.4H86l3.3,11.4l0,0l3.2-11.4h1.4L90,50.1h-1.6l-3.3-11.4l0,0l-3.3,11.4h-1.6
			l-3.9-13.2h1.4L81.1,48.3z"/>
	</g>
	<g>
		<path class="st2" d="M130.8,50.2h-1.3V37h8v1.2h-6.7v4.6h6.2V44h-6.2V50.2z"/>
	</g>
	<g>
		<path class="st2" d="M160.3,39c-0.3-0.4-0.7-0.7-1.1-1c-0.4-0.2-1-0.4-1.6-0.4c-0.3,0-0.7,0-1,0.1s-0.6,0.3-0.9,0.5
			s-0.5,0.5-0.7,0.8s-0.3,0.7-0.3,1.1s0.1,0.8,0.2,1c0.2,0.3,0.4,0.5,0.6,0.7s0.6,0.4,0.9,0.5s0.7,0.2,1.1,0.4
			c0.5,0.2,0.9,0.3,1.4,0.5s0.9,0.4,1.3,0.7s0.7,0.6,0.9,1.1c0.2,0.4,0.4,1,0.4,1.6s-0.1,1.2-0.4,1.7s-0.6,0.9-1,1.2
			s-0.9,0.5-1.4,0.7c-0.5,0.1-1,0.2-1.6,0.2c-0.4,0-0.8,0-1.2-0.1c-0.4-0.1-0.8-0.2-1.1-0.4c-0.4-0.2-0.7-0.4-1-0.6
			s-0.6-0.5-0.8-0.9l1.2-0.9c0.3,0.5,0.7,0.9,1.2,1.2s1.1,0.5,1.8,0.5c0.3,0,0.7-0.1,1-0.2s0.7-0.3,0.9-0.5c0.3-0.2,0.5-0.5,0.7-0.8
			s0.3-0.7,0.3-1.1c0-0.5-0.1-0.8-0.3-1.2s-0.4-0.6-0.7-0.8c-0.3-0.2-0.6-0.4-1-0.5s-0.8-0.3-1.2-0.4c-0.4-0.1-0.9-0.3-1.3-0.5
			s-0.8-0.4-1.1-0.7c-0.3-0.3-0.6-0.6-0.8-1c-0.2-0.4-0.3-0.9-0.3-1.5s0.1-1.2,0.4-1.6c0.3-0.5,0.6-0.8,1-1.1s0.9-0.5,1.4-0.7
			c0.5-0.1,1-0.2,1.5-0.2c0.9,0,1.7,0.2,2.3,0.5c0.6,0.3,1.1,0.7,1.4,1.1L160.3,39z"/>
	</g>
	<g>
		<path class="st2" d="M183.9,39c-0.3-0.4-0.7-0.7-1.1-1c-0.4-0.2-1-0.4-1.6-0.4c-0.3,0-0.7,0-1,0.1s-0.6,0.3-0.9,0.5
			s-0.5,0.5-0.7,0.8s-0.3,0.7-0.3,1.1s0.1,0.8,0.2,1c0.2,0.3,0.4,0.5,0.6,0.7s0.6,0.4,0.9,0.5s0.7,0.2,1.1,0.4
			c0.5,0.2,0.9,0.3,1.4,0.5s0.9,0.4,1.3,0.7s0.7,0.6,0.9,1.1c0.2,0.4,0.4,1,0.4,1.6s-0.1,1.2-0.4,1.7s-0.6,0.9-1,1.2
			s-0.9,0.5-1.4,0.7c-0.5,0.1-1,0.2-1.6,0.2c-0.4,0-0.8,0-1.2-0.1c-0.4-0.1-0.8-0.2-1.1-0.4c-0.4-0.2-0.7-0.4-1-0.6
			s-0.6-0.5-0.8-0.9l1.2-0.9c0.3,0.5,0.7,0.9,1.2,1.2s1.1,0.5,1.8,0.5c0.3,0,0.7-0.1,1-0.2s0.7-0.3,0.9-0.5c0.3-0.2,0.5-0.5,0.7-0.8
			s0.3-0.7,0.3-1.1c0-0.5-0.1-0.8-0.3-1.2s-0.4-0.6-0.7-0.8c-0.3-0.2-0.6-0.4-1-0.5s-0.8-0.3-1.2-0.4c-0.4-0.1-0.9-0.3-1.3-0.5
			s-0.8-0.4-1.1-0.7c-0.3-0.3-0.6-0.6-0.8-1c-0.2-0.4-0.3-0.9-0.3-1.5s0.1-1.2,0.4-1.6c0.3-0.5,0.6-0.8,1-1.1s0.9-0.5,1.4-0.7
			c0.5-0.1,1-0.2,1.5-0.2c0.9,0,1.7,0.2,2.3,0.5c0.6,0.3,1.1,0.7,1.4,1.1L183.9,39z"/>
	</g>
	<polygon class="st3" points="178.3,5.5 182.2,1.7 178.1,1.7 41.8,0.1 37.8,0 41.6,3.9 37.7,7.7 41.5,11.6 37.6,15.4 41.4,19.3 
		37.5,23.1 41.3,27 37.4,30.8 41.2,34.7 37.4,38.4 41.4,38.4 177.7,40 181.6,40.1 178,36.3 181.9,32.5 178,28.6 181.9,24.8 
		178.1,20.9 182,17.1 178.2,13.3 182.1,9.4 	"/>
	<g>
		<polygon class="st4" points="43.8,62.7 42.4,61.3 37.4,66.1 32.6,61.1 31.2,62.5 36,67.5 31,72.3 32.3,73.7 37.4,68.9 42.2,73.9 
			43.6,72.6 38.8,67.5 		"/>
		<polygon class="st4" points="68.6,63.2 67.3,61.8 62.2,66.6 57.4,61.6 56,63 60.8,68 55.8,72.8 57.2,74.2 62.2,69.4 67,74.4 
			68.4,73.1 63.6,68.1 		"/>
		<polygon class="st4" points="92.5,63.7 91.1,62.3 86.1,67.1 81.3,62.1 79.9,63.5 84.7,68.5 79.7,73.3 81,74.7 86.1,69.9 
			90.9,74.9 92.3,73.6 87.5,68.5 		"/>
		<polygon class="st4" points="116.9,63.3 115.6,61.8 110.6,66.7 105.8,61.6 104.3,63 109.2,68 104.1,72.8 105.5,74.2 110.5,69.4 
			115.3,74.4 116.7,73.1 111.9,68.1 		"/>
		<polygon class="st4" points="140.7,63.7 139.4,62.3 134.3,67.1 129.5,62.1 128.1,63.5 132.9,68.5 127.9,73.3 129.3,74.7 
			134.3,69.9 139.1,74.9 140.5,73.6 135.7,68.6 		"/>
		<polygon class="st4" points="164.6,63.3 163.2,61.9 158.2,66.7 153.4,61.7 152,63 156.8,68.1 151.8,72.9 153.1,74.3 158.2,69.5 
			163,74.5 164.4,73.1 159.6,68.1 		"/>
		<polygon class="st4" points="188.6,62.9 187.3,61.5 182.3,66.3 177.4,61.3 176,62.6 180.9,67.7 175.8,72.5 177.2,73.9 182.2,69.1 
			187,74.1 188.4,72.7 183.6,67.7 		"/>
	</g>
	<g>
		<polygon class="st4" points="43.8,87.3 42.4,85.9 37.4,90.7 32.6,85.7 31.2,87.1 36,92.1 31,96.9 32.3,98.3 37.4,93.5 42.2,98.5 
			43.6,97.2 38.8,92.2 		"/>
		<polygon class="st4" points="68.6,87.8 67.3,86.4 62.2,91.3 57.4,86.2 56,87.6 60.8,92.6 55.8,97.4 57.2,98.8 62.2,94 67,99 
			68.4,97.7 63.6,92.7 		"/>
		<polygon class="st4" points="92.5,88.3 91.1,86.9 86.1,91.7 81.3,86.7 79.9,88.1 84.7,93.1 79.7,97.9 81,99.3 86.1,94.5 
			90.9,99.5 92.3,98.2 87.5,93.2 		"/>
		<polygon class="st4" points="116.9,87.9 115.6,86.4 110.6,91.3 105.8,86.2 104.3,87.6 109.2,92.6 104.1,97.4 105.5,98.9 110.5,94 
			115.3,99.1 116.7,97.7 111.9,92.7 		"/>
		<polygon class="st4" points="140.7,88.4 139.4,86.9 134.3,91.8 129.5,86.7 128.1,88.1 132.9,93.1 127.9,97.9 129.3,99.3 
			134.3,94.5 139.1,99.5 140.5,98.2 135.7,93.2 		"/>
		<polygon class="st4" points="164.6,87.9 163.2,86.5 158.2,91.3 153.4,86.3 152,87.7 156.8,92.7 151.8,97.5 153.1,98.9 158.2,94.1 
			163,99.1 164.4,97.8 159.6,92.7 		"/>
		<polygon class="st4" points="188.6,87.5 187.3,86.1 182.3,90.9 177.4,85.9 176,87.3 180.9,92.3 175.8,97.1 177.2,98.5 182.2,93.7 
			187,98.7 188.4,97.4 183.6,92.3 		"/>
	</g>
	<g>
		<polygon class="st4" points="42.8,111.7 41.5,110.3 36.5,115.1 31.6,110.1 30.2,111.4 35,116.5 30,121.3 31.4,122.7 36.4,117.9 
			41.2,122.9 42.6,121.5 37.8,116.5 		"/>
		<polygon class="st4" points="67.7,112.2 66.3,110.8 61.3,115.6 56.5,110.6 55.1,111.9 59.9,117 54.9,121.8 56.2,123.2 61.2,118.4 
			66,123.4 67.5,122 62.6,117 		"/>
		<polygon class="st4" points="91.5,112.7 90.2,111.3 85.2,116.1 80.4,111.1 78.9,112.4 83.8,117.5 78.7,122.3 80.1,123.7 
			85.1,118.9 89.9,123.9 91.3,122.5 86.5,117.5 		"/>
		<polygon class="st4" points="116,112.2 114.6,110.8 109.6,115.6 104.8,110.6 103.4,112 108.2,117 103.2,121.8 104.5,123.2 
			109.6,118.4 114.4,123.4 115.8,122.1 111,117 		"/>
		<polygon class="st4" points="139.8,112.7 138.4,111.3 133.4,116.1 128.6,111.1 127.2,112.4 132,117.5 127,122.3 128.3,123.7 
			133.3,118.9 138.1,123.9 139.6,122.5 134.7,117.5 		"/>
		<polygon class="st4" points="163.6,112.3 162.3,110.9 157.3,115.7 152.4,110.7 151,112 155.8,117 150.8,121.9 152.2,123.3 
			157.2,118.4 162,123.5 163.4,122.1 158.6,117.1 		"/>
		<polygon class="st4" points="187.7,111.9 186.3,110.5 181.3,115.3 176.5,110.3 175.1,111.6 179.9,116.6 174.9,121.4 176.2,122.9 
			181.2,118 186.1,123.1 187.5,121.7 182.7,116.7 		"/>
	</g>
	<g>
		<polygon class="st4" points="42.8,135.6 41.5,134.1 36.5,139 31.6,133.9 30.2,135.3 35,140.3 30,145.1 31.4,146.5 36.4,141.7 
			41.2,146.7 42.6,145.4 37.8,140.4 		"/>
		<polygon class="st4" points="67.7,136.1 66.3,134.7 61.3,139.5 56.5,134.5 55.1,135.8 59.9,140.8 54.9,145.6 56.2,147.1 
			61.2,142.2 66,147.3 67.5,145.9 62.6,140.9 		"/>
		<polygon class="st4" points="91.5,136.6 90.2,135.2 85.2,140 80.4,135 78.9,136.3 83.8,141.3 78.7,146.1 80.1,147.6 85.1,142.7 
			89.9,147.8 91.3,146.4 86.5,141.4 		"/>
		<polygon class="st4" points="116,136.1 114.6,134.7 109.6,139.5 104.8,134.5 103.4,135.8 108.2,140.8 103.2,145.7 104.5,147.1 
			109.6,142.3 114.4,147.3 115.8,145.9 111,140.9 		"/>
		<polygon class="st4" points="139.8,136.6 138.4,135.2 133.4,140 128.6,135 127.2,136.3 132,141.3 127,146.2 128.3,147.6 
			133.3,142.7 138.1,147.8 139.6,146.4 134.7,141.4 		"/>
		<polygon class="st4" points="163.6,136.1 162.3,134.7 157.3,139.5 152.4,134.5 151,135.9 155.8,140.9 150.8,145.7 152.2,147.1 
			157.2,142.3 162,147.3 163.4,146 158.6,141 		"/>
		<polygon class="st4" points="187.7,135.7 186.3,134.3 181.3,139.1 176.5,134.1 175.1,135.5 179.9,140.5 174.9,145.3 176.2,146.7 
			181.2,141.9 186.1,146.9 187.5,145.6 182.7,140.6 		"/>
	</g>
</g>
</svg>
