<?xml version="1.0" encoding="utf-8"?>
<!-- Generator: Adobe Illustrator 19.2.0, SVG Export Plug-In . SVG Version: 6.00 Build 0)  -->
<svg version="1.1" id="Layer_1" xmlns="http://www.w3.org/2000/svg" xmlns:xlink="http://www.w3.org/1999/xlink" x="0px" y="0px"
	 width="576px" height="576px" viewBox="0 0 576 576" enable-background="new 0 0 576 576" xml:space="preserve">
<g>
	<g>
		
			<rect x="37.9" y="78.9" transform="matrix(0.9993 -3.739510e-02 3.739510e-02 0.9993 -10.461 10.9692)" fill="#FFFFFF" width="500.2" height="412.4"/>
	</g>
	<g>
		
			<rect x="133.1" y="228.4" transform="matrix(0.9993 -3.739510e-02 3.739510e-02 0.9993 -12.4582 5.936)" fill="#DA1C5C" stroke="#000000" stroke-width="3.1805" stroke-linecap="round" stroke-linejoin="round" stroke-miterlimit="10" width="38.7" height="215.2"/>
		
			<rect x="186.2" y="269.4" transform="matrix(0.9993 -3.739510e-02 3.739510e-02 0.9993 -13.1502 7.9341)" fill="#00AEEF" stroke="#000000" stroke-width="3.1805" stroke-linecap="round" stroke-linejoin="round" stroke-miterlimit="10" width="38.7" height="172.3"/>
		
			<rect x="238" y="287.3" transform="matrix(0.9993 -3.739510e-02 3.739510e-02 0.9993 -13.4126 9.8783)" fill="#DA1C5C" stroke="#000000" stroke-width="3.1805" stroke-linecap="round" stroke-linejoin="round" stroke-miterlimit="10" width="38.7" height="152.4"/>
		
			<rect x="396" y="228.4" transform="matrix(0.9993 -3.739510e-02 3.739510e-02 0.9993 -12.0897 15.7645)" fill="#00AEEF" stroke="#000000" stroke-width="3.1805" stroke-linecap="round" stroke-linejoin="round" stroke-miterlimit="10" width="38.7" height="205.4"/>
		
			<rect x="446.8" y="163.6" transform="matrix(0.9993 -3.739510e-02 3.739510e-02 0.9993 -10.8079 17.6385)" fill="#DA1C5C" stroke="#000000" stroke-width="3.1805" stroke-linecap="round" stroke-linejoin="round" stroke-miterlimit="10" width="38.7" height="268.2"/>
		
			<rect x="291.7" y="316.1" transform="matrix(0.9993 -3.739510e-02 3.739510e-02 0.9993 -13.8758 11.8967)" fill="#00AEEF" stroke="#000000" stroke-width="3.1805" stroke-linecap="round" stroke-linejoin="round" stroke-miterlimit="10" width="38.7" height="121.6"/>
		
			<rect x="345.1" y="323.5" transform="matrix(0.9993 -3.739510e-02 3.739510e-02 0.9993 -13.9408 13.8927)" fill="#DA1C5C" stroke="#000000" stroke-width="3.1805" stroke-linecap="round" stroke-linejoin="round" stroke-miterlimit="10" width="38.7" height="112.2"/>
		<g>
			
				<line fill="#2D2A70" stroke="#000000" stroke-width="3.1805" stroke-linecap="round" stroke-linejoin="round" stroke-miterlimit="10" x1="105" y1="143.6" x2="113.8" y2="380"/>
			
				<line fill="none" stroke="#000000" stroke-width="3.1805" stroke-linecap="round" stroke-linejoin="round" stroke-miterlimit="10" x1="105" y1="143.6" x2="97.3" y2="148.8"/>
			
				<line fill="none" stroke="#000000" stroke-width="3.1805" stroke-linecap="round" stroke-linejoin="round" stroke-miterlimit="10" x1="105" y1="143.6" x2="113.1" y2="148.2"/>
		</g>
		<g>
			
				<line fill="#2D2A70" stroke="#000000" stroke-width="3.1805" stroke-linecap="round" stroke-linejoin="round" stroke-miterlimit="10" x1="517.8" y1="430" x2="116.3" y2="445"/>
			
				<line fill="none" stroke="#000000" stroke-width="3.1805" stroke-linecap="round" stroke-linejoin="round" stroke-miterlimit="10" x1="517.8" y1="430" x2="509.8" y2="438.2"/>
			
				<line fill="none" stroke="#000000" stroke-width="3.1805" stroke-linecap="round" stroke-linejoin="round" stroke-miterlimit="10" x1="517.8" y1="430" x2="509.2" y2="422.4"/>
		</g>
		
			<line fill="none" stroke="#000000" stroke-width="3.1805" stroke-linecap="round" stroke-linejoin="round" stroke-miterlimit="10" x1="108.1" y1="391.8" x2="119.5" y2="391.3"/>
		
			<line fill="none" stroke="#000000" stroke-width="3.1805" stroke-linecap="round" stroke-linejoin="round" stroke-miterlimit="10" x1="105.3" y1="339.4" x2="116.7" y2="338.9"/>
		
			<line fill="none" stroke="#000000" stroke-width="3.1805" stroke-linecap="round" stroke-linejoin="round" stroke-miterlimit="10" x1="104.7" y1="286.9" x2="116" y2="286.4"/>
		
			<line fill="none" stroke="#000000" stroke-width="3.1805" stroke-linecap="round" stroke-linejoin="round" stroke-miterlimit="10" x1="113.8" y1="380" x2="114.4" y2="395.1"/>
		
			<line fill="none" stroke="#000000" stroke-width="3.1805" stroke-linecap="round" stroke-linejoin="round" stroke-miterlimit="10" x1="114.4" y1="395.1" x2="106.9" y2="404.3"/>
		
			<line fill="none" stroke="#000000" stroke-width="3.1805" stroke-linecap="round" stroke-linejoin="round" stroke-miterlimit="10" x1="106.9" y1="404.3" x2="120.3" y2="412.3"/>
		
			<line fill="none" stroke="#000000" stroke-width="3.1805" stroke-linecap="round" stroke-linejoin="round" stroke-miterlimit="10" x1="120.3" y1="412.3" x2="109.3" y2="422.6"/>
		
			<line fill="none" stroke="#000000" stroke-width="3.1805" stroke-linecap="round" stroke-linejoin="round" stroke-miterlimit="10" x1="109.3" y1="422.6" x2="123.6" y2="430"/>
		
			<line fill="none" stroke="#000000" stroke-width="3.1805" stroke-linecap="round" stroke-linejoin="round" stroke-miterlimit="10" x1="123.6" y1="430" x2="114.7" y2="437.2"/>
		
			<line fill="none" stroke="#000000" stroke-width="3.1805" stroke-linecap="round" stroke-linejoin="round" stroke-miterlimit="10" x1="114.7" y1="437.2" x2="101" y2="441.7"/>
		
			<line fill="none" stroke="#000000" stroke-width="3.1805" stroke-linecap="round" stroke-linejoin="round" stroke-miterlimit="10" x1="101" y1="441.7" x2="116.3" y2="445"/>
		
			<line fill="none" stroke="#000000" stroke-width="3.1805" stroke-linecap="round" stroke-linejoin="round" stroke-miterlimit="10" x1="102.7" y1="234.4" x2="114.1" y2="234"/>
		
			<line fill="none" stroke="#000000" stroke-width="3.1805" stroke-linecap="round" stroke-linejoin="round" stroke-miterlimit="10" x1="100.3" y1="182" x2="111.7" y2="181.6"/>
		
			<line fill="none" stroke="#000000" stroke-width="3.9441" stroke-linecap="round" stroke-linejoin="round" stroke-miterlimit="10" x1="104.7" y1="286.9" x2="116" y2="286.4"/>
	</g>
	<g>
		<path d="M145.7,461.2l-7.1,0.3l0-1.2l4.4-4.7c0.2-0.2,0.3-0.4,0.5-0.6c0.2-0.2,0.3-0.4,0.4-0.6c0.1-0.2,0.2-0.4,0.3-0.7
			c0.1-0.2,0.1-0.5,0.1-0.7c0-0.3-0.1-0.6-0.2-0.9c-0.1-0.3-0.3-0.5-0.5-0.6c-0.2-0.2-0.4-0.3-0.7-0.4c-0.3-0.1-0.5-0.1-0.8-0.1
			c-0.6,0-1.1,0.2-1.5,0.6c-0.4,0.4-0.6,0.9-0.7,1.4l-1.1-0.2c0.1-0.4,0.2-0.8,0.4-1.1c0.2-0.3,0.4-0.6,0.7-0.9
			c0.3-0.3,0.6-0.5,1-0.6c0.4-0.1,0.8-0.2,1.2-0.2c0.4,0,0.9,0,1.3,0.1c0.4,0.1,0.8,0.3,1.1,0.5c0.3,0.2,0.6,0.6,0.8,0.9
			c0.2,0.4,0.3,0.8,0.3,1.3c0,0.4,0,0.7-0.1,1c-0.1,0.3-0.2,0.6-0.4,0.9s-0.3,0.5-0.5,0.8c-0.2,0.3-0.4,0.5-0.7,0.8l-3.8,4.1
			l5.9-0.2L145.7,461.2z"/>
		<path d="M151,449.6c0.7,0,1.3,0.1,1.7,0.4c0.5,0.3,0.9,0.7,1.2,1.3c0.3,0.5,0.5,1.2,0.7,1.8c0.1,0.7,0.2,1.4,0.3,2.1
			s0,1.4-0.1,2.1c-0.1,0.7-0.3,1.3-0.5,1.9c-0.3,0.6-0.6,1-1.1,1.4c-0.4,0.4-1,0.5-1.7,0.6c-0.7,0-1.3-0.1-1.8-0.4
			c-0.5-0.3-0.9-0.7-1.2-1.3c-0.3-0.5-0.5-1.1-0.7-1.8c-0.1-0.7-0.2-1.4-0.3-2.1s0-1.4,0.1-2.1c0.1-0.7,0.3-1.3,0.5-1.9
			c0.3-0.6,0.6-1,1.1-1.4C149.7,449.9,150.3,449.7,151,449.6z M151,450.6c-0.5,0-0.9,0.2-1.2,0.5c-0.3,0.3-0.6,0.7-0.7,1.2
			s-0.3,1-0.3,1.6c-0.1,0.6-0.1,1.1,0,1.7c0,0.6,0.1,1.1,0.2,1.7c0.1,0.6,0.2,1.1,0.5,1.5c0.2,0.5,0.5,0.8,0.8,1.1
			c0.3,0.3,0.7,0.4,1.2,0.4c0.5,0,0.9-0.2,1.2-0.5c0.3-0.3,0.6-0.7,0.7-1.2c0.2-0.5,0.3-1,0.3-1.6c0.1-0.6,0.1-1.1,0.1-1.7
			c0-0.6-0.1-1.1-0.2-1.7c-0.1-0.6-0.3-1.1-0.5-1.6c-0.2-0.5-0.5-0.8-0.8-1.1C151.9,450.7,151.5,450.6,151,450.6z"/>
		<path d="M160.1,449.3c0.7,0,1.3,0.1,1.7,0.4c0.5,0.3,0.9,0.7,1.2,1.3c0.3,0.5,0.5,1.2,0.7,1.8c0.1,0.7,0.2,1.4,0.3,2.1
			s0,1.4-0.1,2.1c-0.1,0.7-0.3,1.3-0.5,1.9c-0.3,0.6-0.6,1-1.1,1.4c-0.4,0.4-1,0.5-1.7,0.6c-0.7,0-1.3-0.1-1.8-0.4
			c-0.5-0.3-0.9-0.7-1.2-1.3c-0.3-0.5-0.5-1.1-0.7-1.8c-0.1-0.7-0.2-1.4-0.3-2.1s0-1.4,0.1-2.1c0.1-0.7,0.3-1.3,0.5-1.9
			c0.3-0.6,0.6-1,1.1-1.4C158.8,449.5,159.4,449.3,160.1,449.3z M160.1,450.2c-0.5,0-0.9,0.2-1.2,0.5c-0.3,0.3-0.6,0.7-0.7,1.2
			c-0.2,0.5-0.3,1-0.3,1.6c-0.1,0.6-0.1,1.1,0,1.7s0.1,1.1,0.2,1.7c0.1,0.6,0.2,1.1,0.5,1.5c0.2,0.5,0.5,0.8,0.8,1.1
			c0.3,0.3,0.7,0.4,1.2,0.4c0.5,0,0.9-0.2,1.2-0.5c0.3-0.3,0.6-0.7,0.7-1.2c0.2-0.5,0.3-1,0.3-1.6c0.1-0.6,0.1-1.1,0.1-1.7
			s-0.1-1.1-0.2-1.7c-0.1-0.6-0.3-1.1-0.5-1.6c-0.2-0.5-0.5-0.8-0.8-1.1S160.6,450.2,160.1,450.2z"/>
		<path d="M168.1,454.1l0.5,0c0.4,0,0.7-0.1,1-0.1s0.6-0.2,0.8-0.4s0.4-0.4,0.5-0.7c0.1-0.3,0.2-0.6,0.2-0.9c0-0.3-0.1-0.6-0.2-0.8
			c-0.1-0.2-0.3-0.5-0.5-0.6c-0.2-0.2-0.4-0.3-0.7-0.4c-0.3-0.1-0.5-0.1-0.8-0.1c-0.5,0-0.9,0.1-1.2,0.4c-0.4,0.2-0.6,0.6-0.8,1
			l-1-0.5c0.3-0.6,0.7-1.1,1.3-1.4c0.5-0.3,1.1-0.5,1.8-0.5c0.4,0,0.9,0,1.2,0.1c0.4,0.1,0.7,0.3,1.1,0.5c0.3,0.2,0.6,0.5,0.7,0.9
			c0.2,0.4,0.3,0.8,0.3,1.3c0,0.7-0.1,1.2-0.5,1.7c-0.3,0.5-0.8,0.8-1.3,0.9l0,0c0.6,0.1,1.2,0.4,1.6,0.9c0.4,0.5,0.7,1.1,0.7,1.8
			c0,0.5-0.1,1-0.2,1.4c-0.2,0.4-0.4,0.8-0.7,1.1c-0.3,0.3-0.7,0.5-1.1,0.7c-0.4,0.2-0.9,0.3-1.4,0.3c-0.8,0-1.5-0.1-2.1-0.5
			c-0.6-0.4-1.1-0.9-1.4-1.6l1-0.4c0.2,0.5,0.5,0.9,1,1.2c0.4,0.3,1,0.4,1.5,0.4c0.3,0,0.6-0.1,0.9-0.2c0.3-0.1,0.5-0.3,0.8-0.5
			c0.2-0.2,0.4-0.5,0.5-0.8c0.1-0.3,0.2-0.6,0.2-1c0-0.4-0.1-0.8-0.3-1c-0.2-0.3-0.4-0.5-0.7-0.7c-0.3-0.2-0.6-0.3-0.9-0.3
			c-0.3-0.1-0.7-0.1-1.1-0.1l-0.5,0L168.1,454.1z"/>
	</g>
	<g>
		<path d="M199,459.2l-7.1,0.3l0-1.2l4.4-4.7c0.2-0.2,0.3-0.4,0.5-0.6c0.2-0.2,0.3-0.4,0.4-0.6c0.1-0.2,0.2-0.4,0.3-0.7
			c0.1-0.2,0.1-0.5,0.1-0.7c0-0.3-0.1-0.6-0.2-0.9c-0.1-0.3-0.3-0.5-0.5-0.6s-0.4-0.3-0.7-0.4c-0.3-0.1-0.5-0.1-0.8-0.1
			c-0.6,0-1.1,0.2-1.5,0.6c-0.4,0.4-0.6,0.9-0.7,1.4l-1.1-0.2c0.1-0.4,0.2-0.8,0.4-1.1c0.2-0.3,0.4-0.6,0.7-0.9
			c0.3-0.3,0.6-0.5,1-0.6c0.4-0.1,0.8-0.2,1.2-0.2c0.4,0,0.9,0,1.3,0.1s0.8,0.3,1.1,0.5c0.3,0.2,0.6,0.6,0.8,0.9s0.3,0.8,0.3,1.3
			c0,0.4,0,0.7-0.1,1c-0.1,0.3-0.2,0.6-0.4,0.9c-0.2,0.3-0.3,0.5-0.5,0.8c-0.2,0.3-0.4,0.5-0.7,0.8l-3.8,4.1l5.9-0.2L199,459.2z"/>
		<path d="M204.3,447.6c0.7,0,1.3,0.1,1.7,0.4c0.5,0.3,0.9,0.7,1.2,1.3c0.3,0.5,0.5,1.2,0.7,1.8c0.1,0.7,0.2,1.4,0.3,2.1
			s0,1.4-0.1,2.1c-0.1,0.7-0.3,1.3-0.5,1.9c-0.3,0.6-0.6,1-1.1,1.4c-0.5,0.4-1,0.5-1.7,0.6c-0.7,0-1.3-0.1-1.8-0.4
			c-0.5-0.3-0.9-0.7-1.2-1.3c-0.3-0.5-0.5-1.1-0.7-1.8c-0.1-0.7-0.2-1.4-0.3-2.1s0-1.4,0.1-2.1c0.1-0.7,0.3-1.3,0.5-1.9
			c0.3-0.6,0.6-1,1.1-1.4C203,447.9,203.6,447.7,204.3,447.6z M204.3,448.6c-0.5,0-0.9,0.2-1.2,0.5c-0.3,0.3-0.6,0.7-0.7,1.2
			c-0.2,0.5-0.3,1-0.3,1.6c-0.1,0.6-0.1,1.1,0,1.7c0,0.6,0.1,1.1,0.2,1.7s0.2,1.1,0.5,1.5c0.2,0.5,0.5,0.8,0.8,1.1
			c0.3,0.3,0.7,0.4,1.2,0.4c0.5,0,0.9-0.2,1.2-0.5c0.3-0.3,0.6-0.7,0.7-1.2c0.2-0.5,0.3-1,0.3-1.6c0.1-0.6,0.1-1.1,0.1-1.7
			c0-0.6-0.1-1.1-0.2-1.7c-0.1-0.6-0.3-1.1-0.5-1.6c-0.2-0.5-0.5-0.8-0.8-1.1C205.2,448.7,204.8,448.6,204.3,448.6z"/>
		<path d="M213.4,447.3c0.7,0,1.3,0.1,1.7,0.4c0.5,0.3,0.9,0.7,1.2,1.3s0.5,1.2,0.7,1.8c0.1,0.7,0.2,1.4,0.3,2.1s0,1.4-0.1,2.1
			c-0.1,0.7-0.3,1.3-0.5,1.9c-0.3,0.6-0.6,1-1.1,1.4c-0.5,0.4-1,0.5-1.7,0.6c-0.7,0-1.3-0.1-1.8-0.4c-0.5-0.3-0.9-0.7-1.2-1.3
			c-0.3-0.5-0.5-1.1-0.7-1.8c-0.1-0.7-0.2-1.4-0.3-2.1s0-1.4,0.1-2.1c0.1-0.7,0.3-1.3,0.5-1.9c0.3-0.6,0.6-1,1.1-1.4
			C212.1,447.5,212.7,447.3,213.4,447.3z M213.4,448.3c-0.5,0-0.9,0.2-1.2,0.5s-0.6,0.7-0.7,1.2c-0.2,0.5-0.3,1-0.3,1.6
			c-0.1,0.6-0.1,1.1,0,1.7s0.1,1.1,0.2,1.7c0.1,0.6,0.2,1.1,0.5,1.5c0.2,0.5,0.5,0.8,0.8,1.1c0.3,0.3,0.7,0.4,1.2,0.4
			c0.5,0,0.9-0.2,1.2-0.5c0.3-0.3,0.6-0.7,0.7-1.2c0.2-0.5,0.3-1,0.3-1.6c0.1-0.6,0.1-1.1,0.1-1.7s-0.1-1.1-0.2-1.7
			c-0.1-0.6-0.3-1.1-0.5-1.6c-0.2-0.5-0.5-0.8-0.8-1.1C214.3,448.4,213.9,448.2,213.4,448.3z"/>
		<path d="M225,454.5l1.6-0.1l0,1l-1.6,0.1l0.1,2.7l-1.1,0l-0.1-2.7l-5.1,0.2l0-1.1l4.4-7.5l1.5-0.1L225,454.5z M223.7,448.5
			L223.7,448.5l-3.7,6.3l3.9-0.1L223.7,448.5z"/>
	</g>
	<g>
		<path d="M250.9,457.3l-7.1,0.3l0-1.2l4.4-4.7c0.2-0.2,0.3-0.4,0.5-0.6c0.2-0.2,0.3-0.4,0.4-0.6c0.1-0.2,0.2-0.4,0.3-0.7
			c0.1-0.2,0.1-0.5,0.1-0.7c0-0.3-0.1-0.6-0.2-0.9c-0.1-0.3-0.3-0.5-0.5-0.6c-0.2-0.2-0.4-0.3-0.7-0.4c-0.3-0.1-0.5-0.1-0.8-0.1
			c-0.6,0-1.1,0.2-1.5,0.6c-0.4,0.4-0.6,0.9-0.7,1.4l-1.1-0.2c0.1-0.4,0.2-0.8,0.4-1.1c0.2-0.3,0.4-0.6,0.7-0.9
			c0.3-0.3,0.6-0.5,1-0.6c0.4-0.1,0.8-0.2,1.2-0.2c0.4,0,0.9,0,1.3,0.1c0.4,0.1,0.8,0.3,1.1,0.5c0.3,0.2,0.6,0.6,0.8,0.9
			c0.2,0.4,0.3,0.8,0.3,1.3c0,0.4,0,0.7-0.1,1c-0.1,0.3-0.2,0.6-0.4,0.9c-0.2,0.3-0.3,0.5-0.5,0.8c-0.2,0.3-0.4,0.5-0.7,0.8
			l-3.8,4.1l5.9-0.2L250.9,457.3z"/>
		<path d="M256.2,445.7c0.7,0,1.3,0.1,1.7,0.4c0.5,0.3,0.9,0.7,1.2,1.3c0.3,0.5,0.5,1.2,0.7,1.8c0.1,0.7,0.2,1.4,0.3,2.1
			s0,1.4-0.1,2.1c-0.1,0.7-0.3,1.3-0.5,1.9c-0.3,0.6-0.6,1-1.1,1.4c-0.4,0.4-1,0.5-1.7,0.6c-0.7,0-1.3-0.1-1.8-0.4
			c-0.5-0.3-0.9-0.7-1.2-1.3c-0.3-0.5-0.5-1.1-0.7-1.8c-0.1-0.7-0.2-1.4-0.3-2.1s0-1.4,0.1-2.1c0.1-0.7,0.3-1.3,0.5-1.9
			c0.3-0.6,0.6-1,1.1-1.4C254.9,445.9,255.5,445.7,256.2,445.7z M256.2,446.6c-0.5,0-0.9,0.2-1.2,0.5c-0.3,0.3-0.6,0.7-0.7,1.2
			c-0.2,0.5-0.3,1-0.3,1.6c-0.1,0.6-0.1,1.1,0,1.7s0.1,1.1,0.2,1.7c0.1,0.6,0.2,1.1,0.5,1.5c0.2,0.5,0.5,0.8,0.8,1.1
			c0.3,0.3,0.7,0.4,1.2,0.4c0.5,0,0.9-0.2,1.2-0.5c0.3-0.3,0.6-0.7,0.7-1.2c0.2-0.5,0.3-1,0.3-1.6c0.1-0.6,0.1-1.1,0.1-1.7
			s-0.1-1.1-0.2-1.7c-0.1-0.6-0.3-1.1-0.5-1.6c-0.2-0.5-0.5-0.8-0.8-1.1S256.7,446.6,256.2,446.6z"/>
		<path d="M265.3,445.4c0.7,0,1.3,0.1,1.7,0.4c0.5,0.3,0.9,0.7,1.2,1.3c0.3,0.5,0.5,1.2,0.7,1.8c0.1,0.7,0.2,1.4,0.3,2.1
			s0,1.4-0.1,2.1c-0.1,0.7-0.3,1.3-0.5,1.9c-0.3,0.6-0.6,1-1.1,1.4c-0.4,0.3-1,0.5-1.7,0.6c-0.7,0-1.3-0.1-1.8-0.4
			c-0.5-0.3-0.9-0.7-1.2-1.3c-0.3-0.5-0.5-1.1-0.7-1.8c-0.1-0.7-0.2-1.4-0.3-2.1s0-1.4,0.1-2.1c0.1-0.7,0.3-1.3,0.5-1.9
			c0.3-0.6,0.6-1,1.1-1.4C264,445.6,264.6,445.4,265.3,445.4z M265.3,446.3c-0.5,0-0.9,0.2-1.2,0.5s-0.6,0.7-0.7,1.2
			c-0.2,0.5-0.3,1-0.3,1.6c-0.1,0.6-0.1,1.1,0,1.7c0,0.6,0.1,1.1,0.2,1.7c0.1,0.6,0.2,1.1,0.5,1.5c0.2,0.5,0.5,0.8,0.8,1.1
			c0.3,0.3,0.7,0.4,1.2,0.4c0.5,0,0.9-0.2,1.2-0.5c0.3-0.3,0.6-0.7,0.7-1.2c0.2-0.5,0.3-1,0.3-1.6c0.1-0.6,0.1-1.1,0.1-1.7
			c0-0.6-0.1-1.1-0.2-1.7c-0.1-0.6-0.3-1.1-0.5-1.6c-0.2-0.5-0.5-0.8-0.8-1.1C266.2,446.4,265.8,446.3,265.3,446.3z"/>
		<path d="M277.3,446.2l-4.6,0.2l0,3.4c0.2-0.1,0.5-0.2,0.7-0.2c0.3-0.1,0.5-0.1,0.8-0.1c0.5,0,1,0,1.4,0.2c0.4,0.1,0.8,0.4,1.2,0.7
			c0.3,0.3,0.6,0.7,0.8,1.1c0.2,0.4,0.3,0.9,0.3,1.4c0,0.5,0,1-0.2,1.5c-0.2,0.5-0.4,0.9-0.7,1.2c-0.3,0.3-0.7,0.6-1.1,0.8
			c-0.4,0.2-0.9,0.3-1.5,0.3c-0.8,0-1.5-0.1-2.1-0.5c-0.6-0.3-1-0.8-1.3-1.4l1-0.5c0.2,0.5,0.5,0.8,0.9,1.1s0.9,0.4,1.4,0.4
			c0.4,0,0.7-0.1,1-0.2c0.3-0.1,0.6-0.3,0.8-0.6c0.2-0.2,0.4-0.5,0.5-0.9c0.1-0.3,0.2-0.7,0.2-1.1c0-0.4-0.1-0.8-0.3-1.1
			c-0.2-0.3-0.4-0.6-0.6-0.8c-0.3-0.2-0.5-0.4-0.9-0.5c-0.3-0.1-0.7-0.2-1.1-0.1c-0.4,0-0.8,0.1-1.2,0.2s-0.8,0.3-1.1,0.5l-0.1-5.7
			l5.6-0.2L277.3,446.2z"/>
	</g>
	<g>
		<path d="M305,455.2l-7.1,0.3l0-1.2l4.4-4.7c0.2-0.2,0.3-0.4,0.5-0.6c0.2-0.2,0.3-0.4,0.4-0.6c0.1-0.2,0.2-0.4,0.3-0.7
			s0.1-0.5,0.1-0.7c0-0.3-0.1-0.6-0.2-0.9c-0.1-0.3-0.3-0.5-0.5-0.6c-0.2-0.2-0.4-0.3-0.7-0.4c-0.3-0.1-0.5-0.1-0.8-0.1
			c-0.6,0-1.1,0.2-1.5,0.6c-0.4,0.4-0.6,0.9-0.7,1.4l-1.1-0.2c0.1-0.4,0.2-0.8,0.4-1.1c0.2-0.3,0.4-0.6,0.7-0.9
			c0.3-0.2,0.6-0.5,1-0.6s0.8-0.2,1.2-0.2c0.4,0,0.9,0,1.3,0.1c0.4,0.1,0.8,0.3,1.1,0.5c0.3,0.2,0.6,0.6,0.8,0.9
			c0.2,0.4,0.3,0.8,0.3,1.3c0,0.4,0,0.7-0.1,1c-0.1,0.3-0.2,0.6-0.4,0.9c-0.2,0.3-0.3,0.5-0.5,0.8c-0.2,0.3-0.4,0.5-0.7,0.8
			l-3.8,4.1l5.9-0.2L305,455.2z"/>
		<path d="M310.3,443.7c0.7,0,1.3,0.1,1.7,0.4c0.5,0.3,0.9,0.8,1.2,1.3c0.3,0.5,0.5,1.2,0.7,1.8c0.1,0.7,0.2,1.4,0.3,2.1
			c0,0.7,0,1.4-0.1,2.1c-0.1,0.7-0.3,1.3-0.5,1.9c-0.3,0.6-0.6,1-1.1,1.4c-0.5,0.3-1,0.5-1.7,0.6c-0.7,0-1.3-0.1-1.8-0.4
			c-0.5-0.3-0.9-0.7-1.2-1.3c-0.3-0.5-0.5-1.1-0.7-1.8c-0.1-0.7-0.2-1.4-0.2-2.1c0-0.7,0-1.4,0.1-2.1c0.1-0.7,0.3-1.3,0.5-1.9
			s0.6-1,1.1-1.4C309.1,443.9,309.6,443.7,310.3,443.7z M310.4,444.6c-0.5,0-0.9,0.2-1.2,0.5c-0.3,0.3-0.6,0.7-0.7,1.2
			c-0.2,0.5-0.3,1-0.3,1.6c-0.1,0.6-0.1,1.1,0,1.7c0,0.6,0.1,1.1,0.2,1.7c0.1,0.6,0.2,1.1,0.4,1.5c0.2,0.5,0.5,0.8,0.8,1.1
			c0.3,0.3,0.7,0.4,1.2,0.4c0.5,0,0.9-0.2,1.2-0.5c0.3-0.3,0.6-0.7,0.7-1.2c0.2-0.5,0.3-1,0.3-1.6c0.1-0.6,0.1-1.1,0.1-1.7
			c0-0.6-0.1-1.1-0.2-1.7c-0.1-0.6-0.3-1.1-0.5-1.6c-0.2-0.5-0.5-0.8-0.8-1.1C311.3,444.7,310.9,444.6,310.4,444.6z"/>
		<path d="M319.4,443.3c0.7,0,1.3,0.1,1.7,0.4c0.5,0.3,0.9,0.7,1.2,1.3c0.3,0.5,0.5,1.2,0.7,1.8c0.1,0.7,0.2,1.4,0.3,2.1
			c0,0.7,0,1.4-0.1,2.1c-0.1,0.7-0.3,1.3-0.5,1.9s-0.6,1-1.1,1.4c-0.5,0.4-1,0.5-1.7,0.6c-0.7,0-1.3-0.1-1.8-0.4
			c-0.5-0.3-0.9-0.7-1.2-1.3c-0.3-0.5-0.5-1.1-0.7-1.8c-0.1-0.7-0.2-1.4-0.3-2.1c0-0.7,0-1.4,0.1-2.1c0.1-0.7,0.3-1.3,0.5-1.9
			c0.3-0.6,0.6-1,1.1-1.4C318.1,443.5,318.7,443.4,319.4,443.3z M319.4,444.3c-0.5,0-0.9,0.2-1.2,0.5c-0.3,0.3-0.6,0.7-0.7,1.2
			c-0.2,0.5-0.3,1-0.3,1.6c-0.1,0.6-0.1,1.1,0,1.7s0.1,1.1,0.2,1.7c0.1,0.6,0.2,1.1,0.5,1.5c0.2,0.5,0.5,0.8,0.8,1.1
			c0.3,0.3,0.7,0.4,1.2,0.4c0.5,0,0.9-0.2,1.2-0.5c0.3-0.3,0.6-0.7,0.7-1.2c0.2-0.5,0.3-1,0.3-1.6c0.1-0.6,0.1-1.1,0.1-1.7
			s-0.1-1.1-0.2-1.7c-0.1-0.6-0.3-1.1-0.5-1.6c-0.2-0.5-0.5-0.8-0.8-1.1C320.3,444.4,319.9,444.3,319.4,444.3z"/>
		<path d="M327.3,448.2L327.3,448.2c0.2-0.1,0.4-0.2,0.7-0.3s0.6-0.1,0.9-0.1c0.5,0,0.9,0,1.3,0.2c0.4,0.2,0.8,0.4,1.1,0.7
			c0.3,0.3,0.6,0.6,0.8,1.1c0.2,0.4,0.3,0.9,0.3,1.4c0,0.5-0.1,1-0.2,1.4c-0.2,0.4-0.4,0.8-0.7,1.1c-0.3,0.3-0.7,0.6-1.1,0.8
			c-0.4,0.2-0.9,0.3-1.4,0.3c-0.5,0-1,0-1.4-0.2c-0.4-0.2-0.8-0.4-1.2-0.7c-0.3-0.3-0.6-0.6-0.8-1.1c-0.2-0.4-0.3-0.9-0.3-1.4
			c0-0.6,0.1-1.1,0.2-1.6c0.2-0.5,0.4-1,0.7-1.4l2.8-5l1.3,0L327.3,448.2z M326.3,451.2c0,0.4,0.1,0.7,0.2,1
			c0.1,0.3,0.3,0.6,0.5,0.8c0.2,0.2,0.5,0.4,0.8,0.5c0.3,0.1,0.6,0.2,1,0.2s0.7-0.1,1-0.2c0.3-0.1,0.6-0.3,0.8-0.6
			c0.2-0.2,0.4-0.5,0.5-0.8c0.1-0.3,0.2-0.6,0.1-1c0-0.4-0.1-0.7-0.2-1c-0.1-0.3-0.3-0.6-0.5-0.8c-0.2-0.2-0.5-0.4-0.8-0.5
			c-0.3-0.1-0.7-0.2-1-0.1c-0.4,0-0.7,0.1-1,0.2c-0.3,0.1-0.6,0.3-0.8,0.6s-0.4,0.5-0.5,0.8C326.3,450.5,326.3,450.9,326.3,451.2z"
			/>
	</g>
	<g>
		<path d="M357.4,453.3l-7.1,0.3l0-1.2l4.4-4.7c0.2-0.2,0.3-0.4,0.5-0.6c0.2-0.2,0.3-0.4,0.4-0.6c0.1-0.2,0.2-0.4,0.3-0.7
			c0.1-0.2,0.1-0.5,0.1-0.7c0-0.3-0.1-0.6-0.2-0.9c-0.1-0.3-0.3-0.5-0.5-0.6c-0.2-0.2-0.4-0.3-0.7-0.4s-0.5-0.1-0.8-0.1
			c-0.6,0-1.1,0.2-1.5,0.6c-0.4,0.4-0.6,0.9-0.7,1.4l-1.1-0.2c0.1-0.4,0.2-0.8,0.4-1.1c0.2-0.3,0.4-0.6,0.7-0.9
			c0.3-0.3,0.6-0.5,1-0.6c0.4-0.1,0.8-0.2,1.2-0.2c0.4,0,0.9,0,1.3,0.1c0.4,0.1,0.8,0.3,1.1,0.5c0.3,0.2,0.6,0.6,0.8,0.9
			c0.2,0.4,0.3,0.8,0.3,1.3c0,0.4,0,0.7-0.1,1c-0.1,0.3-0.2,0.6-0.4,0.9s-0.3,0.5-0.5,0.8c-0.2,0.3-0.4,0.5-0.7,0.8l-3.8,4.1
			l5.9-0.2L357.4,453.3z"/>
		<path d="M362.7,441.7c0.7,0,1.3,0.1,1.7,0.4c0.5,0.3,0.9,0.7,1.2,1.3c0.3,0.5,0.5,1.2,0.7,1.8c0.1,0.7,0.2,1.4,0.3,2.1
			c0,0.7,0,1.4-0.1,2.1c-0.1,0.7-0.3,1.3-0.5,1.9c-0.3,0.6-0.6,1-1.1,1.4c-0.5,0.4-1,0.5-1.7,0.6c-0.7,0-1.3-0.1-1.8-0.4
			c-0.5-0.3-0.9-0.7-1.2-1.3c-0.3-0.5-0.5-1.1-0.7-1.8c-0.1-0.7-0.2-1.4-0.3-2.1c0-0.7,0-1.4,0.1-2.1c0.1-0.7,0.3-1.3,0.5-1.9
			c0.3-0.6,0.6-1,1.1-1.4C361.4,441.9,362,441.7,362.7,441.7z M362.7,442.7c-0.5,0-0.9,0.2-1.2,0.5s-0.6,0.7-0.7,1.2
			c-0.2,0.5-0.3,1-0.3,1.6c-0.1,0.6-0.1,1.1,0,1.7s0.1,1.1,0.2,1.7c0.1,0.6,0.2,1.1,0.5,1.5c0.2,0.5,0.5,0.8,0.8,1.1
			c0.3,0.3,0.7,0.4,1.2,0.4c0.5,0,0.9-0.2,1.2-0.5c0.3-0.3,0.6-0.7,0.7-1.2c0.2-0.5,0.3-1,0.3-1.6c0.1-0.6,0.1-1.1,0.1-1.7
			s-0.1-1.1-0.2-1.7c-0.1-0.6-0.3-1.1-0.5-1.6c-0.2-0.5-0.5-0.8-0.8-1.1C363.6,442.8,363.2,442.6,362.7,442.7z"/>
		<path d="M371.7,441.4c0.7,0,1.3,0.1,1.7,0.4c0.5,0.3,0.9,0.7,1.2,1.3c0.3,0.5,0.5,1.2,0.7,1.8c0.1,0.7,0.2,1.4,0.3,2.1
			c0,0.7,0,1.4-0.1,2.1c-0.1,0.7-0.3,1.3-0.5,1.9c-0.3,0.6-0.6,1-1.1,1.4c-0.5,0.3-1,0.5-1.7,0.6c-0.7,0-1.3-0.1-1.8-0.4
			s-0.9-0.7-1.2-1.3c-0.3-0.5-0.5-1.1-0.7-1.8c-0.1-0.7-0.2-1.4-0.2-2.1c0-0.7,0-1.4,0.1-2.1c0.1-0.7,0.3-1.3,0.5-1.9s0.6-1,1.1-1.4
			C370.5,441.6,371,441.4,371.7,441.4z M371.8,442.3c-0.5,0-0.9,0.2-1.2,0.5c-0.3,0.3-0.6,0.7-0.7,1.2c-0.2,0.5-0.3,1-0.3,1.6
			c-0.1,0.6-0.1,1.1,0,1.7c0,0.6,0.1,1.1,0.2,1.7c0.1,0.6,0.2,1.1,0.4,1.5c0.2,0.5,0.5,0.8,0.8,1.1c0.3,0.3,0.7,0.4,1.2,0.4
			c0.5,0,0.9-0.2,1.2-0.5c0.3-0.3,0.6-0.7,0.7-1.2c0.2-0.5,0.3-1,0.3-1.6c0.1-0.6,0.1-1.1,0.1-1.7c0-0.6-0.1-1.1-0.2-1.7
			c-0.1-0.6-0.3-1.1-0.5-1.6c-0.2-0.5-0.5-0.8-0.8-1.1C372.7,442.4,372.3,442.3,371.8,442.3z"/>
		<path d="M384.1,442.2l-4.1,10.2l-1.3,0l4.2-10.2l-5.4,0.2l0-1l6.6-0.2L384.1,442.2z"/>
	</g>
	<g>
		<path d="M409.7,451.3l-7.1,0.3l0-1.2l4.4-4.7c0.2-0.2,0.3-0.4,0.5-0.6s0.3-0.4,0.4-0.6c0.1-0.2,0.2-0.4,0.3-0.7s0.1-0.5,0.1-0.7
			c0-0.3-0.1-0.6-0.2-0.9c-0.1-0.3-0.3-0.5-0.5-0.6s-0.4-0.3-0.7-0.4c-0.3-0.1-0.5-0.1-0.8-0.1c-0.6,0-1.1,0.2-1.5,0.6
			c-0.4,0.4-0.6,0.9-0.7,1.4l-1.1-0.2c0.1-0.4,0.2-0.8,0.4-1.1c0.2-0.3,0.4-0.6,0.7-0.9c0.3-0.2,0.6-0.5,1-0.6
			c0.4-0.1,0.8-0.2,1.2-0.2c0.4,0,0.9,0,1.3,0.1c0.4,0.1,0.8,0.3,1.1,0.5c0.3,0.2,0.6,0.6,0.8,0.9c0.2,0.4,0.3,0.8,0.3,1.3
			c0,0.4,0,0.7-0.1,1c-0.1,0.3-0.2,0.6-0.4,0.9c-0.2,0.3-0.3,0.5-0.5,0.8c-0.2,0.3-0.4,0.5-0.7,0.8l-3.8,4.1l5.9-0.2L409.7,451.3z"
			/>
		<path d="M415,439.8c0.7,0,1.3,0.1,1.7,0.4c0.5,0.3,0.9,0.7,1.2,1.3c0.3,0.5,0.5,1.2,0.7,1.8c0.1,0.7,0.2,1.4,0.3,2.1
			c0,0.7,0,1.4-0.1,2.1c-0.1,0.7-0.3,1.3-0.5,1.9c-0.3,0.6-0.6,1-1.1,1.4c-0.5,0.4-1,0.5-1.7,0.6c-0.7,0-1.3-0.1-1.8-0.4
			c-0.5-0.3-0.9-0.7-1.2-1.3s-0.5-1.1-0.7-1.8c-0.1-0.7-0.2-1.4-0.2-2.1c0-0.7,0-1.4,0.1-2.1c0.1-0.7,0.3-1.3,0.5-1.9
			c0.3-0.6,0.6-1,1.1-1.4C413.7,440,414.3,439.8,415,439.8z M415,440.7c-0.5,0-0.9,0.2-1.2,0.5c-0.3,0.3-0.6,0.7-0.7,1.2
			c-0.2,0.5-0.3,1-0.3,1.6c-0.1,0.6-0.1,1.1,0,1.7c0,0.6,0.1,1.1,0.2,1.7c0.1,0.6,0.2,1.1,0.5,1.5c0.2,0.5,0.5,0.8,0.8,1.1
			c0.3,0.3,0.7,0.4,1.2,0.4c0.5,0,0.9-0.2,1.2-0.5c0.3-0.3,0.6-0.7,0.7-1.2s0.3-1,0.3-1.6c0.1-0.6,0.1-1.1,0.1-1.7s-0.1-1.1-0.2-1.7
			c-0.1-0.6-0.3-1.1-0.5-1.6c-0.2-0.5-0.5-0.8-0.8-1.1C415.9,440.8,415.5,440.7,415,440.7z"/>
		<path d="M424.1,439.4c0.7,0,1.3,0.1,1.7,0.4c0.5,0.3,0.9,0.7,1.2,1.3c0.3,0.5,0.5,1.2,0.7,1.8c0.1,0.7,0.2,1.4,0.3,2.1
			c0,0.7,0,1.4-0.1,2.1c-0.1,0.7-0.3,1.3-0.5,1.9c-0.3,0.6-0.6,1-1.1,1.4c-0.5,0.4-1,0.5-1.7,0.6c-0.7,0-1.3-0.1-1.8-0.4
			c-0.5-0.3-0.9-0.7-1.2-1.3c-0.3-0.5-0.5-1.1-0.7-1.8c-0.1-0.7-0.2-1.4-0.3-2.1c0-0.7,0-1.4,0.1-2.1c0.1-0.7,0.3-1.3,0.5-1.9
			c0.3-0.6,0.6-1,1.1-1.4C422.8,439.6,423.4,439.4,424.1,439.4z M424.1,440.4c-0.5,0-0.9,0.2-1.2,0.5s-0.6,0.7-0.7,1.2
			s-0.3,1-0.3,1.6c-0.1,0.6-0.1,1.1,0,1.7s0.1,1.1,0.2,1.7c0.1,0.6,0.2,1.1,0.5,1.5c0.2,0.5,0.5,0.8,0.8,1.1
			c0.3,0.3,0.7,0.4,1.2,0.4c0.5,0,0.9-0.2,1.2-0.5c0.3-0.3,0.6-0.7,0.7-1.2c0.2-0.5,0.3-1,0.3-1.6c0.1-0.6,0.1-1.1,0.1-1.7
			c0-0.6-0.1-1.1-0.2-1.7c-0.1-0.6-0.3-1.1-0.5-1.6c-0.2-0.5-0.5-0.8-0.8-1.1C425,440.5,424.6,440.3,424.1,440.4z"/>
		<path d="M434.8,444.5c0.6,0.2,1.1,0.5,1.5,1c0.4,0.5,0.6,1.1,0.7,1.9c0,0.5-0.1,0.9-0.2,1.3c-0.2,0.4-0.4,0.7-0.7,1
			c-0.3,0.3-0.7,0.5-1.1,0.7c-0.4,0.2-0.9,0.3-1.3,0.3c-0.5,0-0.9,0-1.4-0.2c-0.4-0.1-0.8-0.3-1.2-0.6c-0.3-0.3-0.6-0.6-0.8-1
			c-0.2-0.4-0.3-0.8-0.3-1.3c0-0.4,0-0.7,0.1-1c0.1-0.3,0.2-0.6,0.4-0.9c0.2-0.3,0.4-0.5,0.6-0.7c0.2-0.2,0.5-0.3,0.8-0.4l0,0
			c-0.3-0.1-0.5-0.2-0.7-0.3c-0.2-0.2-0.4-0.3-0.5-0.6c-0.2-0.2-0.3-0.5-0.4-0.7c-0.1-0.3-0.1-0.5-0.2-0.8c0-0.4,0.1-0.9,0.2-1.2
			c0.2-0.4,0.4-0.7,0.6-1c0.3-0.3,0.6-0.5,1-0.6c0.4-0.2,0.8-0.2,1.2-0.3c0.4,0,0.8,0,1.2,0.2s0.7,0.3,1,0.6
			c0.3,0.2,0.5,0.5,0.7,0.9c0.2,0.4,0.3,0.8,0.3,1.2c0,0.3,0,0.6-0.1,0.8c-0.1,0.3-0.2,0.5-0.3,0.7c-0.1,0.2-0.3,0.4-0.5,0.6
			C435.3,444.2,435,444.4,434.8,444.5L434.8,444.5z M431,447.5c0,0.3,0.1,0.6,0.2,0.9c0.1,0.3,0.3,0.5,0.5,0.7
			c0.2,0.2,0.5,0.4,0.8,0.5c0.3,0.1,0.6,0.2,1,0.1c0.4,0,0.7-0.1,1-0.2c0.3-0.1,0.5-0.3,0.7-0.5c0.2-0.2,0.4-0.5,0.5-0.8
			c0.1-0.3,0.1-0.6,0.1-0.9c0-0.3-0.1-0.6-0.2-0.9s-0.3-0.5-0.5-0.7c-0.2-0.2-0.5-0.4-0.8-0.5c-0.3-0.1-0.6-0.1-1-0.1
			c-0.4,0-0.7,0.1-1,0.2c-0.3,0.1-0.5,0.3-0.7,0.5c-0.2,0.2-0.4,0.5-0.5,0.8C431.1,446.8,431,447.1,431,447.5z M431.2,442.2
			c0,0.3,0.1,0.6,0.2,0.8c0.1,0.2,0.3,0.4,0.5,0.6c0.2,0.2,0.4,0.3,0.7,0.4c0.2,0.1,0.5,0.1,0.8,0.1c0.3,0,0.5-0.1,0.8-0.2
			c0.2-0.1,0.5-0.3,0.6-0.4s0.3-0.4,0.4-0.6c0.1-0.2,0.1-0.5,0.1-0.8s-0.1-0.6-0.2-0.8c-0.1-0.2-0.3-0.5-0.5-0.6
			c-0.2-0.2-0.4-0.3-0.7-0.4c-0.2-0.1-0.5-0.1-0.8-0.1c-0.3,0-0.6,0.1-0.8,0.2c-0.2,0.1-0.4,0.3-0.6,0.5c-0.2,0.2-0.3,0.4-0.4,0.7
			C431.3,441.6,431.2,441.9,431.2,442.2z"/>
	</g>
	<g>
		<path d="M462.6,449.3l-7.1,0.3l0-1.2l4.4-4.7c0.2-0.2,0.3-0.4,0.5-0.6s0.3-0.4,0.4-0.6c0.1-0.2,0.2-0.4,0.3-0.7
			c0.1-0.2,0.1-0.5,0.1-0.7c0-0.3-0.1-0.6-0.2-0.9c-0.1-0.3-0.3-0.5-0.5-0.6c-0.2-0.2-0.4-0.3-0.7-0.4c-0.3-0.1-0.5-0.1-0.8-0.1
			c-0.6,0-1.1,0.2-1.5,0.6c-0.4,0.4-0.6,0.9-0.7,1.4l-1.1-0.2c0.1-0.4,0.2-0.8,0.4-1.1c0.2-0.3,0.4-0.6,0.7-0.9
			c0.3-0.2,0.6-0.5,1-0.6s0.8-0.2,1.2-0.2c0.4,0,0.9,0,1.3,0.1c0.4,0.1,0.8,0.3,1.1,0.5c0.3,0.2,0.6,0.6,0.8,0.9
			c0.2,0.4,0.3,0.8,0.3,1.3c0,0.4,0,0.7-0.1,1c-0.1,0.3-0.2,0.6-0.4,0.9c-0.2,0.3-0.3,0.5-0.5,0.8s-0.4,0.5-0.7,0.8l-3.8,4.1
			l5.9-0.2L462.6,449.3z"/>
		<path d="M467.9,437.8c0.7,0,1.3,0.1,1.7,0.4c0.5,0.3,0.9,0.7,1.2,1.3c0.3,0.5,0.5,1.2,0.7,1.8c0.1,0.7,0.2,1.4,0.3,2.1
			c0,0.7,0,1.4-0.1,2.1c-0.1,0.7-0.3,1.3-0.5,1.9c-0.3,0.6-0.6,1-1.1,1.4c-0.5,0.3-1,0.5-1.7,0.6c-0.7,0-1.3-0.1-1.8-0.4
			s-0.9-0.7-1.2-1.3c-0.3-0.5-0.5-1.1-0.7-1.8c-0.1-0.7-0.2-1.4-0.2-2.1c0-0.7,0-1.4,0.1-2.1c0.1-0.7,0.3-1.3,0.5-1.9s0.6-1,1.1-1.4
			C466.6,438,467.2,437.8,467.9,437.8z M467.9,438.7c-0.5,0-0.9,0.2-1.2,0.5c-0.3,0.3-0.6,0.7-0.7,1.2c-0.2,0.5-0.3,1-0.3,1.6
			c-0.1,0.6-0.1,1.1,0,1.7c0,0.6,0.1,1.1,0.2,1.7c0.1,0.6,0.2,1.1,0.4,1.5c0.2,0.5,0.5,0.8,0.8,1.1c0.3,0.3,0.7,0.4,1.2,0.4
			c0.5,0,0.9-0.2,1.2-0.5c0.3-0.3,0.6-0.7,0.7-1.2c0.2-0.5,0.3-1,0.3-1.6c0.1-0.6,0.1-1.1,0.1-1.7c0-0.6-0.1-1.1-0.2-1.7
			c-0.1-0.6-0.3-1.1-0.5-1.6c-0.2-0.5-0.5-0.8-0.8-1.1C468.8,438.8,468.4,438.7,467.9,438.7z"/>
		<path d="M476.9,437.4c0.7,0,1.3,0.1,1.7,0.4c0.5,0.3,0.9,0.7,1.2,1.3c0.3,0.5,0.5,1.2,0.7,1.8c0.1,0.7,0.2,1.4,0.3,2.1
			c0,0.7,0,1.4-0.1,2.1c-0.1,0.7-0.3,1.3-0.5,1.9c-0.3,0.6-0.6,1-1.1,1.4c-0.5,0.4-1,0.5-1.7,0.6c-0.7,0-1.3-0.1-1.8-0.4
			c-0.5-0.3-0.9-0.7-1.2-1.3c-0.3-0.5-0.5-1.1-0.7-1.8c-0.1-0.7-0.2-1.4-0.3-2.1c0-0.7,0-1.4,0.1-2.1c0.1-0.7,0.3-1.3,0.5-1.9
			c0.3-0.6,0.6-1,1.1-1.4C475.7,437.7,476.2,437.5,476.9,437.4z M477,438.4c-0.5,0-0.9,0.2-1.2,0.5c-0.3,0.3-0.6,0.7-0.7,1.2
			c-0.2,0.5-0.3,1-0.3,1.6c-0.1,0.6-0.1,1.1,0,1.7s0.1,1.1,0.2,1.7c0.1,0.6,0.2,1.1,0.5,1.5c0.2,0.5,0.5,0.8,0.8,1.1
			c0.3,0.3,0.7,0.4,1.2,0.4c0.5,0,0.9-0.2,1.2-0.5c0.3-0.3,0.6-0.7,0.7-1.2c0.2-0.5,0.3-1,0.3-1.6c0.1-0.6,0.1-1.1,0.1-1.7
			s-0.1-1.1-0.2-1.7c-0.1-0.6-0.3-1.1-0.5-1.6c-0.2-0.5-0.5-0.8-0.8-1.1C477.8,438.5,477.4,438.4,477,438.4z"/>
		<path d="M487.7,443.6L487.7,443.6c-0.2,0.1-0.4,0.2-0.7,0.3c-0.3,0.1-0.6,0.1-0.9,0.1c-0.5,0-0.9,0-1.3-0.2s-0.8-0.4-1.1-0.7
			c-0.3-0.3-0.6-0.6-0.8-1.1s-0.3-0.9-0.3-1.4c0-0.5,0.1-1,0.2-1.4c0.2-0.4,0.4-0.8,0.7-1.1c0.3-0.3,0.7-0.6,1.1-0.8
			c0.4-0.2,0.9-0.3,1.4-0.3s1,0,1.4,0.2s0.8,0.4,1.2,0.7c0.3,0.3,0.6,0.6,0.8,1.1c0.2,0.4,0.3,0.9,0.3,1.4c0,0.6-0.1,1.1-0.2,1.6
			c-0.2,0.5-0.4,1-0.7,1.4l-2.8,5l-1.3,0L487.7,443.6z M488.6,440.5c0-0.4-0.1-0.7-0.2-1c-0.1-0.3-0.3-0.6-0.5-0.8
			c-0.2-0.2-0.5-0.4-0.8-0.5c-0.3-0.1-0.6-0.2-1-0.2c-0.4,0-0.7,0.1-1,0.2c-0.3,0.1-0.6,0.3-0.8,0.6c-0.2,0.2-0.4,0.5-0.5,0.8
			c-0.1,0.3-0.2,0.7-0.1,1c0,0.4,0.1,0.7,0.2,1c0.1,0.3,0.3,0.6,0.5,0.8c0.2,0.2,0.5,0.4,0.8,0.5c0.3,0.1,0.7,0.2,1,0.1
			c0.4,0,0.7-0.1,1-0.2c0.3-0.1,0.6-0.3,0.8-0.6s0.4-0.5,0.5-0.8C488.6,441.2,488.6,440.8,488.6,440.5z"/>
	</g>
	<g>
		<path d="M301.9,477.1l-1.6,0.1l-0.2-6.7l-6.1-8.6l2-0.1l4.9,7.3l4.4-7.7l1.8-0.1l-5.5,9L301.9,477.1z"/>
		<path d="M316.8,471.1c0,0.1,0,0.2,0,0.3c0,0.1,0,0.2,0,0.4l-8.5,0.3c0,0.5,0.2,1,0.4,1.4c0.2,0.4,0.5,0.8,0.8,1.2
			c0.3,0.3,0.8,0.6,1.2,0.8c0.5,0.2,1,0.3,1.5,0.2c0.8,0,1.4-0.2,2-0.6c0.5-0.4,1-0.8,1.2-1.3l1.1,0.8c-0.6,0.8-1.2,1.4-2,1.7
			c-0.7,0.4-1.5,0.6-2.4,0.6c-0.8,0-1.5-0.1-2.1-0.3c-0.7-0.2-1.2-0.6-1.7-1.1c-0.5-0.5-0.9-1-1.2-1.7c-0.3-0.6-0.5-1.4-0.5-2.1
			c0-0.8,0.1-1.5,0.3-2.2c0.2-0.7,0.6-1.2,1-1.7c0.4-0.5,1-0.9,1.6-1.2c0.6-0.3,1.3-0.5,2-0.5c0.8,0,1.5,0.1,2.1,0.3
			c0.6,0.2,1.1,0.6,1.6,1c0.4,0.4,0.8,1,1,1.6S316.8,470.4,316.8,471.1z M315.3,470.7c-0.1-1-0.4-1.7-1-2.4
			c-0.6-0.6-1.4-0.9-2.5-0.9c-0.5,0-1,0.1-1.4,0.3s-0.8,0.5-1.1,0.8c-0.3,0.3-0.6,0.7-0.7,1.1c-0.2,0.4-0.3,0.8-0.3,1.3L315.3,470.7
			z"/>
		<path d="M326.3,469.6c0-0.9-0.3-1.5-0.8-1.9c-0.5-0.4-1.2-0.6-2.1-0.6c-0.6,0-1.2,0.2-1.7,0.4s-1,0.5-1.3,0.9l-0.9-1
			c0.4-0.4,1-0.8,1.6-1.1c0.7-0.3,1.5-0.5,2.3-0.5c0.6,0,1.1,0,1.6,0.2c0.5,0.1,0.9,0.3,1.3,0.6s0.7,0.7,0.9,1.1
			c0.2,0.5,0.3,1,0.4,1.6l0.2,4.5c0,0.4,0,0.8,0.1,1.2c0,0.4,0.1,0.8,0.2,1.1l-1.3,0c-0.1-0.2-0.1-0.5-0.1-0.8
			c0-0.3-0.1-0.6-0.1-0.9l0,0c-0.4,0.7-1,1.2-1.5,1.5c-0.6,0.3-1.3,0.5-2.1,0.5c-0.4,0-0.8,0-1.2-0.1c-0.4-0.1-0.8-0.3-1.2-0.5
			c-0.4-0.2-0.6-0.5-0.9-0.9c-0.2-0.4-0.4-0.9-0.4-1.4c0-0.8,0.1-1.4,0.5-1.9c0.4-0.5,0.9-0.8,1.6-1.1c0.7-0.3,1.4-0.4,2.3-0.5
			c0.9-0.1,1.8-0.2,2.7-0.2L326.3,469.6z M325.9,471.1c-0.6,0-1.2,0.1-1.8,0.1c-0.6,0.1-1.2,0.2-1.7,0.4c-0.5,0.2-0.9,0.4-1.2,0.7
			c-0.3,0.3-0.5,0.7-0.4,1.2c0,0.4,0.1,0.7,0.2,0.9c0.1,0.2,0.3,0.4,0.6,0.6c0.2,0.1,0.5,0.2,0.8,0.3c0.3,0.1,0.6,0.1,0.9,0.1
			c0.5,0,1-0.1,1.4-0.3c0.4-0.2,0.7-0.5,1-0.8c0.3-0.3,0.5-0.7,0.6-1.1c0.1-0.4,0.2-0.8,0.2-1.3l0-0.8L325.9,471.1z"/>
		<path d="M331.4,467c0-0.4-0.1-0.8-0.1-1.2l1.4-0.1c0,0.3,0.1,0.6,0.1,0.9c0,0.3,0,0.6,0.1,0.8l0,0c0.3-0.6,0.7-1.1,1.3-1.5
			c0.6-0.4,1.2-0.6,1.9-0.6c0.2,0,0.4,0,0.5,0c0.2,0,0.3,0,0.5,0.1l-0.1,1.4c-0.1,0-0.2,0-0.4-0.1s-0.4,0-0.6,0
			c-0.4,0-0.8,0.1-1.1,0.3c-0.4,0.2-0.7,0.4-0.9,0.7c-0.3,0.3-0.5,0.7-0.6,1.2c-0.1,0.5-0.2,1.1-0.2,1.8l0.2,5.2l-1.5,0.1l-0.3-8
			C331.5,467.8,331.4,467.4,331.4,467z"/>
	</g>
	<g>
		<path d="M70.6,390.1l0.1,2.2l-1.3,0l-0.1-2.4l-3.6-0.3l0.1,2.4l-1.3,0l-0.1-2.6l-4.7-0.5l-0.1-1.3l4.7,0.5l-0.1-2.9l-4.7-0.5
			l0-1.3l4.7,0.5l-0.1-2l1.3,0l0.1,2.2l3.6,0.3l-0.1-2.1l1.3,0l0.1,2.3L75,385l0.1,1.3l-4.7-0.5l0.1,2.9l4.7,0.5l0,1.3L70.6,390.1z
			 M69.2,388.6l-0.1-2.9l-3.6-0.3l0.1,2.9L69.2,388.6z"/>
		<path d="M69.1,363.4c0.8,0,1.5,0.1,2.2,0.3c0.7,0.2,1.2,0.6,1.7,1.1c0.5,0.5,0.9,1,1.2,1.7c0.3,0.7,0.5,1.4,0.5,2.2
			c0,0.8-0.1,1.5-0.3,2.2c-0.2,0.7-0.6,1.3-1.1,1.8c-0.5,0.5-1,0.9-1.7,1.2c-0.6,0.3-1.4,0.5-2.1,0.5c-0.8,0-1.5-0.1-2.2-0.3
			c-0.7-0.2-1.2-0.6-1.7-1.1c-0.5-0.5-0.9-1-1.2-1.7c-0.3-0.7-0.5-1.4-0.5-2.2c0-0.8,0.1-1.5,0.3-2.2c0.2-0.7,0.6-1.3,1.1-1.8
			c0.5-0.5,1-0.9,1.7-1.2C67.6,363.5,68.3,363.4,69.1,363.4z M69.2,364.9c-0.6,0-1.1,0.1-1.6,0.3c-0.5,0.2-0.9,0.5-1.3,0.8
			c-0.4,0.3-0.6,0.8-0.8,1.3c-0.2,0.5-0.3,1-0.3,1.6c0,0.6,0.2,1.1,0.4,1.6c0.2,0.5,0.5,0.9,0.9,1.2c0.4,0.3,0.8,0.6,1.3,0.7
			c0.5,0.2,1,0.2,1.6,0.2c0.6,0,1.1-0.1,1.6-0.3c0.5-0.2,0.9-0.5,1.3-0.8c0.4-0.4,0.6-0.8,0.8-1.2c0.2-0.5,0.3-1,0.3-1.6
			c0-0.6-0.1-1.1-0.4-1.6c-0.2-0.5-0.5-0.9-0.9-1.2c-0.4-0.3-0.8-0.6-1.3-0.7C70.3,365,69.7,364.9,69.2,364.9z"/>
		<path d="M65,356l0.1,2.4l9-0.3l0.1,1.5l-9,0.3l0.1,2.1l-1.2,0l-0.1-2.1l-2.8,0.1c-1.2,0-2.1-0.2-2.8-0.8c-0.7-0.5-1.1-1.4-1.1-2.6
			c0-0.2,0-0.4,0-0.6c0-0.2,0-0.4,0.1-0.6l1.3,0.2c0,0.2-0.1,0.3-0.1,0.5c0,0.2,0,0.3,0,0.5c0,0.4,0.1,0.7,0.2,1
			c0.1,0.3,0.3,0.4,0.6,0.6s0.5,0.2,0.9,0.3s0.7,0.1,1,0l2.6-0.1l-0.1-2.4L65,356z"/>
		<path d="M73.5,343.3l0.1,1.6l-10.1,4.6l-0.1-1.7l8.5-3.6l0,0l-8.8-3l-0.1-1.6L73.5,343.3z"/>
		<path d="M59,335.6c0.3,0,0.6,0.1,0.8,0.3c0.2,0.2,0.3,0.4,0.3,0.7c0,0.3-0.1,0.5-0.3,0.7c-0.2,0.2-0.4,0.3-0.7,0.4
			c-0.3,0-0.6-0.1-0.8-0.3c-0.2-0.2-0.3-0.4-0.3-0.7c0-0.3,0.1-0.5,0.3-0.7C58.5,335.7,58.7,335.6,59,335.6z M73.2,335.3l0.1,1.5
			L63,337.2l-0.1-1.5L73.2,335.3z"/>
		<path d="M64.9,324.3c-0.4,0.3-0.7,0.6-0.9,1.1c-0.2,0.5-0.3,1-0.3,1.6c0,0.6,0.1,1.1,0.4,1.6c0.2,0.5,0.5,0.9,0.9,1.2
			c0.4,0.3,0.8,0.6,1.3,0.7c0.5,0.2,1.1,0.2,1.6,0.2c0.6,0,1.1-0.1,1.6-0.3c0.5-0.2,0.9-0.5,1.3-0.8c0.4-0.3,0.6-0.8,0.8-1.3
			s0.3-1,0.3-1.6c0-0.7-0.2-1.2-0.4-1.6c-0.3-0.4-0.6-0.8-1-1.1l0.8-1.1c0.6,0.4,1,0.9,1.4,1.6c0.3,0.6,0.5,1.4,0.6,2.3
			c0,0.8-0.1,1.6-0.3,2.3c-0.2,0.7-0.6,1.3-1.1,1.8c-0.5,0.5-1,0.9-1.7,1.2c-0.6,0.3-1.4,0.4-2.1,0.5c-0.8,0-1.5-0.1-2.2-0.3
			c-0.7-0.2-1.2-0.6-1.7-1c-0.5-0.5-0.9-1-1.2-1.7c-0.3-0.7-0.5-1.4-0.5-2.2c0-0.7,0.1-1.4,0.4-2.1c0.3-0.7,0.7-1.3,1.3-1.8
			L64.9,324.3z"/>
		<path d="M63.5,316.2l0.1,2.9l6-0.2c0.4,0,0.7-0.1,0.9-0.1c0.2-0.1,0.4-0.2,0.6-0.3c0.1-0.1,0.2-0.3,0.3-0.5c0-0.2,0.1-0.4,0.1-0.6
			c0-0.2,0-0.4-0.1-0.6c-0.1-0.2-0.2-0.4-0.3-0.6l1.3-0.1c0.1,0.3,0.2,0.5,0.3,0.8c0.1,0.3,0.1,0.6,0.1,0.9c0,0.3,0,0.6-0.1,0.9
			c-0.1,0.3-0.2,0.6-0.4,0.9c-0.2,0.3-0.5,0.5-0.8,0.7c-0.3,0.2-0.8,0.3-1.4,0.3l-6.4,0.2l0.1,2.1l-1.2,0l-0.1-2.1l-2.9,0.1
			l-0.1-1.5l2.9-0.1l-0.1-2.9L63.5,316.2z"/>
		<path d="M58.1,312.2c0.3,0,0.6,0.1,0.8,0.3c0.2,0.2,0.3,0.4,0.3,0.7s-0.1,0.5-0.3,0.7c-0.2,0.2-0.4,0.3-0.7,0.4
			c-0.3,0-0.6-0.1-0.8-0.3c-0.2-0.2-0.3-0.4-0.3-0.7s0.1-0.5,0.3-0.7C57.6,312.4,57.8,312.2,58.1,312.2z M72.3,312l0.1,1.5
			l-10.2,0.4l-0.1-1.5L72.3,312z"/>
		<path d="M62.1,305.6c-0.4-0.6-0.6-1.3-0.6-2c0-0.3,0-0.6,0.1-0.9c0-0.3,0.1-0.6,0.3-0.9s0.4-0.6,0.6-0.8c0.3-0.3,0.6-0.5,1-0.7
			c-0.7-0.3-1.3-0.8-1.7-1.4c-0.4-0.6-0.6-1.3-0.6-2.1c0-1.3,0.3-2.3,1-3c0.7-0.7,1.8-1,3-1.1l6.3-0.2l0.1,1.5l-5.7,0.2
			c-1.1,0-1.9,0.3-2.6,0.7c-0.6,0.4-0.9,1.1-0.9,2.1c0,0.5,0.1,1,0.4,1.4c0.2,0.4,0.5,0.7,0.9,0.9c0.4,0.2,0.8,0.4,1.2,0.4
			c0.5,0.1,0.9,0.1,1.4,0.1l5.4-0.2l0.1,1.5l-6,0.2c-0.5,0-0.9,0.1-1.4,0.2c-0.4,0.1-0.7,0.2-1,0.4c-0.3,0.2-0.5,0.5-0.6,0.8
			c-0.1,0.3-0.2,0.7-0.2,1.2c0,0.3,0.1,0.7,0.3,1.1c0.2,0.4,0.4,0.7,0.8,0.9c0.3,0.3,0.8,0.5,1.3,0.6c0.5,0.2,1.1,0.2,1.8,0.2
			l5.2-0.2l0.1,1.5l-8,0.3c-0.3,0-0.6,0-1.1,0.1c-0.4,0-0.8,0.1-1.2,0.1l-0.1-1.4c0.3,0,0.6-0.1,0.9-0.1c0.3,0,0.6,0,0.8-0.1l0,0
			C63,306.6,62.5,306.2,62.1,305.6z"/>
		<path d="M63.4,283.6c-0.4,0.2-0.7,0.6-1,1c-0.3,0.5-0.4,1-0.3,1.5c0,0.3,0,0.5,0.1,0.8c0.1,0.3,0.2,0.5,0.3,0.7
			c0.1,0.2,0.3,0.4,0.5,0.5c0.2,0.1,0.5,0.2,0.7,0.2c0.5,0,0.8-0.2,1.1-0.6c0.2-0.4,0.4-1,0.6-1.9c0.2-1.2,0.5-2.1,1-2.7
			c0.5-0.6,1.1-0.9,1.9-0.9c0.6,0,1.1,0.1,1.5,0.3c0.4,0.2,0.7,0.5,1,0.8c0.3,0.4,0.5,0.8,0.6,1.2c0.1,0.5,0.2,0.9,0.2,1.4
			c0,0.8-0.1,1.5-0.4,2.3c-0.3,0.7-0.8,1.4-1.4,1.8l-0.9-1.1c0.4-0.3,0.8-0.7,1.1-1.2c0.3-0.5,0.4-1.1,0.4-1.7
			c0-0.3-0.1-0.6-0.1-0.9c-0.1-0.3-0.2-0.5-0.3-0.8c-0.2-0.2-0.3-0.4-0.6-0.5c-0.2-0.1-0.5-0.2-0.8-0.2c-0.5,0-0.9,0.3-1.2,0.8
			c-0.2,0.5-0.5,1.3-0.7,2.3c-0.1,0.3-0.1,0.6-0.2,1c-0.1,0.3-0.2,0.7-0.4,1s-0.5,0.5-0.8,0.8c-0.3,0.2-0.7,0.3-1.2,0.3
			c-0.5,0-1-0.1-1.4-0.3c-0.4-0.2-0.7-0.5-0.9-0.8c-0.3-0.3-0.4-0.7-0.6-1.2c-0.1-0.4-0.2-0.9-0.2-1.3c0-0.7,0.1-1.4,0.4-2.1
			s0.7-1.2,1.3-1.6L63.4,283.6z"/>
		<path d="M64.6,273.6c0.8,0,1.7-0.1,2.5-0.3c0.8-0.2,1.6-0.4,2.4-0.7c0.8-0.3,1.5-0.6,2.2-1c0.7-0.4,1.3-0.8,1.9-1.2l0.8,1.1
			c-0.6,0.5-1.3,0.9-2,1.4c-0.7,0.4-1.5,0.8-2.3,1.1c-0.8,0.3-1.7,0.6-2.6,0.8c-0.9,0.2-1.8,0.3-2.8,0.3c-0.9,0-1.9,0-2.8-0.1
			c-0.9-0.1-1.8-0.3-2.6-0.6c-0.8-0.3-1.6-0.6-2.4-0.9c-0.8-0.4-1.4-0.8-2.1-1.2l0.7-1.2c0.6,0.4,1.3,0.8,2,1.1
			c0.7,0.3,1.5,0.6,2.2,0.8c0.8,0.2,1.6,0.4,2.4,0.5C62.9,273.6,63.7,273.7,64.6,273.6z"/>
		<path d="M60.6,264.6c-0.4-0.6-0.6-1.3-0.6-2c0-0.3,0-0.6,0.1-0.9c0-0.3,0.1-0.6,0.3-0.9c0.2-0.3,0.4-0.6,0.6-0.8
			c0.3-0.3,0.6-0.5,1-0.7c-0.7-0.3-1.3-0.8-1.7-1.4c-0.4-0.6-0.6-1.3-0.6-2.1c0-1.3,0.3-2.3,1-3c0.7-0.7,1.8-1,3-1.1l6.3-0.2
			l0.1,1.5l-5.7,0.2c-1.1,0-1.9,0.3-2.6,0.7c-0.6,0.4-0.9,1.1-0.9,2.1c0,0.5,0.1,1,0.4,1.4c0.2,0.4,0.5,0.7,0.9,0.9
			c0.4,0.2,0.8,0.4,1.2,0.4c0.5,0.1,0.9,0.1,1.4,0.1l5.4-0.2l0.1,1.5l-6,0.2c-0.5,0-0.9,0.1-1.4,0.2c-0.4,0.1-0.7,0.2-1,0.4
			c-0.3,0.2-0.5,0.5-0.6,0.8c-0.1,0.3-0.2,0.7-0.2,1.2c0,0.4,0.1,0.7,0.3,1.1c0.2,0.4,0.4,0.7,0.8,0.9c0.3,0.3,0.8,0.5,1.3,0.6
			c0.5,0.2,1.1,0.2,1.8,0.2l5.2-0.2l0.1,1.5l-8,0.3c-0.3,0-0.6,0-1.1,0.1c-0.4,0-0.8,0.1-1.2,0.1l-0.1-1.4c0.3,0,0.6-0.1,0.9-0.1
			c0.3,0,0.6,0,0.8-0.1l0,0C61.5,265.6,61,265.2,60.6,264.6z"/>
		<path d="M55.7,246.4c0.3,0,0.6,0.1,0.8,0.3s0.3,0.4,0.3,0.7s-0.1,0.5-0.3,0.7c-0.2,0.2-0.4,0.3-0.7,0.4c-0.3,0-0.6-0.1-0.8-0.3
			c-0.2-0.2-0.3-0.4-0.3-0.7s0.1-0.5,0.3-0.7C55.1,246.5,55.4,246.4,55.7,246.4z M69.9,246.2l0.1,1.5L59.7,248l-0.1-1.5L69.9,246.2z
			"/>
		<path d="M69.6,240.7l0.1,1.5l-16.5,0.6l-0.1-1.5L69.6,240.7z"/>
		<path d="M69.4,235.2l0.1,1.5L53,237.3l-0.1-1.5L69.4,235.2z"/>
		<path d="M55.1,229.9c0.3,0,0.6,0.1,0.8,0.3c0.2,0.2,0.3,0.4,0.3,0.7c0,0.3-0.1,0.5-0.3,0.7c-0.2,0.2-0.4,0.3-0.7,0.4
			c-0.3,0-0.6-0.1-0.8-0.3c-0.2-0.2-0.3-0.4-0.3-0.7c0-0.3,0.1-0.5,0.3-0.7C54.5,230,54.7,229.9,55.1,229.9z M69.2,229.7l0.1,1.5
			l-10.2,0.4l-0.1-1.5L69.2,229.7z"/>
		<path d="M63.6,215.8c0.8,0,1.5,0.1,2.2,0.3c0.7,0.2,1.2,0.6,1.7,1.1c0.5,0.5,0.9,1,1.2,1.7c0.3,0.7,0.5,1.4,0.5,2.2
			c0,0.8-0.1,1.5-0.3,2.2c-0.2,0.7-0.6,1.3-1.1,1.8c-0.5,0.5-1,0.9-1.7,1.2c-0.6,0.3-1.4,0.5-2.1,0.5s-1.5-0.1-2.2-0.3
			c-0.7-0.2-1.2-0.6-1.7-1.1c-0.5-0.5-0.9-1-1.2-1.7c-0.3-0.7-0.5-1.4-0.5-2.2c0-0.8,0.1-1.5,0.3-2.2c0.2-0.7,0.6-1.3,1.1-1.8
			c0.5-0.5,1-0.9,1.7-1.2C62.1,215.9,62.8,215.8,63.6,215.8z M63.6,217.3c-0.6,0-1.1,0.1-1.6,0.3c-0.5,0.2-0.9,0.5-1.3,0.8
			c-0.4,0.4-0.6,0.8-0.8,1.3s-0.3,1-0.3,1.6c0,0.6,0.2,1.1,0.4,1.6c0.2,0.5,0.5,0.9,0.9,1.2c0.4,0.3,0.8,0.6,1.3,0.7
			c0.5,0.2,1,0.2,1.6,0.2c0.6,0,1.1-0.1,1.6-0.3c0.5-0.2,0.9-0.5,1.3-0.8c0.4-0.4,0.6-0.8,0.8-1.2c0.2-0.5,0.3-1,0.3-1.6
			c0-0.6-0.1-1.1-0.4-1.6c-0.2-0.5-0.5-0.9-0.9-1.2c-0.4-0.3-0.8-0.6-1.3-0.7C64.8,217.4,64.2,217.3,63.6,217.3z"/>
		<path d="M58.3,211.4c0.3,0,0.6-0.1,0.9-0.1c0.3,0,0.6,0,0.8-0.1l0,0c-0.6-0.3-1.1-0.7-1.5-1.4c-0.4-0.6-0.6-1.3-0.6-2.1
			c0-1.3,0.3-2.3,1-3c0.7-0.7,1.8-1,3-1.1l6.3-0.2l0.1,1.5l-5.7,0.2c-0.5,0-1,0.1-1.5,0.2c-0.4,0.1-0.8,0.3-1.1,0.5
			c-0.3,0.2-0.5,0.5-0.7,0.9c-0.2,0.4-0.2,0.8-0.2,1.4c0,0.4,0.1,0.8,0.3,1.1c0.2,0.4,0.4,0.7,0.8,1c0.3,0.3,0.8,0.5,1.3,0.7
			c0.5,0.2,1.1,0.2,1.8,0.2l5.2-0.2l0.1,1.5l-8,0.3c-0.3,0-0.6,0-1.1,0.1c-0.4,0-0.8,0.1-1.2,0.1L58.3,211.4z"/>
		<path d="M60.1,194.5c-0.4,0.2-0.7,0.6-1,1c-0.3,0.5-0.4,1-0.3,1.5c0,0.3,0,0.5,0.1,0.8c0.1,0.3,0.2,0.5,0.3,0.7
			c0.1,0.2,0.3,0.4,0.5,0.5s0.5,0.2,0.7,0.2c0.5,0,0.8-0.2,1.1-0.6c0.2-0.4,0.4-1,0.6-1.9c0.2-1.2,0.5-2.1,1-2.7
			c0.5-0.6,1.1-0.9,1.9-0.9c0.6,0,1.1,0.1,1.5,0.3c0.4,0.2,0.7,0.5,1,0.8c0.3,0.4,0.5,0.8,0.6,1.2c0.1,0.5,0.2,0.9,0.2,1.4
			c0,0.8-0.1,1.5-0.4,2.3c-0.3,0.7-0.8,1.4-1.4,1.8l-0.9-1.1c0.4-0.3,0.8-0.7,1.1-1.2c0.3-0.5,0.4-1.1,0.4-1.7
			c0-0.3-0.1-0.6-0.1-0.9c-0.1-0.3-0.2-0.5-0.3-0.8c-0.2-0.2-0.3-0.4-0.6-0.5c-0.2-0.1-0.5-0.2-0.8-0.2c-0.5,0-0.9,0.3-1.2,0.8
			c-0.3,0.5-0.5,1.3-0.7,2.3c-0.1,0.3-0.1,0.6-0.2,1c-0.1,0.3-0.2,0.7-0.4,1c-0.2,0.3-0.5,0.6-0.8,0.8c-0.3,0.2-0.7,0.3-1.2,0.3
			c-0.5,0-1-0.1-1.4-0.3c-0.4-0.2-0.7-0.5-0.9-0.8c-0.3-0.3-0.4-0.7-0.6-1.1c-0.1-0.4-0.2-0.9-0.2-1.3c0-0.7,0.1-1.4,0.4-2.1
			c0.3-0.7,0.7-1.2,1.3-1.6L60.1,194.5z"/>
		<path d="M61.4,187.7c-0.8,0-1.7,0.1-2.5,0.3c-0.8,0.2-1.6,0.4-2.4,0.7c-0.8,0.3-1.5,0.6-2.2,1c-0.7,0.4-1.3,0.8-1.9,1.2l-0.8-1.1
			c0.6-0.5,1.3-0.9,2-1.3c0.7-0.4,1.5-0.8,2.3-1.1c0.8-0.3,1.7-0.6,2.6-0.8c0.9-0.2,1.8-0.3,2.8-0.3c0.9,0,1.9,0,2.8,0.1
			c0.9,0.1,1.8,0.3,2.6,0.6c0.8,0.3,1.6,0.6,2.4,0.9c0.8,0.4,1.4,0.8,2.1,1.2l-0.7,1.2c-0.6-0.4-1.3-0.7-2-1.1
			c-0.7-0.3-1.5-0.6-2.2-0.8c-0.8-0.2-1.6-0.4-2.4-0.5C63,187.7,62.2,187.7,61.4,187.7z"/>
	</g>
	<g>
		<path d="M92.3,385.8L88.2,396l-1.3,0l4.2-10.2l-5.4,0.2l0-1l6.6-0.2L92.3,385.8z"/>
	</g>
	<g>
		<path d="M88.6,337.3c0.6,0.2,1.1,0.5,1.5,1c0.4,0.5,0.6,1.1,0.7,1.9c0,0.5-0.1,0.9-0.2,1.3c-0.2,0.4-0.4,0.7-0.7,1
			c-0.3,0.3-0.7,0.5-1.1,0.7c-0.4,0.2-0.9,0.3-1.3,0.3c-0.5,0-0.9,0-1.4-0.2c-0.4-0.1-0.8-0.3-1.2-0.6c-0.3-0.3-0.6-0.6-0.8-1
			c-0.2-0.4-0.3-0.8-0.3-1.3c0-0.4,0-0.7,0.1-1c0.1-0.3,0.2-0.6,0.4-0.9c0.2-0.3,0.4-0.5,0.6-0.7c0.2-0.2,0.5-0.3,0.8-0.4l0,0
			c-0.3-0.1-0.5-0.2-0.7-0.3c-0.2-0.2-0.4-0.3-0.5-0.6s-0.3-0.5-0.4-0.7c-0.1-0.3-0.1-0.5-0.2-0.8c0-0.4,0.1-0.9,0.2-1.2
			c0.2-0.4,0.4-0.7,0.6-1s0.6-0.5,1-0.6c0.4-0.2,0.8-0.2,1.2-0.3c0.4,0,0.8,0,1.2,0.2c0.4,0.1,0.7,0.3,1,0.6
			c0.3,0.2,0.5,0.5,0.7,0.9c0.2,0.4,0.3,0.8,0.3,1.2c0,0.3,0,0.6-0.1,0.8c-0.1,0.3-0.2,0.5-0.3,0.7c-0.1,0.2-0.3,0.4-0.5,0.6
			C89.1,337.1,88.9,337.2,88.6,337.3L88.6,337.3z M84.9,340.3c0,0.3,0.1,0.6,0.2,0.9s0.3,0.5,0.5,0.7c0.2,0.2,0.5,0.4,0.8,0.5
			c0.3,0.1,0.6,0.2,1,0.1c0.4,0,0.7-0.1,1-0.2c0.3-0.1,0.5-0.3,0.7-0.5c0.2-0.2,0.4-0.5,0.5-0.8c0.1-0.3,0.1-0.6,0.1-0.9
			c0-0.3-0.1-0.6-0.2-0.9c-0.1-0.3-0.3-0.5-0.5-0.7c-0.2-0.2-0.5-0.4-0.8-0.5c-0.3-0.1-0.6-0.1-1-0.1c-0.4,0-0.7,0.1-1,0.2
			c-0.3,0.1-0.5,0.3-0.7,0.5c-0.2,0.2-0.4,0.5-0.5,0.8C84.9,339.7,84.9,340,84.9,340.3z M85.1,335c0,0.3,0.1,0.6,0.2,0.8
			c0.1,0.2,0.3,0.4,0.5,0.6c0.2,0.2,0.4,0.3,0.7,0.4c0.2,0.1,0.5,0.1,0.8,0.1c0.3,0,0.5-0.1,0.8-0.2c0.2-0.1,0.5-0.3,0.6-0.4
			c0.2-0.2,0.3-0.4,0.4-0.6c0.1-0.2,0.1-0.5,0.1-0.8c0-0.3-0.1-0.6-0.2-0.8c-0.1-0.2-0.3-0.5-0.5-0.6c-0.2-0.2-0.4-0.3-0.7-0.4
			c-0.2-0.1-0.5-0.1-0.8-0.1c-0.3,0-0.6,0.1-0.8,0.2c-0.2,0.1-0.4,0.3-0.6,0.5c-0.2,0.2-0.3,0.4-0.4,0.7
			C85.1,334.4,85.1,334.7,85.1,335z"/>
	</g>
	<g>
		<path d="M86.7,286.1L86.7,286.1c-0.2,0.1-0.4,0.2-0.7,0.3c-0.3,0.1-0.6,0.1-0.9,0.1c-0.5,0-0.9,0-1.3-0.2
			c-0.4-0.2-0.8-0.4-1.1-0.7c-0.3-0.3-0.6-0.6-0.8-1.1c-0.2-0.4-0.3-0.9-0.3-1.4c0-0.5,0.1-1,0.2-1.4c0.2-0.4,0.4-0.8,0.7-1.1
			c0.3-0.3,0.7-0.6,1.1-0.8c0.4-0.2,0.9-0.3,1.4-0.3c0.5,0,1,0,1.4,0.2c0.4,0.2,0.8,0.4,1.2,0.7c0.3,0.3,0.6,0.6,0.8,1.1
			c0.2,0.4,0.3,0.9,0.3,1.4c0,0.6-0.1,1.1-0.2,1.6s-0.4,1-0.7,1.4l-2.8,5l-1.3,0L86.7,286.1z M87.7,283.1c0-0.4-0.1-0.7-0.2-1
			c-0.1-0.3-0.3-0.6-0.5-0.8c-0.2-0.2-0.5-0.4-0.8-0.5c-0.3-0.1-0.6-0.2-1-0.2c-0.4,0-0.7,0.1-1,0.2c-0.3,0.1-0.6,0.3-0.8,0.6
			c-0.2,0.2-0.4,0.5-0.5,0.8c-0.1,0.3-0.2,0.7-0.1,1s0.1,0.7,0.2,1c0.1,0.3,0.3,0.6,0.5,0.8c0.2,0.2,0.5,0.4,0.8,0.5
			c0.3,0.1,0.7,0.2,1,0.1c0.4,0,0.7-0.1,1-0.2c0.3-0.1,0.6-0.3,0.8-0.6c0.2-0.2,0.4-0.5,0.5-0.8C87.6,283.7,87.7,283.4,87.7,283.1z"
			/>
	</g>
	<g>
		<path d="M82,240.7l-1.1,0l-0.4-9.7l-1.9,1.8l-0.7-0.8l2.7-2.4l1,0L82,240.7z"/>
		<path d="M89.6,229c0.7,0,1.3,0.1,1.7,0.4c0.5,0.3,0.9,0.8,1.2,1.3c0.3,0.5,0.5,1.2,0.7,1.8c0.1,0.7,0.2,1.4,0.3,2.1
			c0,0.7,0,1.4-0.1,2.1c-0.1,0.7-0.3,1.3-0.5,1.9c-0.3,0.6-0.6,1-1.1,1.4c-0.5,0.3-1,0.5-1.7,0.6c-0.7,0-1.3-0.1-1.8-0.4
			c-0.5-0.3-0.9-0.7-1.2-1.3c-0.3-0.5-0.5-1.1-0.7-1.8c-0.1-0.7-0.2-1.4-0.3-2.1c0-0.7,0-1.4,0.1-2.1c0.1-0.7,0.3-1.3,0.5-1.9
			c0.3-0.6,0.6-1,1.1-1.4C88.3,229.3,88.9,229.1,89.6,229z M89.6,230c-0.5,0-0.9,0.2-1.2,0.5c-0.3,0.3-0.6,0.7-0.7,1.2
			c-0.2,0.5-0.3,1-0.3,1.6c-0.1,0.6-0.1,1.1,0,1.7c0,0.6,0.1,1.1,0.2,1.7c0.1,0.6,0.2,1.1,0.5,1.5c0.2,0.5,0.5,0.8,0.8,1.1
			c0.3,0.3,0.7,0.4,1.2,0.4c0.5,0,0.9-0.2,1.2-0.5c0.3-0.3,0.6-0.7,0.7-1.2c0.2-0.5,0.3-1,0.3-1.6c0.1-0.6,0.1-1.1,0.1-1.7
			c0-0.6-0.1-1.1-0.2-1.7c-0.1-0.6-0.3-1.1-0.5-1.6c-0.2-0.5-0.5-0.8-0.8-1.1S90.1,230,89.6,230z"/>
	</g>
	<g>
		<path d="M80.1,188.1l-1.1,0l-0.4-9.7l-1.9,1.8l-0.7-0.8l2.7-2.4l1,0L80.1,188.1z"/>
		<path d="M89.1,187.8l-1.1,0l-0.4-9.7l-1.9,1.8l-0.7-0.8l2.7-2.4l1,0L89.1,187.8z"/>
	</g>
	<g>
		<path d="M122.8,129.9l-1.6,0.1l-0.5-14.1l-5.2,0.2l-0.1-1.4l11.9-0.4l0.1,1.4l-5.2,0.2L122.8,129.9z"/>
		<path d="M131,121.1c0.3-0.6,0.7-1.1,1.3-1.5c0.6-0.4,1.3-0.6,2-0.6c1.3,0,2.3,0.3,3,1c0.7,0.7,1,1.8,1.1,3l0.2,6.3l-1.5,0.1
			l-0.2-5.7c0-0.5-0.1-1-0.2-1.5c-0.1-0.4-0.3-0.8-0.5-1.1c-0.2-0.3-0.5-0.5-0.9-0.7c-0.4-0.2-0.8-0.2-1.4-0.2
			c-0.4,0-0.8,0.1-1.1,0.3c-0.4,0.2-0.7,0.4-1,0.8c-0.3,0.3-0.5,0.8-0.7,1.3c-0.2,0.5-0.2,1.1-0.2,1.8l0.2,5.2l-1.5,0.1l-0.6-16.5
			l1.5-0.1L131,121.1L131,121.1z"/>
		<path d="M151.6,123.4c0,0.1,0,0.2,0,0.3c0,0.1,0,0.2,0,0.4l-8.5,0.3c0,0.5,0.2,1,0.4,1.4c0.2,0.4,0.5,0.8,0.8,1.2
			c0.3,0.3,0.8,0.6,1.2,0.8c0.5,0.2,1,0.3,1.5,0.2c0.8,0,1.4-0.2,2-0.6c0.5-0.4,1-0.8,1.2-1.3l1.1,0.8c-0.6,0.8-1.2,1.4-2,1.7
			c-0.7,0.4-1.5,0.6-2.4,0.6c-0.8,0-1.5-0.1-2.1-0.3c-0.7-0.2-1.2-0.6-1.7-1.1c-0.5-0.5-0.9-1-1.2-1.7c-0.3-0.6-0.5-1.4-0.5-2.1
			c0-0.8,0.1-1.5,0.3-2.2c0.2-0.7,0.6-1.2,1-1.7c0.4-0.5,1-0.9,1.6-1.2c0.6-0.3,1.3-0.5,2-0.5c0.8,0,1.5,0.1,2.1,0.3
			c0.6,0.2,1.1,0.6,1.6,1c0.4,0.4,0.8,1,1,1.6C151.5,122.1,151.6,122.7,151.6,123.4z M150.1,123c-0.1-1-0.4-1.7-1-2.4
			c-0.6-0.6-1.4-0.9-2.5-0.9c-0.5,0-1,0.1-1.4,0.3c-0.4,0.2-0.8,0.5-1.1,0.8c-0.3,0.3-0.6,0.7-0.7,1.1c-0.2,0.4-0.3,0.8-0.3,1.3
			L150.1,123z"/>
		<path d="M171.5,125.8L171.5,125.8l-0.5-13.2l1.6-0.1l0.6,15.5l-2,0.1l-9.5-13l0,0l0.5,13.3l-1.6,0.1L160,113l2-0.1L171.5,125.8z"
			/>
		<path d="M184.6,127.6c0-0.3-0.1-0.6-0.1-0.9c0-0.3,0-0.6-0.1-0.8l0,0c-0.3,0.6-0.7,1.1-1.4,1.5c-0.6,0.4-1.3,0.6-2.1,0.6
			c-1.3,0-2.3-0.3-3-1c-0.7-0.7-1-1.8-1.1-3l-0.2-6.3l1.5-0.1l0.2,5.7c0,0.5,0.1,1,0.2,1.5c0.1,0.4,0.3,0.8,0.5,1.1s0.5,0.5,0.9,0.7
			c0.4,0.2,0.8,0.2,1.4,0.2c0.4,0,0.8-0.1,1.1-0.3c0.4-0.2,0.7-0.4,1-0.8c0.3-0.3,0.5-0.8,0.7-1.3c0.2-0.5,0.2-1.1,0.2-1.8l-0.2-5.2
			l1.5-0.1l0.3,8c0,0.3,0,0.6,0.1,1.1c0,0.4,0.1,0.8,0.1,1.2L184.6,127.6z"/>
		<path d="M192.4,117.4c0.6-0.4,1.3-0.6,2-0.6c0.3,0,0.6,0,0.9,0.1c0.3,0,0.6,0.1,0.9,0.3s0.6,0.4,0.8,0.6c0.3,0.3,0.5,0.6,0.7,1
			c0.3-0.7,0.8-1.3,1.4-1.7c0.6-0.4,1.3-0.6,2.1-0.6c1.3,0,2.3,0.3,3,1c0.7,0.7,1,1.8,1.1,3l0.2,6.3l-1.5,0.1l-0.2-5.7
			c0-1.1-0.3-1.9-0.7-2.6c-0.4-0.6-1.1-0.9-2.1-0.9c-0.5,0-1,0.1-1.4,0.4c-0.4,0.2-0.7,0.5-0.9,0.9c-0.2,0.4-0.4,0.8-0.4,1.2
			c-0.1,0.5-0.1,0.9-0.1,1.4l0.2,5.4l-1.5,0.1l-0.2-6c0-0.5-0.1-0.9-0.2-1.4c-0.1-0.4-0.2-0.7-0.4-1c-0.2-0.3-0.5-0.5-0.8-0.6
			c-0.3-0.1-0.7-0.2-1.2-0.2c-0.4,0-0.7,0.1-1.1,0.3c-0.4,0.2-0.7,0.4-0.9,0.8s-0.5,0.8-0.6,1.3c-0.2,0.5-0.2,1.1-0.2,1.8l0.2,5.2
			l-1.5,0.1l-0.3-8c0-0.3,0-0.6-0.1-1.1c0-0.4-0.1-0.8-0.1-1.2l1.4-0.1c0,0.3,0.1,0.6,0.1,0.9c0,0.3,0,0.6,0.1,0.8l0,0
			C191.3,118.3,191.8,117.8,192.4,117.4z"/>
		<path d="M210.7,124.9l0.1,1.7l-1.5,0.1l-0.6-16.5l1.5-0.1l0.3,8.1l0,0c0.4-0.7,1-1.2,1.6-1.6c0.7-0.4,1.4-0.6,2.1-0.6
			c0.8,0,1.5,0.1,2.2,0.3c0.7,0.3,1.2,0.6,1.7,1.1c0.5,0.5,0.9,1,1.1,1.7c0.3,0.6,0.4,1.3,0.5,2.1c0,0.8-0.1,1.5-0.3,2.1
			c-0.2,0.7-0.6,1.2-1,1.7c-0.4,0.5-1,0.9-1.6,1.2c-0.6,0.3-1.4,0.5-2.2,0.5c-0.7,0-1.5-0.1-2.2-0.4
			C211.8,126,211.2,125.6,210.7,124.9L210.7,124.9z M218.2,121.2c0-0.6-0.1-1.1-0.3-1.6c-0.2-0.5-0.5-0.9-0.8-1.3
			c-0.3-0.4-0.8-0.6-1.2-0.8c-0.5-0.2-1-0.3-1.7-0.3c-0.6,0-1.1,0.1-1.6,0.4c-0.5,0.2-0.9,0.5-1.2,0.9c-0.3,0.4-0.6,0.8-0.8,1.3
			c-0.2,0.5-0.3,1.1-0.2,1.6c0,0.6,0.1,1.1,0.4,1.6c0.2,0.5,0.5,0.9,0.9,1.3c0.4,0.4,0.8,0.6,1.3,0.8c0.5,0.2,1,0.3,1.6,0.3
			c0.6,0,1.2-0.1,1.6-0.4s0.9-0.5,1.2-0.9c0.3-0.4,0.5-0.8,0.7-1.3C218.2,122.3,218.2,121.8,218.2,121.2z"/>
		<path d="M232.3,120.4c0,0.1,0,0.2,0,0.3c0,0.1,0,0.2,0,0.4l-8.5,0.3c0,0.5,0.2,1,0.4,1.4c0.2,0.4,0.5,0.8,0.8,1.2
			c0.3,0.3,0.8,0.6,1.2,0.8c0.5,0.2,1,0.3,1.5,0.2c0.8,0,1.4-0.2,2-0.6c0.5-0.4,1-0.8,1.2-1.3l1.1,0.8c-0.6,0.8-1.2,1.4-2,1.7
			c-0.7,0.4-1.5,0.6-2.4,0.6c-0.8,0-1.5-0.1-2.1-0.3c-0.7-0.2-1.2-0.6-1.7-1.1c-0.5-0.5-0.9-1-1.2-1.7c-0.3-0.6-0.5-1.4-0.5-2.1
			c0-0.8,0.1-1.5,0.3-2.2c0.2-0.7,0.6-1.2,1-1.7c0.4-0.5,1-0.9,1.6-1.2c0.6-0.3,1.3-0.5,2-0.5c0.8,0,1.5,0.1,2.1,0.3
			c0.6,0.2,1.1,0.6,1.6,1c0.4,0.4,0.8,1,1,1.6S232.2,119.7,232.3,120.4z M230.7,120c-0.1-1-0.4-1.7-1-2.4c-0.6-0.6-1.4-0.9-2.5-0.9
			c-0.5,0-1,0.1-1.4,0.3c-0.4,0.2-0.8,0.5-1.1,0.8c-0.3,0.3-0.6,0.7-0.7,1.1c-0.2,0.4-0.3,0.8-0.3,1.3L230.7,120z"/>
		<path d="M235.3,116.7c0-0.4-0.1-0.8-0.1-1.2l1.4-0.1c0,0.3,0.1,0.6,0.1,0.9c0,0.3,0,0.6,0.1,0.8l0,0c0.3-0.6,0.7-1.1,1.3-1.5
			c0.6-0.4,1.2-0.6,1.9-0.6c0.2,0,0.4,0,0.5,0c0.2,0,0.3,0,0.5,0.1l-0.1,1.4c-0.1,0-0.2,0-0.4-0.1c-0.2,0-0.4,0-0.6,0
			c-0.4,0-0.8,0.1-1.1,0.3c-0.4,0.2-0.7,0.4-0.9,0.7c-0.3,0.3-0.5,0.7-0.6,1.2c-0.1,0.5-0.2,1.1-0.2,1.8l0.2,5.2l-1.5,0.1l-0.3-8
			C235.4,117.5,235.3,117.1,235.3,116.7z"/>
		<path d="M259,119.7c0,0.8-0.1,1.5-0.3,2.2c-0.2,0.7-0.6,1.2-1.1,1.7c-0.5,0.5-1,0.9-1.7,1.2c-0.7,0.3-1.4,0.5-2.2,0.5
			c-0.8,0-1.5-0.1-2.2-0.3c-0.7-0.2-1.3-0.6-1.8-1.1c-0.5-0.5-0.9-1-1.2-1.7c-0.3-0.6-0.5-1.4-0.5-2.1c0-0.8,0.1-1.5,0.3-2.2
			c0.2-0.7,0.6-1.2,1.1-1.7c0.5-0.5,1-0.9,1.7-1.2c0.7-0.3,1.4-0.5,2.2-0.5c0.8,0,1.5,0.1,2.2,0.3c0.7,0.2,1.3,0.6,1.8,1.1
			s0.9,1,1.2,1.7C258.8,118.2,259,118.9,259,119.7z M257.4,119.8c0-0.6-0.1-1.1-0.3-1.6c-0.2-0.5-0.5-0.9-0.8-1.3
			c-0.3-0.4-0.8-0.6-1.3-0.8c-0.5-0.2-1-0.3-1.6-0.3c-0.6,0-1.1,0.2-1.6,0.4c-0.5,0.2-0.9,0.5-1.2,0.9c-0.3,0.4-0.6,0.8-0.7,1.3
			c-0.2,0.5-0.2,1-0.2,1.6c0,0.6,0.1,1.1,0.3,1.6c0.2,0.5,0.5,0.9,0.8,1.3c0.3,0.4,0.8,0.6,1.2,0.8c0.5,0.2,1,0.3,1.6,0.3
			c0.6,0,1.1-0.1,1.6-0.4s0.9-0.5,1.2-0.9c0.3-0.4,0.6-0.8,0.7-1.3C257.4,120.9,257.4,120.3,257.4,119.8z"/>
		<path d="M266.4,115.6l-2.4,0.1l0.3,9l-1.5,0.1l-0.3-9l-2.1,0.1l0-1.2l2.1-0.1l-0.1-2.8c0-1.2,0.2-2.1,0.8-2.8
			c0.5-0.7,1.4-1.1,2.6-1.1c0.2,0,0.4,0,0.6,0c0.2,0,0.4,0,0.6,0.1l-0.2,1.3c-0.2,0-0.3-0.1-0.5-0.1c-0.2,0-0.3,0-0.5,0
			c-0.4,0-0.7,0.1-1,0.2c-0.3,0.1-0.4,0.3-0.6,0.6c-0.1,0.2-0.2,0.5-0.3,0.9s-0.1,0.7,0,1l0.1,2.6l2.4-0.1L266.4,115.6z"/>
		<path d="M274.4,124.3l-1.7,0.1l6.1-15.7l1.5-0.1l7.2,15.2l-1.8,0.1l-1.9-4l-8,0.3L274.4,124.3z M276.5,118.7l6.8-0.3l-3.7-8.1
			L276.5,118.7z"/>
		<path d="M298.1,121.6c-0.4,0.7-1,1.2-1.7,1.6c-0.7,0.4-1.4,0.6-2.1,0.6c-0.8,0-1.5-0.1-2.2-0.3c-0.7-0.3-1.2-0.6-1.7-1.1
			c-0.5-0.5-0.9-1-1.1-1.7c-0.3-0.6-0.4-1.3-0.5-2.1c0-0.8,0.1-1.5,0.3-2.1c0.2-0.7,0.6-1.2,1-1.7c0.4-0.5,1-0.9,1.6-1.2
			c0.6-0.3,1.4-0.5,2.2-0.5c0.7,0,1.5,0.1,2.2,0.4c0.7,0.3,1.3,0.8,1.8,1.5l0,0l-0.3-8.1l1.5-0.1l0.6,16.5l-1.5,0.1L298.1,121.6
			L298.1,121.6z M290.4,118.5c0,0.6,0.1,1.1,0.3,1.6c0.2,0.5,0.5,0.9,0.8,1.3c0.3,0.4,0.8,0.6,1.2,0.8c0.5,0.2,1,0.3,1.7,0.3
			c0.6,0,1.1-0.1,1.6-0.4s0.9-0.5,1.2-0.9c0.3-0.4,0.6-0.8,0.8-1.3c0.2-0.5,0.3-1.1,0.2-1.6c0-0.6-0.1-1.1-0.4-1.6
			c-0.2-0.5-0.5-0.9-0.9-1.3c-0.4-0.4-0.8-0.6-1.3-0.8c-0.5-0.2-1-0.3-1.6-0.3c-0.6,0-1.2,0.2-1.6,0.4c-0.5,0.2-0.9,0.5-1.2,0.9
			c-0.3,0.4-0.5,0.8-0.7,1.3C290.4,117.4,290.4,118,290.4,118.5z"/>
		<path d="M311.1,122.9c0-0.3-0.1-0.6-0.1-0.9c0-0.3,0-0.6-0.1-0.8l0,0c-0.3,0.6-0.7,1.1-1.4,1.5c-0.6,0.4-1.3,0.6-2.1,0.6
			c-1.3,0-2.3-0.3-3-1.1c-0.7-0.7-1-1.8-1.1-3l-0.2-6.3l1.5-0.1l0.2,5.7c0,0.5,0.1,1,0.2,1.5c0.1,0.4,0.3,0.8,0.5,1.1
			c0.2,0.3,0.5,0.5,0.9,0.7c0.4,0.2,0.8,0.2,1.4,0.2c0.4,0,0.8-0.1,1.1-0.3c0.4-0.2,0.7-0.4,1-0.8s0.5-0.8,0.7-1.3
			c0.2-0.5,0.2-1.1,0.2-1.8l-0.2-5.2l1.5-0.1l0.3,8c0,0.3,0,0.6,0.1,1.1c0,0.4,0.1,0.8,0.1,1.2L311.1,122.9z"/>
		<path d="M317.9,122.6l-1.5,0.1l-0.6-16.5l1.5-0.1L317.9,122.6z"/>
		<path d="M326.2,113.3l-2.9,0.1l0.2,6c0,0.4,0.1,0.7,0.1,0.9c0.1,0.2,0.2,0.4,0.3,0.6c0.1,0.1,0.3,0.2,0.5,0.3
			c0.2,0,0.4,0.1,0.6,0.1c0.2,0,0.4,0,0.6-0.1c0.2-0.1,0.4-0.2,0.6-0.3l0.1,1.3c-0.3,0.1-0.5,0.2-0.8,0.3c-0.3,0.1-0.6,0.1-0.9,0.1
			c-0.3,0-0.6,0-0.9-0.1c-0.3-0.1-0.6-0.2-0.9-0.4c-0.3-0.2-0.5-0.5-0.7-0.8c-0.2-0.3-0.3-0.8-0.3-1.4l-0.2-6.4l-2.1,0.1l0-1.2
			l2.1-0.1l-0.1-2.9l1.5-0.1l0.1,2.9l2.9-0.1L326.2,113.3z"/>
		<path d="M335.9,122l-1.6,0.1l-0.6-15.5l1.6-0.1L335.9,122z"/>
		<path d="M348.3,119.8c-0.4,0.7-1,1.2-1.7,1.6c-0.7,0.4-1.4,0.6-2.1,0.6c-0.8,0-1.5-0.1-2.2-0.3s-1.2-0.6-1.7-1.1
			c-0.5-0.5-0.9-1-1.1-1.7c-0.3-0.6-0.4-1.3-0.5-2.1c0-0.8,0.1-1.5,0.3-2.1c0.2-0.7,0.6-1.2,1-1.7s1-0.9,1.6-1.2s1.4-0.5,2.2-0.5
			c0.7,0,1.5,0.1,2.2,0.4c0.7,0.3,1.3,0.8,1.8,1.5l0,0l-0.3-8.1l1.5-0.1l0.6,16.5l-1.5,0.1L348.3,119.8L348.3,119.8z M340.6,116.7
			c0,0.6,0.1,1.1,0.3,1.6c0.2,0.5,0.5,0.9,0.8,1.3s0.8,0.6,1.2,0.8c0.5,0.2,1,0.3,1.7,0.3c0.6,0,1.1-0.1,1.6-0.4
			c0.5-0.2,0.9-0.5,1.2-0.9c0.3-0.4,0.6-0.8,0.8-1.3c0.2-0.5,0.3-1.1,0.2-1.6c0-0.6-0.1-1.1-0.4-1.6c-0.2-0.5-0.5-0.9-0.9-1.3
			c-0.4-0.4-0.8-0.6-1.3-0.8c-0.5-0.2-1-0.3-1.6-0.3c-0.6,0-1.2,0.2-1.6,0.4s-0.9,0.5-1.2,0.9c-0.3,0.4-0.5,0.8-0.7,1.3
			C340.7,115.6,340.6,116.1,340.6,116.7z"/>
		<path d="M363,115.5c0,0.1,0,0.2,0,0.3c0,0.1,0,0.2,0,0.4l-8.5,0.3c0,0.5,0.2,1,0.4,1.4c0.2,0.4,0.5,0.8,0.8,1.2
			c0.3,0.3,0.8,0.6,1.2,0.8c0.5,0.2,1,0.3,1.5,0.2c0.8,0,1.4-0.2,2-0.6c0.5-0.4,1-0.8,1.2-1.3l1.1,0.8c-0.6,0.8-1.2,1.4-2,1.7
			c-0.7,0.4-1.5,0.6-2.4,0.6c-0.8,0-1.5-0.1-2.1-0.3c-0.7-0.2-1.2-0.6-1.7-1.1c-0.5-0.5-0.9-1-1.2-1.7c-0.3-0.6-0.5-1.4-0.5-2.1
			c0-0.8,0.1-1.5,0.3-2.2c0.2-0.7,0.6-1.2,1-1.7c0.4-0.5,1-0.9,1.6-1.2c0.6-0.3,1.3-0.5,2-0.5c0.8,0,1.5,0.1,2.1,0.3
			c0.6,0.2,1.1,0.6,1.6,1c0.4,0.4,0.8,1,1,1.6C362.9,114.2,363,114.8,363,115.5z M361.5,115.1c-0.1-1-0.4-1.7-1-2.4
			c-0.6-0.6-1.4-0.9-2.5-0.9c-0.5,0-1,0.1-1.4,0.3c-0.4,0.2-0.8,0.5-1.1,0.8c-0.3,0.3-0.6,0.7-0.7,1.1c-0.2,0.4-0.3,0.8-0.3,1.3
			L361.5,115.1z"/>
		<path d="M367.4,110.5c0,0.3,0.1,0.6,0.1,0.9c0,0.3,0,0.6,0.1,0.8l0,0c0.3-0.6,0.7-1.1,1.4-1.5c0.6-0.4,1.3-0.6,2.1-0.6
			c1.3,0,2.3,0.3,3,1c0.7,0.7,1,1.8,1.1,3l0.2,6.3l-1.5,0.1l-0.2-5.7c0-0.5-0.1-1-0.2-1.5c-0.1-0.4-0.3-0.8-0.5-1.1
			c-0.2-0.3-0.5-0.5-0.9-0.7c-0.4-0.2-0.8-0.2-1.4-0.2c-0.4,0-0.8,0.1-1.1,0.3c-0.4,0.2-0.7,0.4-1,0.8c-0.3,0.3-0.5,0.8-0.7,1.3
			c-0.2,0.5-0.2,1.1-0.2,1.8l0.2,5.2l-1.5,0.1l-0.3-8c0-0.3,0-0.6-0.1-1.1c0-0.4-0.1-0.8-0.1-1.2L367.4,110.5z"/>
		<path d="M383.4,111.2l-2.9,0.1l0.2,6c0,0.4,0.1,0.7,0.1,0.9c0.1,0.2,0.2,0.4,0.3,0.6c0.1,0.1,0.3,0.2,0.5,0.3
			c0.2,0,0.4,0.1,0.6,0.1c0.2,0,0.4,0,0.6-0.1c0.2-0.1,0.4-0.2,0.6-0.3l0.1,1.3c-0.3,0.1-0.5,0.2-0.8,0.3c-0.3,0.1-0.6,0.1-0.9,0.1
			c-0.3,0-0.6,0-0.9-0.1c-0.3-0.1-0.6-0.2-0.9-0.4c-0.3-0.2-0.5-0.5-0.7-0.8c-0.2-0.3-0.3-0.8-0.3-1.4l-0.2-6.4l-2.1,0.1l0-1.2
			l2.1-0.1l-0.1-2.9l1.5-0.1l0.1,2.9l2.9-0.1L383.4,111.2z"/>
		<path d="M387.3,105.8c0,0.3-0.1,0.6-0.3,0.8c-0.2,0.2-0.4,0.3-0.7,0.3s-0.5-0.1-0.7-0.3c-0.2-0.2-0.3-0.4-0.4-0.7
			c0-0.3,0.1-0.6,0.3-0.8c0.2-0.2,0.4-0.3,0.7-0.3c0.3,0,0.5,0.1,0.7,0.3C387.2,105.3,387.3,105.5,387.3,105.8z M387.6,120l-1.5,0.1
			l-0.4-10.2l1.5-0.1L387.6,120z"/>
		<path d="M395.8,110.7l-2.9,0.1l0.2,6c0,0.4,0.1,0.7,0.1,0.9s0.2,0.4,0.3,0.6c0.1,0.1,0.3,0.2,0.5,0.3c0.2,0,0.4,0.1,0.6,0.1
			c0.2,0,0.4,0,0.6-0.1c0.2-0.1,0.4-0.2,0.6-0.3l0.1,1.3c-0.3,0.1-0.5,0.2-0.8,0.3s-0.6,0.1-0.9,0.1c-0.3,0-0.6,0-0.9-0.1
			c-0.3-0.1-0.6-0.2-0.9-0.4c-0.3-0.2-0.5-0.5-0.7-0.8c-0.2-0.3-0.3-0.8-0.3-1.4l-0.2-6.4l-2.1,0.1l0-1.2l2.1-0.1l-0.1-2.9l1.5-0.1
			l0.1,2.9l2.9-0.1L395.8,110.7z"/>
		<path d="M401.9,117.9L401.9,117.9l2.9-8.8l1.6-0.1l-4.6,13.1c-0.3,0.8-0.6,1.4-1.1,1.9c-0.5,0.5-1.1,0.8-2,0.8
			c-0.5,0-0.9,0-1.3-0.1l0.1-1.4c0.4,0.1,0.7,0.1,1.1,0.1c0.5,0,0.9-0.2,1.2-0.5c0.3-0.3,0.5-0.8,0.7-1.4l0.8-2.2l-4.8-10.1l1.7-0.1
			L401.9,117.9z"/>
		<path d="M419.1,118.8l-1.6,0.1l-0.5-14.1l-5.2,0.2l-0.1-1.4l11.9-0.4l0.1,1.4l-5.2,0.2L419.1,118.8z"/>
		<path d="M427.4,110c0.3-0.6,0.7-1.1,1.3-1.5c0.6-0.4,1.3-0.6,2-0.6c1.3,0,2.3,0.3,3,1c0.7,0.7,1,1.8,1.1,3l0.2,6.3l-1.5,0.1
			l-0.2-5.7c0-0.5-0.1-1-0.2-1.5c-0.1-0.4-0.3-0.8-0.5-1.1c-0.2-0.3-0.5-0.5-0.9-0.7c-0.4-0.2-0.8-0.2-1.4-0.2
			c-0.4,0-0.8,0.1-1.1,0.3c-0.4,0.2-0.7,0.4-1,0.8s-0.5,0.8-0.7,1.3c-0.2,0.5-0.2,1.1-0.2,1.8l0.2,5.2l-1.5,0.1l-0.6-16.5l1.5-0.1
			L427.4,110L427.4,110z"/>
		<path d="M448,112.3c0,0.1,0,0.2,0,0.3c0,0.1,0,0.2,0,0.4l-8.5,0.3c0,0.5,0.2,1,0.4,1.4c0.2,0.4,0.5,0.8,0.8,1.2
			c0.3,0.3,0.8,0.6,1.2,0.8c0.5,0.2,1,0.3,1.5,0.2c0.8,0,1.4-0.2,2-0.6c0.5-0.4,1-0.8,1.2-1.3l1.1,0.8c-0.6,0.8-1.2,1.4-2,1.7
			c-0.7,0.4-1.5,0.6-2.4,0.6c-0.8,0-1.5-0.1-2.1-0.3c-0.7-0.2-1.2-0.6-1.7-1.1c-0.5-0.5-0.9-1-1.2-1.7c-0.3-0.6-0.5-1.4-0.5-2.1
			c0-0.8,0.1-1.5,0.3-2.2c0.2-0.7,0.6-1.2,1-1.7c0.4-0.5,1-0.9,1.6-1.2c0.6-0.3,1.3-0.5,2-0.5c0.8,0,1.5,0.1,2.1,0.3
			c0.6,0.2,1.1,0.6,1.6,1s0.8,1,1,1.6C447.8,111,448,111.6,448,112.3z M446.5,111.9c-0.1-1-0.4-1.7-1-2.4c-0.6-0.6-1.4-0.9-2.5-0.9
			c-0.5,0-1,0.1-1.4,0.3c-0.4,0.2-0.8,0.5-1.1,0.8c-0.3,0.3-0.6,0.7-0.7,1.1c-0.2,0.4-0.3,0.8-0.3,1.3L446.5,111.9z"/>
		<path d="M455.4,108.5l-2.4,0.1l0.3,9l-1.5,0.1l-0.3-9l-2.1,0.1l0-1.2l2.1-0.1l-0.1-2.8c0-1.2,0.2-2.1,0.8-2.8
			c0.5-0.7,1.4-1.1,2.6-1.1c0.2,0,0.4,0,0.6,0c0.2,0,0.4,0,0.6,0.1l-0.2,1.3c-0.2,0-0.3-0.1-0.5-0.1c-0.2,0-0.3,0-0.5,0
			c-0.4,0-0.7,0.1-1,0.2c-0.2,0.1-0.4,0.3-0.6,0.6c-0.1,0.2-0.2,0.5-0.3,0.9c0,0.3-0.1,0.7,0,1l0.1,2.6l2.4-0.1L455.4,108.5z"/>
		<path d="M461.9,108.2l-2.9,0.1l0.2,6c0,0.4,0.1,0.7,0.1,0.9c0.1,0.2,0.2,0.4,0.3,0.6c0.1,0.1,0.3,0.2,0.5,0.3
			c0.2,0,0.4,0.1,0.6,0.1c0.2,0,0.4,0,0.6-0.1c0.2-0.1,0.4-0.2,0.6-0.3l0.1,1.3c-0.3,0.1-0.5,0.2-0.8,0.3c-0.3,0.1-0.6,0.1-0.9,0.1
			c-0.3,0-0.6,0-0.9-0.1c-0.3-0.1-0.6-0.2-0.9-0.4s-0.5-0.5-0.7-0.8c-0.2-0.3-0.3-0.8-0.3-1.4l-0.2-6.4l-2.1,0.1l0-1.2l2.1-0.1
			l-0.1-2.9l1.5-0.1l0.1,2.9l2.9-0.1L461.9,108.2z"/>
		<path d="M133.7,153.8L133.7,153.8l4.6-13.6l1.7-0.1l-5.3,15.7l-1.7,0.1l-6.5-15.3l1.7-0.1L133.7,153.8z"/>
		<path d="M143.5,141.3c0,0.3-0.1,0.6-0.3,0.8c-0.2,0.2-0.4,0.3-0.7,0.3c-0.3,0-0.5-0.1-0.7-0.3c-0.2-0.2-0.3-0.4-0.4-0.7
			c0-0.3,0.1-0.6,0.3-0.8s0.4-0.3,0.7-0.3c0.3,0,0.5,0.1,0.7,0.3C143.4,140.7,143.5,140.9,143.5,141.3z M143.7,155.4l-1.5,0.1
			l-0.4-10.2l1.5-0.1L143.7,155.4z"/>
		<path d="M154.7,147.1c-0.3-0.4-0.6-0.7-1.1-0.9c-0.5-0.2-1-0.3-1.6-0.3c-0.6,0-1.1,0.1-1.6,0.4c-0.5,0.2-0.9,0.5-1.2,0.9
			c-0.3,0.4-0.6,0.8-0.7,1.3c-0.2,0.5-0.2,1.1-0.2,1.6c0,0.6,0.1,1.1,0.3,1.6c0.2,0.5,0.5,0.9,0.8,1.3c0.3,0.4,0.8,0.6,1.3,0.8
			c0.5,0.2,1,0.3,1.6,0.3c0.7,0,1.2-0.2,1.6-0.4c0.4-0.3,0.8-0.6,1.1-1l1.1,0.8c-0.4,0.6-0.9,1-1.6,1.4c-0.6,0.3-1.4,0.5-2.3,0.6
			c-0.8,0-1.6-0.1-2.3-0.3c-0.7-0.2-1.3-0.6-1.8-1.1c-0.5-0.5-0.9-1-1.2-1.7c-0.3-0.6-0.4-1.4-0.5-2.1c0-0.8,0.1-1.5,0.3-2.2
			c0.2-0.7,0.6-1.2,1-1.7c0.5-0.5,1-0.9,1.7-1.2c0.7-0.3,1.4-0.5,2.2-0.5c0.7,0,1.4,0.1,2.1,0.4c0.7,0.3,1.3,0.7,1.8,1.3
			L154.7,147.1z"/>
		<path d="M162.9,145.7l-2.9,0.1l0.2,6c0,0.4,0.1,0.7,0.1,0.9c0.1,0.2,0.2,0.4,0.3,0.6c0.1,0.1,0.3,0.2,0.5,0.3
			c0.2,0,0.4,0.1,0.6,0.1c0.2,0,0.4,0,0.6-0.1c0.2-0.1,0.4-0.2,0.6-0.3l0.1,1.3c-0.3,0.1-0.5,0.2-0.8,0.3s-0.6,0.1-0.9,0.1
			c-0.3,0-0.6,0-0.9-0.1c-0.3-0.1-0.6-0.2-0.9-0.4c-0.3-0.2-0.5-0.5-0.7-0.8c-0.2-0.3-0.3-0.8-0.3-1.4l-0.2-6.4l-2.1,0.1l0-1.2
			l2.1-0.1l-0.1-2.9l1.5-0.1l0.1,2.9l2.9-0.1L162.9,145.7z"/>
		<path d="M166.8,140.4c0,0.3-0.1,0.6-0.3,0.8c-0.2,0.2-0.4,0.3-0.7,0.3c-0.3,0-0.5-0.1-0.7-0.3c-0.2-0.2-0.3-0.4-0.4-0.7
			c0-0.3,0.1-0.6,0.3-0.8c0.2-0.2,0.4-0.3,0.7-0.3c0.3,0,0.5,0.1,0.7,0.3C166.7,139.8,166.8,140.1,166.8,140.4z M167.1,154.6
			l-1.5,0.1l-0.4-10.2l1.5-0.1L167.1,154.6z"/>
		<path d="M173.4,144.4c0.6-0.4,1.3-0.6,2-0.6c0.3,0,0.6,0,0.9,0.1c0.3,0,0.6,0.1,0.9,0.3c0.3,0.2,0.6,0.4,0.8,0.6
			c0.3,0.3,0.5,0.6,0.7,1c0.3-0.7,0.8-1.3,1.4-1.7c0.6-0.4,1.3-0.6,2.1-0.6c1.3,0,2.3,0.3,3,1c0.7,0.7,1,1.8,1.1,3l0.2,6.3l-1.5,0.1
			l-0.2-5.7c0-1.1-0.3-1.9-0.7-2.6c-0.4-0.6-1.1-0.9-2.1-0.9c-0.5,0-1,0.1-1.4,0.4c-0.4,0.2-0.7,0.5-0.9,0.9
			c-0.2,0.4-0.4,0.8-0.4,1.2c-0.1,0.5-0.1,0.9-0.1,1.4l0.2,5.4l-1.5,0.1l-0.2-6c0-0.5-0.1-0.9-0.2-1.4c-0.1-0.4-0.2-0.7-0.4-1
			c-0.2-0.3-0.5-0.5-0.8-0.6c-0.3-0.1-0.7-0.2-1.2-0.2c-0.4,0-0.7,0.1-1.1,0.3c-0.4,0.2-0.7,0.4-0.9,0.8c-0.3,0.3-0.5,0.8-0.6,1.3
			c-0.2,0.5-0.2,1.1-0.2,1.8l0.2,5.2l-1.5,0.1l-0.3-8c0-0.3,0-0.6-0.1-1.1c0-0.4-0.1-0.8-0.1-1.2l1.4-0.1c0,0.3,0.1,0.6,0.1,0.9
			c0,0.3,0,0.6,0.1,0.8l0,0C172.4,145.3,172.9,144.8,173.4,144.4z"/>
		<path d="M195.5,145.7c-0.2-0.4-0.6-0.7-1-1c-0.5-0.3-1-0.4-1.5-0.3c-0.3,0-0.5,0-0.8,0.1c-0.3,0.1-0.5,0.2-0.7,0.3
			c-0.2,0.1-0.4,0.3-0.5,0.5c-0.1,0.2-0.2,0.5-0.2,0.7c0,0.5,0.2,0.8,0.6,1.1c0.4,0.2,1,0.4,1.9,0.6c1.2,0.2,2.1,0.5,2.7,1
			c0.6,0.5,0.9,1.1,0.9,1.9c0,0.6-0.1,1.1-0.3,1.5c-0.2,0.4-0.5,0.7-0.8,1c-0.4,0.3-0.8,0.5-1.2,0.6c-0.5,0.1-0.9,0.2-1.4,0.2
			c-0.8,0-1.5-0.1-2.3-0.4c-0.7-0.3-1.4-0.8-1.8-1.4l1.1-0.9c0.3,0.4,0.7,0.8,1.2,1.1c0.5,0.3,1.1,0.4,1.7,0.4
			c0.3,0,0.6-0.1,0.9-0.1c0.3-0.1,0.5-0.2,0.8-0.3c0.2-0.2,0.4-0.3,0.5-0.6c0.1-0.2,0.2-0.5,0.2-0.8c0-0.5-0.3-0.9-0.8-1.2
			c-0.5-0.3-1.3-0.5-2.3-0.7c-0.3-0.1-0.6-0.1-1-0.2c-0.3-0.1-0.7-0.2-1-0.4c-0.3-0.2-0.6-0.5-0.8-0.8c-0.2-0.3-0.3-0.7-0.3-1.2
			c0-0.5,0.1-1,0.3-1.4s0.5-0.7,0.8-0.9c0.3-0.3,0.7-0.4,1.1-0.6c0.4-0.1,0.9-0.2,1.3-0.2c0.7,0,1.4,0.1,2.1,0.4
			c0.7,0.3,1.2,0.7,1.6,1.3L195.5,145.7z"/>
		<path d="M206.8,138.9c0,0.3-0.1,0.6-0.3,0.8c-0.2,0.2-0.4,0.3-0.7,0.3c-0.3,0-0.5-0.1-0.7-0.3c-0.2-0.2-0.3-0.4-0.4-0.7
			c0-0.3,0.1-0.6,0.3-0.8c0.2-0.2,0.4-0.3,0.7-0.3c0.3,0,0.5,0.1,0.7,0.3C206.7,138.3,206.8,138.6,206.8,138.9z M207,153.1l-1.5,0.1
			l-0.4-10.2l1.5-0.1L207,153.1z"/>
		<path d="M211.9,142.6c0,0.3,0.1,0.6,0.1,0.9c0,0.3,0,0.6,0.1,0.8l0,0c0.3-0.6,0.7-1.1,1.4-1.5c0.6-0.4,1.3-0.6,2.1-0.6
			c1.3,0,2.3,0.3,3,1c0.7,0.7,1,1.8,1.1,3l0.2,6.3l-1.5,0.1l-0.2-5.7c0-0.5-0.1-1-0.2-1.5s-0.3-0.8-0.5-1.1
			c-0.2-0.3-0.5-0.5-0.9-0.7c-0.4-0.2-0.8-0.2-1.4-0.2c-0.4,0-0.8,0.1-1.1,0.3c-0.4,0.2-0.7,0.4-1,0.8c-0.3,0.3-0.5,0.8-0.7,1.3
			c-0.2,0.5-0.2,1.1-0.2,1.8l0.2,5.2l-1.5,0.1l-0.3-8c0-0.3,0-0.6-0.1-1.1c0-0.4-0.1-0.8-0.1-1.2L211.9,142.6z"/>
		<path d="M233.4,143.1l-2.9,0.1l0.2,6c0,0.4,0.1,0.7,0.1,0.9c0.1,0.2,0.2,0.4,0.3,0.6c0.1,0.1,0.3,0.2,0.5,0.3
			c0.2,0,0.4,0.1,0.6,0.1c0.2,0,0.4,0,0.6-0.1c0.2-0.1,0.4-0.2,0.6-0.3l0.1,1.3c-0.3,0.1-0.5,0.2-0.8,0.3s-0.6,0.1-0.9,0.1
			c-0.3,0-0.6,0-0.9-0.1c-0.3-0.1-0.6-0.2-0.9-0.4c-0.3-0.2-0.5-0.5-0.7-0.8c-0.2-0.3-0.3-0.8-0.3-1.4l-0.2-6.4l-2.1,0.1l0-1.2
			l2.1-0.1l-0.1-2.9l1.5-0.1l0.1,2.9l2.9-0.1L233.4,143.1z"/>
		<path d="M237.3,143.4c0.3-0.6,0.7-1.1,1.3-1.5c0.6-0.4,1.3-0.6,2-0.6c1.3,0,2.3,0.3,3,1c0.7,0.7,1,1.8,1.1,3l0.2,6.3l-1.5,0.1
			l-0.2-5.7c0-0.5-0.1-1-0.2-1.5c-0.1-0.4-0.3-0.8-0.5-1.1c-0.2-0.3-0.5-0.5-0.9-0.7s-0.8-0.2-1.4-0.2c-0.4,0-0.8,0.1-1.1,0.3
			c-0.4,0.2-0.7,0.4-1,0.8c-0.3,0.3-0.5,0.8-0.7,1.3c-0.2,0.5-0.2,1.1-0.2,1.8l0.2,5.2l-1.5,0.1l-0.6-16.5l1.5-0.1L237.3,143.4
			L237.3,143.4z"/>
		<path d="M257.9,145.7c0,0.1,0,0.2,0,0.3c0,0.1,0,0.2,0,0.4l-8.5,0.3c0,0.5,0.2,1,0.4,1.4c0.2,0.4,0.5,0.8,0.8,1.2
			c0.3,0.3,0.8,0.6,1.2,0.8c0.5,0.2,1,0.3,1.5,0.2c0.8,0,1.4-0.2,2-0.6c0.5-0.4,1-0.8,1.2-1.3l1.1,0.8c-0.6,0.8-1.2,1.4-2,1.7
			c-0.7,0.4-1.5,0.6-2.4,0.6c-0.8,0-1.5-0.1-2.1-0.3c-0.7-0.2-1.2-0.6-1.7-1.1c-0.5-0.5-0.9-1-1.2-1.7c-0.3-0.6-0.5-1.4-0.5-2.1
			c0-0.8,0.1-1.5,0.3-2.2c0.2-0.7,0.6-1.2,1-1.7c0.4-0.5,1-0.9,1.6-1.2c0.6-0.3,1.3-0.5,2-0.5c0.8,0,1.5,0.1,2.1,0.3
			c0.6,0.2,1.1,0.6,1.6,1c0.4,0.4,0.8,1,1,1.6C257.8,144.4,257.9,145,257.9,145.7z M256.4,145.3c-0.1-1-0.4-1.7-1-2.4
			c-0.6-0.6-1.4-0.9-2.5-0.9c-0.5,0-1,0.1-1.4,0.3c-0.4,0.2-0.8,0.5-1.1,0.8c-0.3,0.3-0.6,0.7-0.7,1.1c-0.2,0.4-0.3,0.8-0.3,1.3
			L256.4,145.3z"/>
		<path d="M272.6,151c-1.2,0-2.1-0.1-2.9-0.5s-1.4-0.9-1.8-1.5c-0.5-0.6-0.8-1.3-1-2c-0.2-0.7-0.3-1.4-0.3-2l-0.4-9.7l1.6-0.1
			l0.4,9.5c0,0.6,0.1,1.2,0.3,1.8c0.2,0.6,0.4,1.1,0.8,1.5c0.3,0.4,0.8,0.8,1.3,1.1c0.6,0.3,1.2,0.4,2,0.4s1.4-0.2,2-0.5
			c0.5-0.3,0.9-0.7,1.3-1.2s0.5-1,0.7-1.6c0.1-0.6,0.2-1.2,0.1-1.8l-0.4-9.5l1.6-0.1l0.4,9.7c0,0.6,0,1.3-0.2,2.1
			c-0.1,0.7-0.4,1.4-0.8,2c-0.4,0.6-1,1.2-1.7,1.6C274.7,150.7,273.8,151,272.6,151z"/>
		<path d="M289.4,137c-0.4-0.5-0.8-0.8-1.3-1.1c-0.5-0.3-1.2-0.4-1.9-0.4c-0.4,0-0.8,0.1-1.2,0.2c-0.4,0.1-0.7,0.3-1.1,0.6
			c-0.3,0.3-0.6,0.6-0.7,0.9c-0.2,0.4-0.3,0.8-0.2,1.3c0,0.5,0.1,0.9,0.3,1.2c0.2,0.3,0.5,0.6,0.8,0.8c0.3,0.2,0.7,0.4,1.1,0.5
			c0.4,0.1,0.8,0.3,1.3,0.4c0.5,0.2,1.1,0.3,1.6,0.5s1.1,0.4,1.5,0.7c0.4,0.3,0.8,0.7,1.1,1.2c0.3,0.5,0.5,1.1,0.5,1.9
			c0,0.8-0.1,1.4-0.4,2c-0.3,0.6-0.6,1.1-1.1,1.4c-0.5,0.4-1,0.7-1.6,0.9c-0.6,0.2-1.2,0.3-1.8,0.3c-0.5,0-0.9,0-1.4-0.1
			c-0.5-0.1-0.9-0.2-1.3-0.4c-0.4-0.2-0.8-0.4-1.2-0.7c-0.4-0.3-0.7-0.6-1-1l1.3-1.1c0.4,0.5,0.8,1,1.5,1.3c0.6,0.3,1.3,0.5,2.2,0.5
			c0.4,0,0.8-0.1,1.2-0.2c0.4-0.1,0.8-0.3,1.1-0.6c0.3-0.3,0.6-0.6,0.8-1c0.2-0.4,0.3-0.8,0.3-1.3c0-0.5-0.1-1-0.4-1.3
			s-0.5-0.6-0.9-0.9c-0.4-0.2-0.8-0.4-1.2-0.6c-0.5-0.1-0.9-0.3-1.4-0.4c-0.5-0.1-1-0.3-1.5-0.5c-0.5-0.2-1-0.4-1.4-0.7
			c-0.4-0.3-0.7-0.7-1-1.2c-0.3-0.5-0.4-1.1-0.4-1.8c0-0.7,0.1-1.4,0.4-1.9c0.3-0.6,0.7-1,1.1-1.4s1-0.6,1.6-0.8
			c0.6-0.2,1.1-0.3,1.7-0.3c1,0,2,0.1,2.7,0.5s1.3,0.8,1.7,1.3L289.4,137z"/>
		<path d="M304.1,140.4l-2.4,0.1l0.3,9l-1.5,0.1l-0.3-9l-2.1,0.1l0-1.2l2.1-0.1l-0.1-2.8c0-1.2,0.2-2.1,0.8-2.8
			c0.5-0.7,1.4-1.1,2.6-1.1c0.2,0,0.4,0,0.6,0c0.2,0,0.4,0,0.6,0.1l-0.2,1.3c-0.2,0-0.3-0.1-0.5-0.1c-0.2,0-0.3,0-0.5,0
			c-0.4,0-0.7,0.1-1,0.2c-0.2,0.1-0.4,0.3-0.6,0.6c-0.1,0.2-0.2,0.5-0.3,0.9c0,0.3-0.1,0.7,0,1l0.1,2.6l2.4-0.1L304.1,140.4z"/>
		<path d="M306.2,140.3c0-0.4-0.1-0.8-0.1-1.2l1.4-0.1c0,0.3,0.1,0.6,0.1,0.9c0,0.3,0,0.6,0.1,0.8l0,0c0.3-0.6,0.7-1.1,1.3-1.5
			c0.6-0.4,1.2-0.6,1.9-0.6c0.2,0,0.4,0,0.5,0c0.2,0,0.3,0,0.5,0.1l-0.1,1.4c-0.1,0-0.2,0-0.4-0.1c-0.2,0-0.4,0-0.6,0
			c-0.4,0-0.8,0.1-1.1,0.3c-0.4,0.2-0.7,0.4-0.9,0.7c-0.3,0.3-0.5,0.7-0.6,1.2c-0.2,0.5-0.2,1.1-0.2,1.8l0.2,5.2l-1.5,0.1l-0.3-8
			C306.3,141.1,306.3,140.7,306.2,140.3z"/>
		<path d="M324,143.6c0,0.8-0.1,1.5-0.3,2.2c-0.2,0.7-0.6,1.2-1.1,1.7c-0.5,0.5-1,0.9-1.7,1.2c-0.7,0.3-1.4,0.5-2.2,0.5
			c-0.8,0-1.5-0.1-2.2-0.3c-0.7-0.2-1.3-0.6-1.8-1.1c-0.5-0.5-0.9-1-1.2-1.7c-0.3-0.6-0.5-1.4-0.5-2.1c0-0.8,0.1-1.5,0.3-2.2
			c0.2-0.7,0.6-1.2,1.1-1.7c0.5-0.5,1-0.9,1.7-1.2c0.7-0.3,1.4-0.5,2.2-0.5c0.8,0,1.5,0.1,2.2,0.3c0.7,0.2,1.3,0.6,1.8,1.1
			c0.5,0.5,0.9,1,1.2,1.7C323.8,142.1,324,142.8,324,143.6z M322.5,143.6c0-0.6-0.1-1.1-0.3-1.6c-0.2-0.5-0.5-0.9-0.8-1.3
			c-0.3-0.4-0.8-0.6-1.3-0.8s-1-0.3-1.6-0.3c-0.6,0-1.1,0.2-1.6,0.4c-0.5,0.2-0.9,0.5-1.2,0.9c-0.3,0.4-0.6,0.8-0.7,1.3
			c-0.2,0.5-0.2,1-0.2,1.6c0,0.6,0.1,1.1,0.3,1.6c0.2,0.5,0.5,0.9,0.8,1.3c0.3,0.4,0.8,0.6,1.2,0.8c0.5,0.2,1,0.3,1.6,0.3
			c0.6,0,1.1-0.1,1.6-0.4c0.5-0.2,0.9-0.5,1.2-0.9c0.3-0.4,0.6-0.8,0.7-1.3C322.4,144.7,322.5,144.2,322.5,143.6z"/>
		<path d="M329.9,138.5c0.6-0.4,1.3-0.6,2-0.6c0.3,0,0.6,0,0.9,0.1c0.3,0,0.6,0.1,0.9,0.3c0.3,0.2,0.6,0.4,0.8,0.6
			c0.3,0.3,0.5,0.6,0.7,1c0.3-0.7,0.8-1.3,1.4-1.7c0.6-0.4,1.3-0.6,2.1-0.6c1.3,0,2.3,0.3,3,1c0.7,0.7,1,1.8,1.1,3l0.2,6.3l-1.5,0.1
			l-0.2-5.7c0-1.1-0.3-1.9-0.7-2.6c-0.4-0.6-1.1-0.9-2.1-0.9c-0.5,0-1,0.1-1.4,0.4c-0.4,0.2-0.7,0.5-0.9,0.9
			c-0.2,0.4-0.4,0.8-0.4,1.2c-0.1,0.5-0.1,0.9-0.1,1.4l0.2,5.4l-1.5,0.1l-0.2-6c0-0.5-0.1-0.9-0.2-1.4c-0.1-0.4-0.2-0.7-0.4-1
			s-0.5-0.5-0.8-0.6c-0.3-0.1-0.7-0.2-1.2-0.2c-0.3,0-0.7,0.1-1.1,0.3c-0.4,0.2-0.7,0.4-0.9,0.8c-0.3,0.3-0.5,0.8-0.6,1.3
			c-0.2,0.5-0.2,1.1-0.2,1.8l0.2,5.2l-1.5,0.1l-0.3-8c0-0.3,0-0.6-0.1-1.1c0-0.4-0.1-0.8-0.1-1.2l1.4-0.1c0,0.3,0.1,0.6,0.1,0.9
			c0,0.3,0,0.6,0.1,0.8l0,0C328.8,139.4,329.3,138.9,329.9,138.5z"/>
		<path d="M361.2,147.3l-9.9,0.4l-0.1-1.6l6.1-6.6c0.2-0.2,0.4-0.5,0.7-0.8c0.2-0.3,0.4-0.6,0.6-0.9c0.2-0.3,0.3-0.6,0.4-0.9
			c0.1-0.3,0.1-0.7,0.1-1c0-0.5-0.1-0.9-0.3-1.2c-0.2-0.4-0.4-0.7-0.7-0.9c-0.3-0.2-0.6-0.4-1-0.6c-0.4-0.1-0.8-0.2-1.2-0.2
			c-0.8,0-1.5,0.3-2.1,0.9c-0.5,0.5-0.9,1.2-1,2l-1.6-0.2c0.1-0.5,0.3-1.1,0.5-1.5s0.6-0.9,1-1.2c0.4-0.4,0.9-0.6,1.4-0.8
			c0.5-0.2,1.1-0.3,1.7-0.3c0.6,0,1.2,0,1.8,0.2c0.6,0.2,1.1,0.4,1.5,0.8c0.4,0.3,0.8,0.8,1.1,1.3c0.3,0.5,0.4,1.1,0.4,1.8
			c0,0.5,0,1-0.2,1.4c-0.1,0.4-0.3,0.8-0.5,1.2c-0.2,0.4-0.5,0.8-0.8,1.1c-0.3,0.4-0.6,0.7-0.9,1.1l-5.4,5.7l8.2-0.3L361.2,147.3z"
			/>
		<path d="M368.7,131.1c1,0,1.8,0.2,2.4,0.6c0.7,0.4,1.2,1,1.6,1.8c0.4,0.8,0.7,1.6,0.9,2.6c0.2,1,0.3,2,0.4,3c0,1,0,2-0.1,3
			c-0.1,1-0.4,1.9-0.7,2.6s-0.9,1.4-1.5,1.9c-0.6,0.5-1.4,0.8-2.4,0.8c-1,0-1.8-0.2-2.5-0.6s-1.2-1-1.6-1.8
			c-0.4-0.8-0.7-1.6-0.9-2.6s-0.3-1.9-0.4-3c0-1,0-2,0.1-3c0.1-1,0.4-1.9,0.7-2.6c0.4-0.8,0.9-1.4,1.5-1.9
			C366.9,131.4,367.7,131.2,368.7,131.1z M368.7,132.4c-0.7,0-1.2,0.3-1.7,0.7c-0.4,0.4-0.8,1-1,1.7c-0.2,0.7-0.4,1.4-0.5,2.2
			c-0.1,0.8-0.1,1.6-0.1,2.4c0,0.8,0.1,1.6,0.2,2.4c0.1,0.8,0.3,1.5,0.6,2.2c0.3,0.6,0.7,1.2,1.1,1.6c0.5,0.4,1,0.6,1.7,0.6
			c0.7,0,1.2-0.3,1.7-0.7c0.4-0.4,0.8-1,1-1.6c0.2-0.7,0.4-1.4,0.5-2.2c0.1-0.8,0.1-1.6,0.1-2.4c0-0.8-0.1-1.6-0.3-2.4
			c-0.1-0.8-0.4-1.5-0.6-2.2c-0.3-0.6-0.7-1.2-1.1-1.6C370,132.6,369.4,132.4,368.7,132.4z"/>
		<path d="M381.3,130.6c1,0,1.8,0.2,2.4,0.6c0.7,0.4,1.2,1.1,1.6,1.8c0.4,0.8,0.7,1.6,0.9,2.6c0.2,1,0.3,2,0.4,3c0,1,0,2-0.1,3
			c-0.1,1-0.4,1.9-0.7,2.6c-0.4,0.8-0.9,1.4-1.5,1.9c-0.6,0.5-1.4,0.8-2.4,0.8c-1,0-1.8-0.2-2.5-0.6c-0.7-0.4-1.2-1-1.6-1.8
			c-0.4-0.8-0.7-1.6-0.9-2.6c-0.2-1-0.3-1.9-0.4-3c0-1,0-2,0.1-3c0.1-1,0.4-1.9,0.7-2.6c0.4-0.8,0.9-1.4,1.5-1.9
			C379.6,130.9,380.4,130.7,381.3,130.6z M381.4,132c-0.7,0-1.3,0.3-1.7,0.7c-0.4,0.4-0.8,1-1,1.7c-0.2,0.7-0.4,1.4-0.5,2.2
			c-0.1,0.8-0.1,1.6-0.1,2.4c0,0.8,0.1,1.6,0.2,2.4c0.1,0.8,0.3,1.5,0.6,2.2c0.3,0.6,0.7,1.2,1.1,1.6c0.5,0.4,1,0.6,1.7,0.6
			c0.7,0,1.2-0.3,1.7-0.7c0.4-0.4,0.8-1,1-1.6c0.2-0.7,0.4-1.4,0.5-2.2c0.1-0.8,0.1-1.6,0.1-2.4c0-0.8-0.1-1.6-0.3-2.4
			c-0.1-0.8-0.4-1.5-0.6-2.2c-0.3-0.6-0.7-1.2-1.1-1.6C382.6,132.1,382.1,131.9,381.4,132z"/>
		<path d="M392.6,137.3l0.7,0c0.5,0,1-0.1,1.4-0.2c0.4-0.1,0.8-0.3,1.1-0.5c0.3-0.2,0.6-0.5,0.7-0.9c0.2-0.4,0.3-0.8,0.2-1.3
			c0-0.4-0.1-0.8-0.3-1.2c-0.2-0.4-0.4-0.6-0.7-0.9c-0.3-0.2-0.6-0.4-1-0.6s-0.8-0.2-1.2-0.2c-0.7,0-1.2,0.2-1.7,0.5
			c-0.5,0.3-0.9,0.8-1.2,1.4l-1.4-0.7c0.5-0.8,1-1.5,1.8-1.9c0.7-0.4,1.6-0.7,2.5-0.7c0.6,0,1.2,0,1.7,0.2s1,0.4,1.5,0.7
			s0.8,0.8,1,1.3c0.3,0.5,0.4,1.1,0.4,1.8c0,0.9-0.2,1.7-0.7,2.3c-0.5,0.6-1.1,1.1-1.9,1.3l0,0c0.9,0.2,1.7,0.6,2.3,1.2
			c0.6,0.6,0.9,1.5,1,2.5c0,0.7-0.1,1.4-0.3,2c-0.2,0.6-0.6,1.1-1,1.5c-0.4,0.4-1,0.7-1.6,1c-0.6,0.2-1.2,0.4-1.9,0.4
			c-1.1,0-2.1-0.2-3-0.7c-0.9-0.5-1.5-1.3-2-2.3l1.5-0.6c0.3,0.7,0.7,1.3,1.4,1.7s1.3,0.6,2.1,0.5c0.4,0,0.9-0.1,1.3-0.3
			c0.4-0.2,0.8-0.4,1.1-0.7c0.3-0.3,0.5-0.7,0.7-1.1c0.2-0.4,0.3-0.9,0.2-1.4c0-0.6-0.2-1.1-0.4-1.5c-0.2-0.4-0.6-0.7-0.9-0.9
			c-0.4-0.2-0.8-0.4-1.3-0.5s-1-0.1-1.5-0.1l-0.7,0L392.6,137.3z"/>
		<path d="M406.7,140.9l-4.9,0.2l0-1.2l4.9-0.2L406.7,140.9z"/>
		<path d="M419,145.1l-9.9,0.4l-0.1-1.6l6.1-6.6c0.2-0.2,0.4-0.5,0.7-0.8c0.2-0.3,0.4-0.6,0.6-0.9c0.2-0.3,0.3-0.6,0.4-0.9
			c0.1-0.3,0.1-0.7,0.1-1c0-0.5-0.1-0.9-0.3-1.2c-0.2-0.4-0.4-0.7-0.7-0.9c-0.3-0.2-0.6-0.4-1-0.6c-0.4-0.1-0.8-0.2-1.2-0.2
			c-0.8,0-1.5,0.3-2.1,0.9c-0.5,0.5-0.9,1.2-1,2l-1.6-0.2c0.1-0.5,0.3-1.1,0.5-1.5c0.3-0.5,0.6-0.9,1-1.2c0.4-0.4,0.9-0.6,1.4-0.8
			s1.1-0.3,1.7-0.3c0.6,0,1.2,0,1.8,0.2c0.6,0.2,1.1,0.4,1.5,0.8c0.4,0.3,0.8,0.8,1.1,1.3c0.3,0.5,0.4,1.1,0.4,1.8
			c0,0.5,0,1-0.2,1.4c-0.1,0.4-0.3,0.8-0.5,1.2c-0.2,0.4-0.5,0.8-0.8,1.1c-0.3,0.4-0.6,0.7-0.9,1.1l-5.4,5.7l8.2-0.3L419,145.1z"/>
		<path d="M426.4,129c1,0,1.8,0.2,2.4,0.6c0.7,0.4,1.2,1.1,1.6,1.8c0.4,0.8,0.7,1.6,0.9,2.6c0.2,1,0.3,2,0.4,3c0,1,0,2-0.1,3
			c-0.1,1-0.4,1.9-0.7,2.6s-0.9,1.4-1.5,1.9c-0.6,0.5-1.4,0.8-2.4,0.8c-1,0-1.8-0.2-2.5-0.6c-0.7-0.4-1.2-1-1.6-1.8
			c-0.4-0.8-0.7-1.6-0.9-2.6c-0.2-1-0.3-1.9-0.4-3c0-1,0-2,0.1-3c0.1-1,0.4-1.9,0.7-2.6c0.4-0.8,0.9-1.4,1.5-1.9
			C424.6,129.3,425.4,129,426.4,129z M426.4,130.3c-0.7,0-1.2,0.3-1.7,0.7c-0.4,0.4-0.8,1-1,1.7c-0.2,0.7-0.4,1.4-0.5,2.2
			c-0.1,0.8-0.1,1.6-0.1,2.4c0,0.8,0.1,1.6,0.2,2.4s0.3,1.5,0.6,2.2c0.3,0.6,0.7,1.2,1.1,1.6c0.5,0.4,1,0.6,1.7,0.6
			c0.7,0,1.2-0.3,1.7-0.7c0.4-0.4,0.8-1,1-1.6c0.2-0.7,0.4-1.4,0.5-2.2c0.1-0.8,0.1-1.6,0.1-2.4c0-0.8-0.1-1.6-0.3-2.4
			c-0.1-0.8-0.4-1.5-0.6-2.2c-0.3-0.6-0.7-1.2-1.1-1.6C427.7,130.5,427.1,130.3,426.4,130.3z"/>
		<path d="M439.1,128.5c1,0,1.8,0.2,2.4,0.6c0.7,0.4,1.2,1,1.6,1.8c0.4,0.8,0.7,1.6,0.9,2.6c0.2,1,0.3,2,0.4,3c0,1,0,2-0.1,3
			c-0.1,1-0.4,1.9-0.7,2.6s-0.9,1.4-1.5,1.9s-1.4,0.8-2.4,0.8c-1,0-1.8-0.2-2.5-0.6c-0.7-0.4-1.2-1-1.6-1.8
			c-0.4-0.8-0.7-1.6-0.9-2.6c-0.2-1-0.3-1.9-0.4-3c0-1,0-2,0.1-3c0.1-1,0.4-1.9,0.7-2.6c0.4-0.8,0.9-1.4,1.5-1.9
			C437.3,128.8,438.1,128.5,439.1,128.5z M439.1,129.8c-0.7,0-1.2,0.3-1.7,0.7c-0.4,0.4-0.8,1-1,1.7c-0.2,0.7-0.4,1.4-0.5,2.2
			c-0.1,0.8-0.1,1.6-0.1,2.4c0,0.8,0.1,1.6,0.2,2.4c0.1,0.8,0.3,1.5,0.6,2.2c0.3,0.6,0.7,1.2,1.1,1.6c0.5,0.4,1,0.6,1.7,0.6
			c0.7,0,1.2-0.3,1.7-0.7c0.4-0.4,0.8-1,1-1.6c0.2-0.7,0.4-1.4,0.5-2.2c0.1-0.8,0.1-1.6,0.1-2.4c0-0.8-0.1-1.6-0.3-2.4
			c-0.1-0.8-0.4-1.5-0.6-2.2c-0.3-0.6-0.7-1.2-1.1-1.6C440.4,130,439.8,129.8,439.1,129.8z"/>
		<path d="M454.1,137L454.1,137c-0.3,0.1-0.6,0.3-1,0.4c-0.4,0.1-0.8,0.2-1.2,0.2c-0.7,0-1.3-0.1-1.9-0.3c-0.6-0.2-1.1-0.5-1.5-0.9
			c-0.4-0.4-0.8-0.9-1.1-1.5c-0.3-0.6-0.4-1.2-0.4-1.9c0-0.7,0.1-1.4,0.3-2c0.2-0.6,0.6-1.1,1-1.6c0.4-0.4,1-0.8,1.6-1.1
			c0.6-0.3,1.3-0.4,2-0.4s1.4,0.1,2,0.3c0.6,0.2,1.2,0.5,1.6,0.9c0.5,0.4,0.8,0.9,1.1,1.5c0.3,0.6,0.4,1.3,0.4,2
			c0,0.8-0.1,1.6-0.3,2.2c-0.3,0.7-0.6,1.4-0.9,2l-4,7L450,144L454.1,137z M455.5,132.8c0-0.5-0.1-1-0.3-1.4
			c-0.2-0.4-0.4-0.8-0.8-1.1c-0.3-0.3-0.7-0.5-1.1-0.7c-0.4-0.2-0.9-0.2-1.4-0.2c-0.5,0-1,0.1-1.4,0.3c-0.4,0.2-0.8,0.5-1.1,0.8
			c-0.3,0.3-0.5,0.7-0.7,1.2c-0.2,0.4-0.2,0.9-0.2,1.4s0.1,1,0.3,1.4c0.2,0.4,0.4,0.8,0.7,1.1c0.3,0.3,0.7,0.5,1.1,0.7
			c0.4,0.2,0.9,0.2,1.4,0.2c0.5,0,1-0.1,1.4-0.3c0.4-0.2,0.8-0.4,1.1-0.8c0.3-0.3,0.5-0.7,0.6-1.1S455.5,133.2,455.5,132.8z"/>
	</g>
	<polygon opacity="0.49" fill="#F1EDA2" points="393,53 399.3,47.8 392.4,48.1 162.9,56.7 156,57 162.6,61.7 156.3,66.9 163,71.6 
		156.7,76.8 163.4,81.5 157.1,86.7 163.8,91.4 157.5,96.6 164.1,101.4 158.1,106.4 164.7,106.1 394.3,97.5 400.9,97.2 394.5,92.7 
		400.8,87.5 394.1,82.8 400.4,77.5 393.7,72.8 400,67.6 393.3,62.9 399.7,57.7 	"/>
</g>
<g>
</g>
<g>
</g>
<g>
</g>
<g>
</g>
<g>
</g>
<g>
</g>
</svg>
