<?xml version="1.0" encoding="utf-8"?>
<!-- Generator: Adobe Illustrator 19.2.1, SVG Export Plug-In . SVG Version: 6.00 Build 0)  -->
<svg version="1.1" id="Layer_1" xmlns="http://www.w3.org/2000/svg" xmlns:xlink="http://www.w3.org/1999/xlink" x="0px" y="0px"
	 width="119.1px" height="112.7px" viewBox="0 0 119.1 112.7" style="enable-background:new 0 0 119.1 112.7;" xml:space="preserve"
	>
<style type="text/css">
	.st0{fill:none;stroke:#231F20;stroke-width:4.7961;stroke-linecap:round;stroke-linejoin:round;stroke-miterlimit:10;}
</style>
<path class="st0" d="M83.8,7.1c0,0,8-10.6,12.7,0c0,0,15.9,6.4,6.4,10.6c0,0-3.7,12.7-11.7,4.2c0,0-14.8,7.4-13.8-0.5
	C78.5,13.5,71.1,7.1,83.8,7.1z"/>
<path class="st0" d="M98.8,55l-7.7-3.8V38.4h-7v9.2l4.4,2.3L59.1,35.2L2.4,71.1l13.3-0.8v40h33.1V82.7H64v27.6h40.7V64.7l12-0.8
	L98.8,55z M39.2,87.1H24.3v-16h14.9V87.1z M91.2,87.1H76.3v-16h14.9V87.1z"/>
</svg>
