<?xml version="1.0" encoding="utf-8"?>
<!-- Generator: Adobe Illustrator 19.2.1, SVG Export Plug-In . SVG Version: 6.00 Build 0)  -->
<svg version="1.1" id="Layer_1" xmlns="http://www.w3.org/2000/svg" xmlns:xlink="http://www.w3.org/1999/xlink" x="0px" y="0px"
	 width="800px" height="800px" viewBox="0 0 800 800" style="enable-background:new 0 0 800 800;" xml:space="preserve">
<style type="text/css">
	.st0{fill:none;stroke:#231F20;stroke-width:24.5176;stroke-linecap:round;stroke-linejoin:round;stroke-miterlimit:10;}
</style>
<g>
	<polyline class="st0" points="162.3,416 162.3,659.4 617.4,659.4 617.4,396 	"/>
	<polyline class="st0" points="94.3,459.1 384.4,275.2 587.1,376.6 678.6,422.3 	"/>
	<polygon class="st0" points="511.9,339 511.9,291.6 547.9,291.6 547.9,357 	"/>
	<path class="st0" d="M510.6,131.8c0,0,40.7-54.2,65.1,0c0,0,81.4,32.5,32.5,54.2c0,0-19,65.1-59.7,21.7c0,0-75.9,38-70.5-2.7
		C483.5,164.4,445.5,131.8,510.6,131.8z"/>
	<rect x="331.3" y="518" class="st0" width="77.6" height="141.4"/>
	<rect x="471.9" y="459.1" class="st0" width="76" height="81.7"/>
	<rect x="206.5" y="459.1" class="st0" width="76" height="81.7"/>
</g>
</svg>
