<svg id="paper" xmlns="http://www.w3.org/2000/svg" viewBox="0 0 883.05 1320.06"><defs><style>.cls-1{fill:#fffef1;}.cls-2,.cls-3{fill:none;stroke-miterlimit:10;}.cls-2{stroke:#00aeef;stroke-width:2px;}.cls-3{stroke:#da1c5c;stroke-width:2.07px;}.cls-4{fill:#231f20;}</style></defs><title>paper</title><rect class="cls-1" width="883.05" height="1314"/><line class="cls-2" x1="3.05" y1="134" x2="883.05" y2="134"/><line class="cls-2" x1="3.05" y1="158.75" x2="883.05" y2="158.75"/><line class="cls-2" x1="3.05" y1="183.5" x2="883.05" y2="183.5"/><line class="cls-2" x1="3.05" y1="208.25" x2="883.05" y2="208.25"/><line class="cls-2" x1="3.05" y1="208.25" x2="883.05" y2="208.25"/><line class="cls-2" x1="3.05" y1="233" x2="883.05" y2="233"/><line class="cls-2" x1="3.05" y1="257.75" x2="883.05" y2="257.75"/><line class="cls-2" x1="3.05" y1="282.5" x2="883.05" y2="282.5"/><line class="cls-2" x1="2.05" y1="282.5" x2="882.05" y2="282.5"/><line class="cls-2" x1="2.05" y1="307.25" x2="882.05" y2="307.25"/><line class="cls-2" x1="2.05" y1="332" x2="882.05" y2="332"/><line class="cls-2" x1="2.05" y1="356.75" x2="882.05" y2="356.75"/><line class="cls-2" x1="2.55" y1="356.75" x2="882.55" y2="356.75"/><line class="cls-2" x1="2.55" y1="381.5" x2="882.55" y2="381.5"/><line class="cls-2" x1="2.55" y1="406.25" x2="882.55" y2="406.25"/><line class="cls-2" x1="2.55" y1="431" x2="882.55" y2="431"/><line class="cls-2" x1="2.55" y1="431" x2="882.55" y2="431"/><line class="cls-2" x1="2.55" y1="455.75" x2="882.55" y2="455.75"/><line class="cls-2" x1="2.55" y1="480.5" x2="882.55" y2="480.5"/><line class="cls-2" x1="2.55" y1="505.25" x2="882.55" y2="505.25"/><line class="cls-2" x1="1.55" y1="505.25" x2="881.55" y2="505.25"/><line class="cls-2" x1="1.55" y1="530" x2="881.55" y2="530"/><line class="cls-2" x1="1.55" y1="554.75" x2="881.55" y2="554.75"/><line class="cls-2" x1="1.55" y1="579.5" x2="881.55" y2="579.5"/><line class="cls-2" x1="2.05" y1="530" x2="882.05" y2="530"/><line class="cls-2" x1="2.05" y1="554.75" x2="882.05" y2="554.75"/><line class="cls-2" x1="2.05" y1="579.5" x2="882.05" y2="579.5"/><line class="cls-2" x1="2.05" y1="604.25" x2="882.05" y2="604.25"/><line class="cls-2" x1="2.05" y1="604.25" x2="882.05" y2="604.25"/><line class="cls-2" x1="2.05" y1="629" x2="882.05" y2="629"/><line class="cls-2" x1="2.05" y1="653.75" x2="882.05" y2="653.75"/><line class="cls-2" x1="2.05" y1="678.5" x2="882.05" y2="678.5"/><line class="cls-2" x1="1.05" y1="678.5" x2="881.05" y2="678.5"/><line class="cls-2" x1="1.05" y1="703.25" x2="881.05" y2="703.25"/><line class="cls-2" x1="1.05" y1="728" x2="881.05" y2="728"/><line class="cls-2" x1="1.05" y1="752.75" x2="881.05" y2="752.75"/><line class="cls-2" x1="1.55" y1="752.75" x2="881.55" y2="752.75"/><line class="cls-2" x1="1.55" y1="777.5" x2="881.55" y2="777.5"/><line class="cls-2" x1="1.55" y1="802.25" x2="881.55" y2="802.25"/><line class="cls-2" x1="1.55" y1="827" x2="881.55" y2="827"/><line class="cls-2" x1="1.55" y1="827" x2="881.55" y2="827"/><line class="cls-2" x1="1.55" y1="851.75" x2="881.55" y2="851.75"/><line class="cls-2" x1="1.55" y1="876.5" x2="881.55" y2="876.5"/><line class="cls-2" x1="1.55" y1="901.25" x2="881.55" y2="901.25"/><line class="cls-2" x1="0.55" y1="901.25" x2="880.55" y2="901.25"/><line class="cls-2" x1="0.55" y1="926" x2="880.55" y2="926"/><line class="cls-2" x1="0.55" y1="950.75" x2="880.55" y2="950.75"/><line class="cls-2" x1="0.55" y1="975.5" x2="880.55" y2="975.5"/><line class="cls-2" x1="1.05" y1="975.5" x2="881.05" y2="975.5"/><line class="cls-2" x1="1.05" y1="1000.25" x2="881.05" y2="1000.25"/><line class="cls-2" x1="1.05" y1="1025" x2="881.05" y2="1025"/><line class="cls-2" x1="1.05" y1="1049.75" x2="881.05" y2="1049.75"/><line class="cls-2" x1="1.05" y1="1049.75" x2="881.05" y2="1049.75"/><line class="cls-2" x1="1.05" y1="1074.5" x2="881.05" y2="1074.5"/><line class="cls-2" x1="1.05" y1="1099.25" x2="881.05" y2="1099.25"/><line class="cls-2" x1="1.05" y1="1124" x2="881.05" y2="1124"/><line class="cls-2" x1="0.05" y1="1124" x2="880.05" y2="1124"/><line class="cls-2" x1="0.05" y1="1148.75" x2="880.05" y2="1148.75"/><line class="cls-2" x1="0.05" y1="1173.5" x2="880.05" y2="1173.5"/><line class="cls-2" x1="0.05" y1="1198.25" x2="880.05" y2="1198.25"/><line class="cls-2" x1="2.05" y1="1198.25" x2="882.05" y2="1198.25"/><line class="cls-2" x1="2.05" y1="1223" x2="882.05" y2="1223"/><line class="cls-2" x1="2.05" y1="1247.75" x2="882.05" y2="1247.75"/><line class="cls-3" x1="134.65" x2="134.65" y2="1320.06"/><line class="cls-2" x1="2.05" y1="1247.75" x2="882.05" y2="1247.75"/><line class="cls-2" x1="2.05" y1="1272.5" x2="882.05" y2="1272.5"/><circle class="cls-4" cx="63.51" cy="681.02" r="18.89"/><circle class="cls-4" cx="63.35" cy="191.5" r="18.89"/><circle class="cls-4" cx="66.57" cy="1154.61" r="18.89"/></svg>