<?xml version="1.0" encoding="utf-8"?>
<!-- Generator: Adobe Illustrator 19.2.1, SVG Export Plug-In . SVG Version: 6.00 Build 0)  -->
<svg version="1.1" id="Layer_1" xmlns="http://www.w3.org/2000/svg" xmlns:xlink="http://www.w3.org/1999/xlink" x="0px" y="0px"
	 width="800px" height="800px" viewBox="0 0 800 800" style="enable-background:new 0 0 800 800;" xml:space="preserve">
<style type="text/css">
	.st0{fill:none;stroke:#000000;stroke-width:11;stroke-miterlimit:10;}
</style>
<path class="st0" d="M364.2,409.4c-4.4,2.5-10.5,5.1-12.9,7c-12.5,9.5-27.6,22.5-34.6,36.9c-11.8,24.3,26.3,18.7,36.9,8.2
	c0,0,15.6-15.6-3.5,30.4c-19,45.8-6.2,58.1-6.1,58.2c3.4,3.2,11.2,0.1,14.2-1.8c10.7-6.7,10.3-20.2,13.8-30.9
	c3.6-10.8,19.9-20.6,26.2-4.8c5.2,13.1,3.1,43.6,26.5,38.5c25.2-5.4-6.9-75.7-6.9-75.7s-9.5-23.4,6.1-10.4
	c15.6,13,19.3,18.9,32.1,14.7c13.4-4.5,2-30.1-3.8-36.3c-9.1-9.9-26.7-26.5-39.6-30.4c-8.7-2.6,4.3-12.1,4.3-12.2
	c15.1-11.1,29.8-23.8,36.3-42c14.7-40.8-28.7-75.9-65.9-77.9c-26.9-1.4-57.9,13-60.7,42.5c-4.3,44.9,34.3,67.4,34.7,67.7
	c5.1,3,10.7,9.5,7.4,14.8C368.1,407,366.4,408.2,364.2,409.4z"/>
</svg>
